<svg width="400" height="400" viewBox="0 0 400 400" fill="none" xmlns="http://www.w3.org/2000/svg">
<path d="M77.73 213.314C75.5496 212.416 74.7994 212.548 72.5723 211.456C72.5888 211.462 72.6054 211.469 72.622 211.475C73.6017 211.61 75.9493 212.506 77.4451 212.951C79.2615 213.648 79.6847 213.491 81.9446 214.499C83.415 215.763 83.115 215.571 77.73 213.314ZM146.639 313.912C146.138 310.59 145.602 307.241 144.747 304.176C143.293 298.887 140.989 294.183 137.757 290.859C136.949 290.022 136.086 289.266 135.163 288.588C134.701 288.248 134.225 287.929 133.733 287.629C133.702 287.61 133.671 287.591 133.64 287.572C133.63 287.566 133.637 287.57 133.635 287.569C133.636 287.569 133.636 287.569 133.636 287.568C133.636 287.568 133.636 287.568 133.637 287.567C133.637 287.566 133.638 287.566 133.638 287.565C133.642 287.559 133.645 287.553 133.648 287.548L125.041 285.51C123.954 285.34 123.645 285.223 123.33 285.084C123.317 285.081 123.304 285.078 123.29 285.076C120.664 284.921 118.249 285.01 116.19 284.679C115.013 284.488 113.705 284.726 113.173 284.968C112.409 285.287 111.106 285.522 109.329 285.855C104.284 286.795 99.3173 288.698 94.3524 291.238C91.8519 292.499 89.3804 293.945 86.3696 295.508C85.5443 295.927 84.7314 296.328 83.6754 296.758C82.5386 297.167 81.4218 297.757 78.6866 297.891C77.3418 297.929 75.1062 297.659 73.0764 296.291C72.093 295.638 71.2494 294.787 70.6323 293.919C70.1032 293.179 69.7292 292.441 69.4533 291.746C68.9339 290.386 68.8153 289.566 68.6951 288.657C68.6107 287.939 68.5815 287.259 68.5823 286.586C68.6825 283.807 69.0684 282.887 69.3492 281.598C69.6509 280.404 69.9755 279.29 70.299 278.223C70.9497 276.086 71.6253 274.054 72.3075 272.041C72.3182 272.012 72.3289 271.983 72.3395 271.954C72.3343 271.966 72.3292 271.978 72.3241 271.989C74.8386 264.198 77.3397 256.605 79.3015 249.06C79.688 247.571 80.0271 246.091 80.3961 244.696C80.4502 244.499 80.5036 244.302 80.5563 244.106C81.4716 240.007 82.1782 235.863 82.2 232.402C82.2009 232.391 82.2014 232.405 82.2061 232.432C82.2067 232.461 82.2133 232.505 82.2224 232.551C82.2479 232.67 82.3098 232.774 82.2781 232.73C82.2483 232.692 82.1127 232.528 81.8577 232.308C81.345 231.855 80.3894 231.226 79.2675 230.624C76.9782 229.393 74.1628 228.221 71.2468 227.042C65.4184 224.708 59.2357 222.325 53.1449 219.646C54.08 219.845 55.6882 220.501 57.2282 221.169C64.2279 224.259 71.6446 226.715 77.7275 229.48C79.1353 229.861 81.0057 230.979 81.9365 231.73C82.4929 232.173 82.7243 232.428 82.7903 232.442C82.849 232.471 82.8601 232.242 82.8901 232.402C82.8936 232.651 82.8906 232.914 82.8799 233.192C82.8701 233.321 82.8605 233.453 82.8499 233.585C82.9159 234.049 82.9104 234.922 82.9019 235.727C82.9043 237.511 82.4107 240.629 82.783 240.635C83.0574 240.42 83.1371 241.174 82.7983 243.246C82.7889 243.303 82.7815 243.355 82.7726 243.41C83.14 241.111 83.4616 238.818 83.8128 236.363C83.7466 236.311 83.7085 236.124 83.7092 235.701C83.5525 236.228 83.4334 236.085 83.3093 236.108C82.8923 235.609 82.922 235.144 82.9138 232.402C82.8981 232.294 82.8864 232.36 82.8941 232.398C83.0845 232.473 82.4782 231.455 80.8553 230.609C79.7268 230.003 79.0162 229.509 78.0343 228.963C75.6382 227.923 73.1564 226.778 70.4523 225.729C69.2103 225.253 69.819 225.368 70.3605 225.507C69.2312 224.782 66.7322 223.714 64.9188 222.811C60.3514 221.986 53.0275 218.52 46.9309 215.719C44.6513 214.865 43.189 213.933 41.8821 213.111C39.7744 211.789 38.3121 211.014 35.9226 209.994C34.3102 209.297 32.4916 208.411 30.5171 207.347C24.7146 203.984 25.6162 196.906 32.0184 194.908C33.1391 194.512 34.3144 194.081 35.516 193.617C35.0062 193.737 34.451 193.868 34.4201 193.781C34.4506 193.768 34.4812 193.755 34.5117 193.743C34.4886 193.675 34.4654 193.608 34.4423 193.541C39.1061 191.738 43.7986 189.893 48.2101 187.344C49.6339 186.521 51.0518 185.678 52.4784 184.76C53.6843 183.88 54.6028 183.324 54.6207 183.529C54.6523 183.848 53.1972 184.927 51.3328 186.041C52.0257 185.786 52.4863 185.741 54.4147 184.515C54.8521 184.235 55.1761 184.049 55.3989 183.944C55.9552 183.364 56.3613 182.864 56.5072 182.54C56.7836 181.858 58.0129 180.852 60.7591 178.804C61.9505 177.911 63.3015 176.596 64.2597 175.981C64.272 175.97 64.2842 175.959 64.2964 175.947C67.9886 172.672 71.3058 169.117 74.0421 165.427C75.2602 163.788 76.4175 161.718 77.382 159.771C77.4942 159.545 77.6047 159.322 77.7137 159.103C78.1868 158.983 79.1973 157.163 80.3391 154.221C81.4231 151.333 81.7471 150.77 81.7396 151.959C81.6729 153.44 81.6876 154.967 79.5927 159.574C79.4093 159.97 79.267 160.308 79.1476 160.618C78.8874 161.305 78.7523 161.837 78.4265 162.579C78.7502 161.966 79.0655 161.328 79.3468 160.713C81.3683 156.356 82.6847 152.161 82.8371 149.263C82.8751 148.607 83.1194 147.549 83.3111 146.613C83.5728 145.329 83.6108 145.89 83.6992 146.104C83.7913 146.302 83.7662 147.076 83.6162 148.233C84.7936 143.938 84.467 140.506 83.6344 137.177C83.6338 137.178 83.6333 137.178 83.6327 137.178C83.6324 137.175 83.6322 137.172 83.6319 137.169C83.6308 137.164 83.6296 137.16 83.6285 137.156C83.6336 137.474 83.6253 137.753 83.6135 138.072C83.385 140.119 83.4129 139.297 82.1009 135.11C82.5034 136.331 82.5556 137.18 82.329 137.051C82.0927 136.923 81.7321 135.524 81.4018 134.419C80.5673 131.372 78.4859 127.627 77.0639 124.479C76.4992 123.363 75.9426 122.276 75.3536 121.122C76.4355 122.773 77.5948 124.777 78.6396 126.624C79.0652 127.368 79.6026 128.369 79.5178 127.888C79.4788 127.622 79.1178 126.792 78.7501 126.207C76.8239 123.168 75.6776 120.323 73.8506 117.088C73.1412 115.832 72.7856 114.926 73.5547 116.075C74.967 118.149 73.841 115.948 73.146 114.556C73.0937 114.452 73.0443 114.353 72.9984 114.259C72.7403 113.737 72.5185 113.244 72.3273 112.757C72.2027 112.441 72.0735 112.081 71.969 111.731C71.9159 111.553 71.8667 111.372 71.8221 111.185C71.7998 111.091 71.7787 110.996 71.759 110.898C71.7414 110.813 71.7038 110.614 71.6819 110.463C71.5978 109.795 71.5133 109.132 71.7865 107.974C72.01 106.456 73.9654 104.499 75.2344 104.235C75.9116 104.008 76.5047 103.947 77.004 103.941C77.1264 103.939 77.259 103.942 77.3563 103.947C77.4343 103.951 77.5101 103.956 77.5841 103.963C77.7321 103.975 77.8725 103.992 78.0069 104.012C78.5368 104.09 79.0108 104.221 79.3866 104.344C81.8994 105.267 83.1007 106.154 84.6782 107.087C82.802 106.061 81.647 105.26 78.6904 104.481C78.2154 104.388 77.8533 104.313 77.0617 104.317C76.1532 104.359 74.885 104.474 73.5124 105.779C72.8744 106.411 72.4614 107.216 72.2719 107.906C72.1653 108.296 72.1449 108.476 72.1174 108.689C72.0933 108.896 72.0828 109.091 72.0812 109.276C72.0785 109.645 72.1103 109.972 72.1572 110.272C72.1808 110.423 72.2085 110.566 72.2392 110.706C72.2652 110.82 72.2841 110.891 72.3083 110.982C72.7402 112.465 73.1826 113.206 73.7311 114.256C74.1717 115.057 74.6121 115.864 75.0826 116.751C75.1877 117.033 75.2984 117.318 75.4144 117.608C75.99 118.671 76.5606 119.726 77.1409 120.696C76.6949 119.482 76.4769 118.782 76.5527 118.641C76.5412 118.633 76.5256 118.618 76.5144 118.612C76.1101 118.377 74.9027 116.41 73.7412 114.251C73.3807 113.569 73.111 113.021 72.8265 112.311C72.7045 111.983 72.5951 111.655 72.5012 111.31C72.4543 111.138 72.4114 110.961 72.3737 110.777C72.3292 110.566 72.2704 110.219 72.247 109.898C72.2027 109.453 72.1931 108.941 72.3076 108.332C72.4572 107.46 73.0379 106.255 74.0129 105.507C75.8618 104.116 77.5227 104.476 77.98 104.489C79.4695 104.714 79.9617 104.957 80.7832 105.259C83.1298 106.507 85.1927 107.562 87.6094 109.164C85.3514 107.918 84.9693 107.963 84.5614 107.965C84.5747 107.976 84.5927 107.989 84.6059 108.001C86.2506 109.149 87.8012 110.143 89.5441 111.052C89.5732 111.072 89.6028 111.091 89.6319 111.111C89.6209 111.096 89.6074 111.08 89.598 111.066C89.5822 111.058 89.5663 111.05 89.5504 111.042C91.1486 111.487 96.3288 114.442 98.8974 116.4C101.826 118.645 104.483 119.878 107.521 121.43C104.454 119.781 104.209 119.023 100.564 117.018C102.285 117.769 104.23 118.86 106.144 119.875C107.261 120.495 108.393 121.106 109.518 121.695C110.952 122.803 114.411 124.274 116.213 125.313C113.514 124.304 113.139 124.571 110.631 123.545C110.615 123.541 110.586 123.53 110.569 123.526C110.653 123.568 110.736 123.611 110.819 123.652C115.174 126.064 120.01 128.138 124.938 129.581C123.143 129.774 118.549 128.072 114.576 126.334C116.719 127.367 118.85 128.304 121.058 129.158C122.237 129.469 123.457 130.14 124.661 130.334C127.683 131.081 130.715 131.581 133.665 131.66C133.616 131.653 133.565 131.646 133.516 131.639C136.905 131.905 140.121 131.347 143.132 130.363C143.727 130.166 144.315 129.962 144.902 129.753C145.556 129.537 147.282 128.482 148.408 127.614C148.504 127.581 148.638 127.518 148.655 127.54C148.954 127.611 145.967 129.453 147.299 128.888C148.567 128.365 149.666 127.299 150.645 126.304C151.385 125.563 152.209 124.681 152.843 123.838C153.636 122.794 154.327 121.569 155.039 120.878C155.771 120.203 153.71 122.917 154.029 122.907C156.543 119.636 158.393 115.79 159.771 111.737C159.476 114.436 157.507 118.843 155.048 122.124C154.064 123.458 153.224 124.438 152.075 125.679C149.256 128.561 148.175 129.273 150.147 128.421C150.721 128.128 150.116 128.634 149.85 128.893C149.406 129.357 148.758 129.746 148.352 129.9C147.659 130.176 146.619 130.678 145.728 131.242C144.427 132.046 146.572 131.077 147.13 130.843C149.2 130.031 146.5 131.626 145.237 132.21C144.881 132.389 144.473 132.564 144.034 132.729C142.13 133.474 139.704 133.728 138.72 134.176C137.615 134.759 142.366 134.036 143.067 133.956C143.073 133.973 143.077 133.99 143.135 133.99C142.548 134.173 141.889 134.357 141.293 134.486C139.623 134.783 138.019 134.664 136.166 135.023C136.112 135.041 134.893 135.004 134.887 134.981C134.052 134.419 129.485 134.315 127.122 133.522C125.861 133.513 131.189 134.498 128.346 134.209C128.158 134.178 127.974 134.147 127.798 134.12C127.998 134.158 128.196 134.194 128.398 134.231C127.805 134.588 123.96 133.873 122.52 133.772C121.69 133.745 119.36 132.869 118.083 132.545C119.905 133.506 122.787 134.431 124.629 134.88C128.796 135.899 130.629 136.279 132.168 136.788C130.736 136.83 128.736 136.383 127.066 136.057C126.718 135.974 126.279 135.876 126.114 135.812C122.632 134.432 120.694 134.056 118.694 133.676C116.394 133.239 112.38 131.424 109.495 130.201C107.267 129.188 105.247 128.39 102.677 126.816C102.818 126.672 104.351 127.546 105.267 127.983C109.093 129.836 112.96 131.412 113.561 131.023C113.747 130.882 115.292 131.308 115.746 131.245C116.848 131.429 116.092 130.763 118.529 131.538C117.473 131.001 117.878 130.978 118.711 131.064C119.646 131.169 122.511 132.01 122.592 131.718C121.297 131.334 119.945 130.855 118.673 130.394C117.787 130.08 116.29 129.518 116.515 129.692C119.001 131.676 110.835 127.713 109.17 127.178C108.444 127 105.404 125.367 105.066 125.508C105.387 125.689 105.709 125.869 106.029 126.047C107.919 127.076 109.618 127.843 111.299 128.517C111.842 128.732 112.39 128.945 112.937 129.152C113.772 129.474 114.674 129.834 115.372 130.241C116.057 130.635 116.412 130.947 116.312 131.043C116.194 131.194 114.989 130.692 113.574 130.024C110.837 128.724 111.614 129.301 111.8 129.572C108.967 128.459 106.829 127.688 104.142 126.495C101.249 125.198 98.8209 123.874 95.8959 122.017C95.8611 121.999 95.8315 121.986 95.796 121.968C95.7326 121.963 95.6687 121.959 95.5599 121.92C95.5428 121.912 95.522 121.901 95.5049 121.893C95.538 121.913 95.571 121.933 95.6043 121.953C95.8241 122.133 96.0563 122.32 96.2672 122.5C96.9819 123.121 100.266 124.903 99.4591 124.711C98.7689 124.571 95.8283 122.898 94.114 121.803C92.0338 120.489 89.1773 118.7 88.6855 117.957C85.8859 116.453 85.3484 116.495 85.7149 117.149C83.4687 115.661 81.9284 115.251 79.9561 113.851C78.3621 112.759 79.8543 113.222 79.2857 112.652C78.999 112.362 79.5617 112.551 79.2011 112.196C78.6127 111.928 78.1448 111.732 77.6174 111.548C77.3638 111.463 77.2084 111.425 77.0466 111.397C76.9864 111.389 76.9702 111.398 77.0247 111.409C77.0609 111.414 77.3146 111.456 77.7464 111.298C78.1386 111.197 78.8474 110.572 79.0074 110.065C79.0579 109.942 79.0909 109.826 79.1111 109.735C79.1258 109.671 79.1355 109.614 79.1422 109.565C79.1554 109.466 79.1569 109.398 79.1575 109.356C79.153 109.21 79.1834 109.389 79.2578 109.565C79.4476 110.048 79.6334 110.411 79.9746 111.054C81.8875 114.617 84.0057 118.246 86.0732 122.142C86.7307 123.396 86.6558 122.93 86.6291 122.681C87.0553 123.557 87.4751 124.446 87.8818 125.339C87.8858 125.35 87.8897 125.36 87.8937 125.371C88.2235 125.914 88.5424 126.452 88.8541 127.013C88.843 126.972 88.8222 126.914 88.8063 126.864C88.1314 125.235 87.3063 123.614 87.5097 123.39C87.7764 123.048 88.7033 125.319 89.3138 126.606C90.0014 128.06 89.732 127.266 89.6292 126.853C89.4354 126.088 89.6869 126.299 90.3337 127.592C91.0774 129.122 91.2676 129.987 91.3896 130.727C91.6794 132.533 91.8661 134.121 92.7487 135.49C93.0673 135.998 93.6459 138.198 93.8094 140.713C94.0428 143.096 93.8101 145.914 93.5809 148.168C93.4556 149.416 93.2882 149.535 93.1781 149.692C93.3246 146.865 93.1245 142.79 92.5125 141.702C92.4378 142.447 92.4224 143.234 92.4695 143.978C92.6079 143.432 92.7518 143.08 92.7405 144.552C92.6961 146.058 92.5091 146.436 92.3087 147.417C91.705 150.046 91.4411 149.75 91.1915 149.841C90.3514 153.669 90.5378 153.931 90.3046 155.496C90.1696 156.294 90.1562 156.793 89.7257 157.968C89.9522 157.525 90.2336 156.875 90.5605 155.767C91.3981 152.982 92.0455 150.339 92.6043 148.821C93.1931 147.168 92.832 150.238 92.6256 151.721C92.5927 152.024 92.5556 152.331 92.5157 152.638C92.4804 153.802 92.2067 155.546 91.5846 157.778C90.6943 160.315 89.6963 162.735 88.5514 165.128C88.2331 165.793 87.8895 166.462 87.5326 167.113C87.9437 166.409 88.2345 165.953 88.3845 165.865C87.885 167.447 86.9755 169.483 84.9656 172.224C83.3695 174.715 81.3756 177.086 80.4739 178.702C80.0391 179.527 77.5227 182.321 75.7377 184.103C74.6225 184.932 75.2233 184.181 76.0648 183.157C76.1085 182.938 78.3149 180.517 75.9942 182.665C75.311 183.077 75.7489 182.412 76.2926 181.623C76.7235 181.014 76.9785 180.574 76.6695 180.732C76.5929 181.33 75.2683 183.114 71.737 186.364C70.6052 187.395 69.4697 188.314 68.9014 188.963C69.1813 189.075 71.3464 187.172 72.318 186.488C71.5601 187.33 70.3898 188.436 70.084 188.904C68.2607 190.525 66.6703 191.982 64.3337 193.617C64.0744 193.801 63.8163 193.983 63.5564 194.165C62.2845 195.249 60.8344 196.303 58.8972 197.351C57.9855 197.84 57.5035 198.034 57.2572 198.078C57.2501 198.354 55.7376 199.485 52.7332 201.19C50.5967 202.382 50.1196 202.905 48.022 203.948C46.2868 204.767 44.579 205.533 42.7916 206.263C40.5747 207.157 38.347 207.929 36.1447 208.546L37.7695 195.083C38.8373 195.749 39.8507 196.389 40.8442 197.033C43.675 198.864 46.0411 200.83 45.1462 200.802C44.7936 200.786 44.3497 200.708 44.3241 200.87C44.2477 201.187 44.8616 201.678 46.5971 202.553C45.5974 201.916 45.7257 201.752 46.2428 201.851C47.4528 202.102 47.3553 201.688 47.6955 201.492C47.8044 201.54 47.9169 201.589 48.0256 201.636C46.4658 200.592 44.1175 199.172 43.5748 198.496C45.4592 199.424 47.1456 200.348 48.7051 201.265C49.1207 201.506 50.1233 202.046 49.4265 201.753C47.7419 201.035 47.9844 201.259 49.1991 201.962C50.2848 202.583 51.0052 202.776 51.7228 203.037C53.7651 203.768 56.9822 205.1 57.1131 204.681C57.1653 204.572 58.448 205.005 59.7115 205.58C60.8027 206.076 61.3364 206.443 61.2925 206.55C61.2285 206.716 61.1429 206.859 62.518 207.557C62.0727 207.642 60.5471 207.168 59.0758 206.703C60.0331 207.185 61.0024 207.622 62.4575 208.119C64.8734 208.948 67.7108 210.202 70.424 211.162C71.4907 211.542 72.4538 212.004 73.0102 212.338C74.9699 213.542 76.8734 214.221 78.7139 214.559C79.0083 214.618 79.6665 214.852 80.2056 215.043C80.7807 215.246 81.2104 215.38 81.5872 215.488C81.106 215.197 80.1526 214.734 78.8181 214.154C80.0668 214.666 81.311 215.191 82.5976 215.773C82.6885 215.799 82.7759 215.824 82.8707 215.852C82.9365 215.876 83.0121 215.906 83.0779 215.931C82.2076 215.444 82.6164 215.53 83.9302 216.053C87.1037 217.509 88.0256 218.401 89.2787 219.47C88.9711 219.256 88.6586 219.048 88.3453 218.847C88.6191 219.03 88.9054 219.223 89.216 219.435C89.7285 219.781 90.3005 220.195 90.8344 220.623C90.9624 220.729 91.0874 220.831 91.238 220.957C91.1198 220.854 91.0096 220.761 90.8985 220.668C94.3329 222.984 97.3551 228.704 97.2183 232.402C97.3254 233.701 97.4084 234.733 97.564 235.351C97.767 236.181 97.5696 238.539 97.0615 240.346C97.0567 240.366 97.0519 240.386 97.047 240.406C96.5807 241.312 96.6268 238.602 95.4644 244.675C95.4403 244.767 95.2317 244.476 95.3384 243.06C95.3061 243.057 95.2795 243.015 95.26 242.934C95.4425 240.07 96.1862 236.258 96.1574 232.402C96.1554 232.028 96.1377 231.654 96.1041 231.284C95.943 228.485 94.3683 225.141 92.6168 223.362C89.1523 219.957 87.5249 219.64 89.5085 221.322C89.6119 221.485 89.5244 221.495 89.2982 221.396C90.2338 222.023 90.9833 222.621 90.5856 222.05C90.5882 222.047 90.5907 222.044 90.5933 222.041C90.6811 221.813 92.57 223.294 93.912 225.577C95.0948 227.53 95.7216 229.97 95.8351 232.111C95.835 232.14 95.8346 232.169 95.8344 232.199C95.8393 232.266 95.8436 232.334 95.8474 232.402C95.9587 233.693 95.9974 235.148 95.7566 236.995C95.1665 241.44 94.3243 244.97 94.6577 246.2C94.6787 246.275 94.3788 247.688 94.2125 248.498C94.2051 248.531 94.1977 248.565 94.1903 248.599C94.1995 248.566 94.2088 248.532 94.218 248.499C94.3461 248.53 93.7385 251.133 94.3323 249.599C94.7968 248.392 94.2002 250.712 94.037 251.505C93.3926 254.095 93.2017 255.956 92.2558 258.781C90.7706 262.383 90.7868 262.274 92.0615 256.478C92.0558 256.491 92.0493 256.507 92.0435 256.52C91.9438 255.781 91.1116 257.556 91.5686 254.843C91.7562 253.714 91.217 255.399 90.8939 256.371C89.2023 261.452 87.9863 266.467 88.91 265.644C89.7017 264.945 88.815 267.698 87.7689 270.882C87.195 272.554 86.8005 273.577 86.5581 274.023C86.8512 273.574 86.789 274.266 86.6294 275.723C86.4944 276.386 86.3659 277.012 86.2264 277.675C85.8407 279.302 85.3161 281.148 84.8426 282.945C84.5989 283.871 84.3855 284.727 84.2233 285.517C84.1486 285.885 84.0808 286.273 84.0565 286.509C84.0212 286.766 84.0457 286.982 84.0776 286.586C84.0994 286.879 84.2094 286.988 84.1235 286.442C84.0451 286.083 83.8332 285.268 82.8549 284.209C81.9106 283.154 80.2681 282.455 79.2731 282.368C78.3832 282.262 77.9161 282.382 77.751 282.424C77.5564 282.478 77.5732 282.501 77.6421 282.489C77.8153 282.457 78.194 282.315 78.6033 282.117C79.4433 281.712 80.3975 281.118 81.2086 280.472C81.8641 279.957 83.434 279.003 84.0763 278.927C84.1552 278.924 84.2344 278.921 84.3139 278.917C84.9028 278.832 86.2905 278.045 87.6219 277.375C87.8194 277.277 88.0192 277.178 88.2211 277.08C87.9427 276.766 89.2177 275.922 92.503 274.725C92.7304 274.645 92.9597 274.564 93.1909 274.484C93.3628 274.413 93.5417 274.34 93.7071 274.274C94.8223 273.834 95.6538 273.601 96.2945 273.469C96.3203 273.46 96.3479 273.451 96.3742 273.443C99.7517 272.191 103.345 271.16 106.957 270.486C109.366 270.252 106.429 271.113 110.25 270.665C110.638 270.671 111.123 270.49 110.694 270.601C106.64 270.897 109.549 270.219 111.802 269.771C115.003 269.291 117.829 269.774 121.238 269.552C127.346 269.155 133.763 271.201 139.509 273.305C139.793 273.456 140.073 273.599 140.349 273.735C140.606 273.835 141.335 274.179 141.569 274.323C144.264 276.306 146.528 277.633 148.723 279.704C153.522 284.103 156.669 289.765 158.564 295.765C159.454 298.524 160.605 302.091 161.087 305.264C160.863 304.546 160.196 301.658 160.639 304.472C160.617 304.368 160.593 304.267 160.57 304.164C160.578 304.205 160.587 304.248 160.594 304.289C160.731 306.156 160.695 307.648 161.55 311.431C161.667 311.971 161.73 312.069 161.821 312.362C162.073 313.066 161.831 310.049 162.032 311.186C162.492 313.692 162.911 316.859 162.989 319.482C163.171 325.631 162.992 331.686 162.508 337.603C162.508 337.604 162.507 337.606 162.507 337.608L147.87 332.974C152.003 326.098 156.595 319.284 161.7 312.815C164.032 309.853 166.688 306.804 169.211 304.33C174.197 299.451 178.96 294.515 185.238 290.963C185.308 290.919 185.38 290.875 185.452 290.83C185.352 290.909 185.253 290.985 185.144 291.066C185.233 291.004 185.318 290.942 185.408 290.877C188.41 288.926 191.637 287.146 195.095 286.016C196.878 285.426 199.077 284.618 200.98 284.092C206.827 282.445 212.927 282.125 218.812 282.865C219.91 283.002 220.981 283.161 222.028 283.341C231.565 284.868 242.512 289.513 248.97 298.829C252.987 304.402 255.123 310.906 256.088 316.445C256.365 317.981 256.619 319.471 256.887 320.707C257.016 321.309 257.163 321.877 257.271 322.191C257.325 322.355 257.37 322.448 257.356 322.407C257.338 322.369 257.264 322.155 256.904 321.706C256.711 321.477 256.431 321.169 255.966 320.809C255.453 320.449 255.024 320.059 253.544 319.639C252.227 319.258 250.367 319.445 249.316 319.902C248.251 320.322 247.557 320.881 247.11 321.308C246.997 321.417 246.899 321.519 246.812 321.615C246.735 321.7 246.692 321.75 246.639 321.813C246.539 321.933 246.457 322.04 246.389 322.135C246.252 322.324 246.167 322.463 246.107 322.563C245.998 322.751 245.989 322.771 245.977 322.777C245.976 322.719 246.134 322.131 246.244 321.553C246.247 321.52 246.25 321.486 246.253 321.452C246.805 319.453 247.374 316.979 247.815 314.644C248.261 312.273 248.684 310.431 249.536 308.232C250.236 306.407 251.031 303.31 251.799 300.733C252.617 297.621 253.836 294.341 255.449 291.082C255.638 290.834 255.735 290.805 256.162 289.942C256.857 288.258 257.724 286.848 258.556 285.273C259.862 282.99 261.318 280.689 262.775 278.442C263.111 277.919 263.484 277.341 263.928 276.81C264.156 276.512 264.426 276.165 264.66 275.871C264.68 275.843 264.702 275.815 264.722 275.788C264.91 275.501 265.096 275.214 265.29 274.929C267.559 271.832 270.293 268.81 273.665 266.21C275.46 264.837 277.325 263.566 279.292 262.314C280.673 261.435 282.1 260.664 283.611 259.966C285.188 259.241 286.282 258.978 287.094 258.888C287.117 258.882 287.14 258.876 287.164 258.869C287.152 258.873 287.142 258.877 287.13 258.881C290.437 258.263 293.5 257.942 297.329 257.789C300.7 257.666 303.864 258.134 306.135 259.014C307.786 259.677 309.383 260.356 314.29 261.831C315.675 262.257 317.229 263.045 318.297 263.246C319.551 263.47 316.305 262.257 316.01 261.999C316.049 262.013 316.087 262.026 316.126 262.04C316.209 262.067 316.294 262.096 316.377 262.123C316.297 262.091 316.211 262.057 316.132 262.024C316.13 262.03 316.128 262.035 316.126 262.04C315.395 261.763 314.597 261.473 313.852 261.214C321.721 263.776 328.764 266.651 335.703 270.71C337.421 271.713 339.654 272.965 341.213 273.667C341.898 273.977 342.606 274.301 342.993 274.45C343.084 274.485 343.17 274.514 343.142 274.499C343.114 274.494 343.056 274.42 342.3 274.281C342.204 274.265 342.096 274.249 341.973 274.236C341.911 274.229 341.845 274.223 341.776 274.217C341.737 274.215 341.715 274.213 341.658 274.209C341.588 274.205 341.515 274.202 341.436 274.2C340.819 274.196 339.874 274.201 338.503 274.772C337.153 275.296 335.444 276.8 334.757 278.482C334.029 280.159 334.102 281.523 334.211 282.347C334.265 282.752 334.371 283.157 334.414 283.299C334.454 283.435 334.493 283.554 334.531 283.66C334.606 283.872 334.675 284.031 334.733 284.158C334.85 284.411 334.927 284.538 334.969 284.608C332.975 281.081 332.346 278.864 331.365 276.178C329.825 271.746 328.532 267.442 326.917 263.874C326.466 262.87 325.756 260.7 325.641 259.654C325.469 258.043 324.774 255.669 324.102 253.249C322.526 247.561 321.121 241.863 320.029 235.999C320.013 235.878 319.995 235.755 319.979 235.635C319.388 232.034 318.572 228.765 318.489 224.725C318.485 224.649 318.48 224.571 318.477 224.495C318.267 221.776 318.629 222.343 318.627 220.318C318.838 219.059 319.001 217.329 319.334 214.899C319.473 213.881 319.67 212.764 319.971 211.542C319.6 212.864 319.382 213.986 319.229 214.888C318.969 216.364 318.83 217.194 318.695 217.254C318.73 216.458 318.786 215.64 318.864 214.849C319.482 207.753 323.382 201.312 327.788 197.025C329.013 195.78 330.93 194.139 331.519 193.911C333.117 193.269 336.538 190.808 339.55 189.335C339.575 189.326 339.593 189.321 339.615 189.313C340.785 188.684 341.976 188.094 343.175 187.529C343.241 187.496 343.315 187.46 343.379 187.428C347.268 185.224 351.452 183.901 355.586 182.879C355.614 182.871 355.643 182.863 355.67 182.855C358.547 181.686 361.821 180.765 365.301 179.958L365.168 194.095C364.185 193.832 363.198 193.561 362.209 193.286C359.321 192.484 356.189 191.762 353.196 190.947C351.814 190.572 349.585 189.983 349.411 189.743C349.015 189.121 345.362 188.212 343.013 187.367C342.997 187.364 342.985 187.361 342.969 187.358C342.432 187.163 341.835 186.941 341.304 186.745C339.78 186.504 337.664 185.944 334.956 185.03C328.757 182.923 322.631 180.618 316.609 177.348C316.631 177.354 316.655 177.361 316.678 177.368C316.639 177.349 316.601 177.33 316.563 177.311C316.562 177.313 316.561 177.315 316.56 177.316C313.273 175.283 309.95 173.524 305.89 170.16C304.919 169.33 303.944 168.399 302.999 167.284C296.186 158.188 299.441 149.345 301.646 143.186C302.203 141.792 302.934 140.052 303.52 138.66C308.79 126.429 316.196 116.353 323.625 106.411L332.418 117.307C331.092 117.905 329.774 118.489 328.448 119.069C324.37 120.853 320.437 122.566 316.359 124.153C302.718 129.38 288.219 133.671 272.447 133.806C270.864 133.806 269.263 133.673 267.606 133.346C258.128 131.768 251.847 122.986 249.658 116.321C247.16 109.33 246.465 102.678 246.159 96.1643C245.845 88.2761 246.266 80.6072 246.995 73.0243L259.372 79.1817C251.706 86.0149 243.65 92.5301 234.673 97.9842C230.303 100.605 225.977 102.753 220.804 104.754C215.909 106.57 211.493 107.465 205.957 107.404C205.65 107.398 205.343 107.385 205.035 107.363C200.504 106.847 196.64 104.764 193.458 102.438C182.549 93.84 178.258 83.6517 175.946 75.3359C175.456 73.4503 175.169 71.6965 175.278 70.9988C175.332 70.9938 175.397 71.0459 175.465 71.1191C175.348 70.2395 175.411 69.8325 175.24 68.6745C175.24 68.6054 175.244 68.5499 175.245 68.4879C175.23 68.4833 175.214 68.4755 175.194 68.4484C174.999 67.0831 175.083 66.5421 175.219 66.2769C175.23 66.3296 175.241 66.3827 175.252 66.4353C175.096 64.7811 175.29 64.4139 175.5 64.3236C175.775 62.7634 176.293 62.6656 176.89 63.3154C176.887 63.2177 176.882 63.1141 176.881 63.0196C177.171 63.7918 177.489 64.821 177.908 66.1682C177.967 66.229 178.048 66.3711 178.157 66.6042C178.312 67.0058 178.475 67.466 178.666 68.0205C178.714 68.1741 178.762 68.3292 178.811 68.4826C179.025 68.7707 179.5 70.4974 179.843 71.228C181.897 76.6519 184.839 81.816 188.511 86.5955C188.515 86.5932 188.517 86.5892 188.522 86.5874C188.563 86.6451 188.605 86.7027 188.646 86.7601C192.398 91.3618 197.018 95.581 202.019 97.4294C203.349 97.8183 204.699 98.022 205.957 97.9309C207.233 97.8571 208.599 97.6811 210.092 97.3889C213.527 96.778 216.966 95.4953 220.274 93.9037C224.356 91.8676 228.344 89.3524 232.116 86.6395C238.864 81.7818 245.495 76.1744 251.421 70.4227C254.727 67.376 259.145 69.602 258.777 74.0824C258.729 74.9429 258.689 75.787 258.658 76.6143C258.388 80.9799 258.238 85.3269 258.292 89.6558C258.302 89.7421 258.313 89.8348 258.324 89.9357C258.314 89.9357 258.305 89.9357 258.295 89.9357C258.294 89.9374 258.292 89.9392 258.29 89.9409C258.421 103.761 261.557 122.111 272.447 120.85C273.714 120.83 274.997 120.77 276.278 120.674C280.059 120.39 283.814 119.757 287.707 118.987C288.271 118.877 288.824 118.765 289.385 118.647C296.582 116.868 304.032 114.468 311.297 111.69C316.532 109.691 321.707 107.465 326.829 105.082C333.122 102.174 338.52 108.885 334.394 114.456C328.703 122.207 323.305 130.119 318.928 138.271C316.761 142.339 314.847 146.506 313.742 150.442C312.541 154.399 312.842 157.934 313.694 158.603C314.151 159.163 314.805 159.801 315.561 160.428C316.615 161.305 317.865 162.169 319.201 162.991C323.615 165.484 328.865 167.816 334.103 169.824C345.205 174.039 356.949 177.313 368.724 180.407C376.155 182.306 376.05 191.893 368.598 193.711C363.633 194.895 358.79 196.253 354.14 197.909C351.004 199.154 347.902 200.327 345.134 201.955C338.227 205.571 333.09 210.718 332.675 216.327C332.347 219.525 332.546 223.302 332.955 227.059C332.953 227.051 332.95 227.037 332.948 227.029C332.954 227.071 332.959 227.114 332.965 227.156C332.966 227.159 332.966 227.162 332.967 227.166C334.08 234.941 335.801 243.205 338.093 251.168C339.084 254.592 340.089 258.202 341.315 261.495C342.776 265.997 344.475 270.429 346.113 274.547C346.53 275.517 347.108 276.74 347.318 277.082C347.506 277.393 347.703 277.741 347.917 278.221C348.023 278.462 348.134 278.739 348.241 279.079C348.271 279.173 348.286 279.223 348.328 279.374C348.38 279.563 348.429 279.77 348.473 280.003C348.558 280.467 348.624 281.033 348.59 281.741C348.568 283.105 347.846 285.336 346.237 286.745C344.653 288.173 343.004 288.513 342.007 288.614C341.5 288.664 341.026 288.651 340.753 288.632C340.56 288.619 340.386 288.6 340.226 288.578C339.906 288.535 339.641 288.482 339.406 288.427C338.401 288.174 338.166 288.048 337.757 287.893C337.57 287.817 337.391 287.741 337.216 287.663C337.082 287.604 336.953 287.546 336.824 287.485C336.565 287.365 336.308 287.241 336.047 287.111C335.831 287.004 335.62 286.897 335.4 286.785C334.946 286.552 334.548 286.343 334.149 286.133C332.547 285.286 331.017 284.471 329.533 283.74C323.884 280.775 318.386 278.096 312.789 275.903C312.456 275.766 312.071 275.612 311.74 275.481C311.541 275.408 311.341 275.336 311.142 275.264C311.309 275.326 311.477 275.389 311.644 275.453C310.825 275.172 310.004 274.905 309.186 274.656C302.709 272.528 295.988 271.675 290.93 272.964C289.537 273.37 288.295 273.936 287.162 274.677C276.188 281.729 269.221 294.349 264.969 308.113C264.964 308.129 264.959 308.145 264.954 308.161C264.955 308.155 264.958 308.143 264.959 308.136C264.797 308.969 264.511 309.953 264.211 310.958C264.183 311.054 264.155 311.152 264.127 311.248C264.154 311.172 264.181 311.086 264.208 311.011C263.401 313.97 262.687 316.995 261.978 320.117C261.609 321.722 261.276 323.24 260.808 325.051C260.558 325.985 260.326 326.893 259.829 328.195C259.682 328.57 259.516 328.96 259.298 329.392C259.041 329.894 258.651 330.613 257.942 331.433C257.032 332.435 254.829 334.676 250.668 334.166C249.785 334.039 248.913 333.722 248.355 333.444C247.875 333.209 247.466 332.952 247.116 332.696C246.416 332.183 245.943 331.688 245.568 331.246C242.895 327.599 243.106 326.141 242.573 324.546C242.205 323.031 241.947 321.744 241.673 320.498C241.135 318.023 240.578 315.827 239.845 313.782C238.397 309.707 236.304 306.448 233.376 303.992C232.409 303.171 231.278 302.359 230.186 301.866C230.175 301.857 230.168 301.85 230.158 301.841C230.155 301.843 230.15 301.842 230.147 301.843C226.457 299.802 221.956 298.584 217.063 298.002C214.887 297.742 212.709 297.691 210.54 297.863C210.54 297.861 210.54 297.859 210.54 297.857C206.62 298.419 202.537 299.349 198.688 301.143C198.655 301.156 198.618 301.172 198.586 301.184C198.599 301.183 198.615 301.179 198.627 301.178C193.374 303.632 188.463 307.254 183.914 311.536C182.794 312.583 181.713 313.654 180.65 314.762C178.573 316.946 176.583 319.254 174.673 321.643C169.86 327.664 165.515 334.204 161.451 341.041C156.919 348.734 146.101 345.294 146.758 336.39C146.876 334.854 146.974 333.347 147.051 331.83C147.11 330.657 147.124 329.381 147.275 328.547C147.349 326.338 147.159 324.36 147.195 322.082C147.195 321.963 147.192 321.846 147.191 321.724C147.043 319.117 146.957 316.526 146.646 313.946C146.643 313.915 146.639 313.884 146.636 313.854C146.637 313.873 146.638 313.893 146.639 313.912ZM89.1607 267.972C89.2814 267.592 89.6375 266.77 89.6429 266.887C89.7345 267.207 89.7527 267.754 88.9745 270.089C88.9801 270.072 88.9858 270.054 88.9914 270.037C88.9411 270.08 88.8053 270.333 88.8343 270.224C89.1024 269.065 88.4372 270.281 89.1607 267.972ZM185.327 292.155C185.351 292.113 185.396 292.059 185.485 291.978C184.6 292.338 185.303 291.716 186.28 290.964C184.593 291.933 182.903 293.038 181.299 294.15C182.406 293.571 182.775 293.597 183.542 293.314C184.089 292.933 184.686 292.542 185.327 292.155ZM158.117 320.184C158.396 319.694 158.758 319.117 159.102 318.563C158.014 319.94 157.724 320.11 158.03 319.325C157.202 320.65 157.154 320.979 157.729 320.462C157.905 320.306 158.036 320.211 158.117 320.184ZM287.303 259.913C287.395 259.81 287.547 259.688 287.309 259.672C286.468 259.924 286.07 260.119 285.661 260.314C286.376 260.088 286.913 259.97 287.303 259.913ZM225.704 285.173C225.62 285.151 225.536 285.13 225.452 285.109C225.465 285.113 225.475 285.116 225.489 285.12C225.558 285.138 225.628 285.155 225.697 285.173C225.701 285.173 225.701 285.172 225.704 285.173ZM78.6434 283.483C78.8065 283.368 79.0589 283.22 79.3271 283.064C79.4487 283.005 79.5747 282.94 79.7061 282.874C79.1145 283.173 78.5503 283.424 78.1979 283.549C78.0042 283.62 77.8884 283.645 77.9151 283.635C77.9568 283.631 78.1518 283.539 78.8676 283.596C78.5522 283.587 78.2817 283.62 78.1365 283.655C78.0004 283.689 77.9323 283.724 77.9355 283.739C77.935 283.774 78.2016 283.718 78.4884 283.622C78.5368 283.578 78.5832 283.533 78.6434 283.483ZM84.6795 275.329C83.8589 277.882 82.9333 280.502 82.2713 283.014C82.85 281.033 83.5137 278.985 84.1732 276.905C84.6933 275.279 85.3723 273.167 85.6864 272.963C85.9897 272.774 85.5405 274.438 84.9491 276.334C84.8715 276.567 84.7943 276.808 84.7286 277.014C84.9942 276.52 85.2524 276.06 85.5314 275.54C85.2479 276.494 84.9533 277.473 84.6842 278.384C85.6484 275.976 86.2098 274.631 86.4961 274.129C86.2926 274.443 86.2317 274.209 86.3131 273.403C86.5527 271.089 85.7376 272.052 84.6795 275.329ZM339.676 190.253C338.301 190.89 336.993 191.507 335.523 192.404C335.047 192.783 334.486 193.222 333.852 193.721C333.13 194.211 332.613 194.622 332.164 195.009C334.313 193.305 336.613 191.967 338.928 190.77C339.174 190.597 339.424 190.424 339.676 190.253ZM142.34 276.435C141.873 276.092 141.396 275.76 140.902 275.437C140.708 275.318 140.105 275.033 139.893 274.951C139.145 274.633 138.384 274.33 137.592 274.041C138.301 274.338 139.061 274.652 139.879 274.988C140.09 275.07 140.689 275.353 140.881 275.471C141.357 275.775 141.843 276.095 142.34 276.435ZM57.7863 196.452C56.2146 197.699 55.0735 198.567 56.5282 198.13C56.742 198.065 56.907 198.026 57.0275 198.01C57.0181 197.965 57.0286 197.906 57.0486 197.842C57.1725 197.467 59.1534 195.981 57.7863 196.452ZM105.754 272.384C105.87 272.251 106.533 272.013 107.222 271.787C106.298 271.972 105.445 272.184 104.559 272.401C104.814 272.436 105.199 272.43 105.754 272.384ZM82.5922 286.62C82.5726 286.607 82.5536 286.595 82.5353 286.586C82.4762 286.61 82.4233 286.61 82.3781 286.586C82.2889 286.639 82.2321 286.883 82.2298 287.024C82.2209 287.085 82.2626 287.139 82.1625 286.796C82.0866 286.587 81.9939 286.285 81.5883 285.756C81.183 285.215 80.3701 284.599 79.5861 284.352C78.4882 284.031 78.2035 284.165 78.0969 284.126C78.1059 284.1 78.0833 284.07 78.306 284.032C78.4269 284.017 78.6209 283.993 79.0059 284.038C79.389 284.083 80.1698 284.254 80.9586 284.823C82.4555 285.992 82.4755 286.906 82.5459 286.963C82.5917 287.111 82.572 286.924 82.5933 286.626C82.5929 286.624 82.5925 286.622 82.5922 286.62ZM253.499 300.858C253.309 301.307 253.168 301.595 253.049 301.797C252.992 302.049 252.942 302.289 252.897 302.517C253.094 301.917 253.294 301.382 253.499 300.858ZM85.9971 169.844C86.3408 169.248 86.6694 168.657 87.0061 168.041C86.9453 168.145 86.8839 168.252 86.8219 168.356C86.5499 168.86 86.2794 169.351 85.9971 169.844ZM70.6121 213.324C70.7205 213.344 70.8703 213.378 71.0904 213.44C74.1762 214.536 77.3837 215.717 80.6597 217.139C81.3801 217.453 82.199 217.823 82.8949 218.166C83.0187 218.214 83.138 218.259 83.2674 218.31C83.8925 218.541 84.7043 218.911 85.4975 219.297C80.0371 216.419 74.9415 214.685 70.3624 213.199C70.4464 213.241 70.5271 213.282 70.6121 213.324ZM334.619 272.527C334.306 272.331 334.856 272.648 334.361 272.371C334.44 272.419 334.51 272.464 334.603 272.521C334.607 272.522 334.614 272.526 334.619 272.527ZM160.071 321.646C160.072 321.667 160.072 321.688 160.073 321.708C160.072 321.596 160.073 321.489 160.074 321.376C160.07 321.43 160.065 321.479 160.06 321.524C160.064 321.563 160.067 321.607 160.071 321.646ZM40.9552 202.459C42.2348 202.93 43.0378 203.165 40.2761 201.501C39.4853 201.018 39.0943 200.697 39.0972 200.581C40.6287 200.991 38.9123 199.79 36.7653 198.299C36.5689 198.164 36.3489 198.021 36.1196 197.873L35.2059 205.443C35.2826 205.423 35.36 205.402 35.4377 205.381C35.3606 205.398 35.2823 205.414 35.2024 205.432L36.1134 197.884C36.4696 198.139 36.8635 198.42 37.3261 198.745C36.891 198.493 36.4656 198.242 36.048 197.994L35.1652 205.309C37.6095 204.573 39.7463 203.816 41.7255 202.898C42.892 202.371 45.4533 201.289 46.5041 201.075C47.33 200.924 48.8871 200.257 50.7288 199.266C46.8073 201.584 42.4836 203.281 38.074 204.705C40.4865 204.321 43.1649 203.485 48.2534 200.827C50.1482 199.825 52.0462 198.769 53.9307 197.656C52.8536 198.235 51.7154 198.775 50.625 199.312C51.6307 198.469 52.1737 197.921 49.7289 198.839C48.1554 199.421 51.7882 197.422 52.0545 196.956C48.9168 198.612 46.0122 200.269 42.6693 201.524C42.3465 201.648 41.1754 202.275 41.0963 202.39C40.9655 202.693 40.2097 203.145 37.6267 204.026C36.7686 204.313 35.8733 204.611 35.0316 204.867L35.8132 198.391C37.2204 199.221 38.412 199.937 38.8933 200.492C38.21 200.253 36.2834 199.358 38.7123 200.813C40.6207 201.944 40.6318 202.116 40.9552 202.459ZM61.5185 210.381C63.0601 211.046 64.7221 211.66 65.7872 211.973C68.0786 212.641 70.6297 213.61 73.3173 214.671C72.8358 214.441 72.1618 214.163 71.4487 213.882C71.4348 213.876 71.4236 213.87 71.41 213.863C69.6572 213.277 67.8408 212.597 66.0204 211.856C65.8833 211.836 65.7759 211.831 65.7185 211.853C64.896 211.642 63.8786 211.296 62.591 210.78C61.7924 210.436 60.9578 210.078 60.114 209.72C60.0276 209.705 59.9454 209.691 59.835 209.661C60.3512 209.895 60.9217 210.14 61.5185 210.381ZM80.9493 110.959C80.8958 110.855 80.8392 110.749 80.7805 110.64C80.4545 110.032 80.2299 109.652 80.0762 109.261C80.0199 109.139 80.0215 109.027 80.0577 109.302C80.0704 109.438 80.0801 109.652 80.0286 109.958C79.9566 110.387 79.7072 110.969 79.3418 111.401C79.0916 111.702 78.8599 111.885 78.7081 112.002C78.5699 112.108 78.5002 112.159 78.4833 112.184C78.4582 112.219 78.6147 112.208 79.0569 111.898C79.4768 111.617 80.0621 110.906 80.2583 110.225C80.2847 110.144 80.3079 110.059 80.325 109.988C80.3382 109.936 80.3498 109.886 80.3599 109.837C80.38 109.739 80.394 109.648 80.4036 109.566C80.4227 109.4 80.4246 109.272 80.4248 109.186C80.4178 108.888 80.4713 109.094 80.613 109.338C80.7339 109.55 80.8786 109.778 81.0074 109.947C81.0852 110.086 81.1708 110.235 81.2639 110.392C81.4899 110.775 81.7123 111.144 81.9447 111.534C82.4883 112.407 82.9689 113.25 83.3843 114.214C82.9415 113.959 82.3545 113.459 80.9543 110.956C80.9526 110.957 80.951 110.958 80.9493 110.959ZM70.5175 184.323C70.4665 184.372 70.4182 184.418 70.367 184.466C72.6344 183.27 67.9071 187.458 66.0355 189.02C63.3429 191.394 59.6394 194.012 56.3583 196.186C59.4036 194.295 62.4078 192.249 65.3161 190.027C65.2229 189.948 65.8128 189.389 66.82 188.523C68.4456 187.12 69.6587 185.851 71.5146 184.186C73.4516 182.434 73.8414 181.748 74.4204 180.929C74.5564 180.759 74.6991 180.582 74.8403 180.406C73.6869 181.372 72.1806 182.819 70.5175 184.323ZM80.9133 218.441C81.0962 218.807 82.3259 219.488 84.8839 220.651C85.8674 221.107 86.954 221.715 88.0081 222.435C87.956 222.385 87.8986 222.332 87.8491 222.285C83.5692 219.745 83.2053 219.592 82.8941 219.045C82.4512 218.826 82.0607 218.625 81.6408 218.408C81.4293 218.286 81.2386 218.175 81.0535 218.069C81.0391 218.063 81.0246 218.057 81.0102 218.051C81.4182 218.38 80.8575 218.282 80.9133 218.441ZM86.2368 267.159C86.2006 267.761 86.0866 268.529 85.8351 269.618C86.5368 267.415 87.2339 265.198 87.8871 262.989C87.1535 265.321 86.7588 266.256 86.2368 267.159ZM91.0775 250.451C90.5157 252.414 90.2051 253.987 89.8976 255.545C90.3332 253.832 90.7285 252.122 91.0775 250.451ZM63.2104 211.528C62.4048 211.162 61.6092 210.823 60.6607 210.436C61.6614 210.86 62.4703 211.205 63.2104 211.528ZM87.8527 226.644C88.5034 227.099 88.3155 226.582 89.0737 227.241C89.5234 227.7 88.9799 226.55 87.6932 225.415C87.1524 224.936 86.5975 224.525 86.0356 224.138C82.7502 221.991 81.3356 221.35 81.993 221.26C81.8257 221.137 81.6261 220.998 81.4552 220.87C81.1994 220.609 81.9734 220.858 82.2377 220.86C82.3627 220.869 82.4853 220.878 82.6584 220.918C83.1577 221.061 83.7396 221.259 83.9959 221.285C83.9204 221.186 83.5314 220.968 83.1289 220.76C81.4753 219.932 79.964 219.333 78.4 218.742C73.057 216.559 69.146 214.734 66.7273 213.333C66.4825 213.192 66.2411 213.055 65.9974 212.921C66.2734 213.133 66.2948 213.275 66.0726 213.359C65.58 213.576 65.8018 214.123 62.4682 213.134C60.2432 212.458 61.7685 213.479 62.661 214.133C63.2539 214.567 65.0028 215.188 66.2059 215.55C67.4565 215.932 68.1005 215.998 69.7522 216.574C72.4034 217.423 74.7755 218.404 76.9264 219.514C79.3163 220.77 79.3744 221.041 76.7755 220.169C76.2832 220.007 75.8649 219.885 75.4703 219.774C76.9836 220.308 78.5625 220.909 80.3091 221.742C80.3725 221.769 80.4363 221.797 80.4992 221.824C79.8558 221.278 80.1416 220.892 84.7958 223.575C84.5537 223.572 84.3286 223.585 84.1033 223.598C85.8251 224.582 86.5721 225.321 87.6247 226.392C87.704 226.476 87.7779 226.559 87.8527 226.644ZM74.4523 179.621C74.0002 180.189 73.2721 180.95 72.5619 181.668C72.7068 181.655 72.5857 181.923 73.1568 181.46C73.1594 181.463 73.162 181.465 73.1646 181.468C73.1661 181.467 73.1676 181.466 73.169 181.464C73.1714 181.462 73.1739 181.459 73.1763 181.456C74.5236 180.072 75.5253 179.202 76.5587 178.223C76.6979 178.042 76.8361 177.859 76.9715 177.679C77.7996 176.255 75.5781 178.704 74.4523 179.621ZM79.4817 286.862C79.4965 286.867 79.5115 286.888 79.527 286.906C79.5187 286.808 79.5122 286.701 79.508 286.586C79.502 286.554 79.4997 286.47 79.5072 286.348C79.492 286.468 79.4858 286.553 79.483 286.586C79.4811 286.684 79.4807 286.776 79.4817 286.862ZM73.1763 181.456C73.1723 181.46 73.1686 181.464 73.1646 181.468C73.1767 181.454 73.1887 181.439 73.2008 181.425C73.1953 181.433 73.1823 181.447 73.1763 181.456ZM91.3881 243.576C91.7231 242.109 92.0301 240.351 92.2387 238.594C91.9917 240.273 91.722 241.909 91.3881 243.576ZM92.3931 236.956C92.3812 237.152 92.3668 237.353 92.3512 237.553C92.361 237.451 92.3722 237.348 92.3812 237.248C92.3848 237.151 92.3884 237.054 92.3931 236.956ZM64.3063 188.683C63.561 189.343 62.5942 190.108 61.7006 190.806C63.0095 189.888 63.8489 189.166 64.5692 188.494C64.4815 188.557 64.3943 188.619 64.3063 188.683ZM92.6009 234.318C92.5054 235.109 92.4573 235.834 92.4214 236.466C92.4614 235.835 92.5294 235.095 92.6009 234.318ZM89.8358 249.418C89.7114 250.416 89.3723 251.808 88.839 253.458C88.8043 253.564 88.7697 253.672 88.7353 253.778C88.8639 253.407 88.9981 253.029 89.1366 252.66C89.7768 250.942 90.3259 248.448 90.8518 246.005C90.8458 246.03 90.8398 246.056 90.8337 246.08C90.4737 247.513 90.1337 248.801 89.8358 249.418ZM46.2502 207.206C48.8322 208.381 48.4215 207.86 48.3705 207.616C48.3127 207.374 47.4841 206.758 45.5078 205.695C44.1463 204.961 42.5886 204.158 41.5268 203.442C40.6651 202.796 40.294 202.385 40.5744 202.316C40.6047 202.327 40.6346 202.338 40.6647 202.35C38.7433 201.125 37.0131 200.178 35.2962 199.266L34.7375 203.895C36.6655 203.216 38.4768 202.443 40.4332 201.639C45.2642 199.43 45.3054 199.307 41.3902 200.495C39.6029 201.003 38.99 200.955 38.2359 200.981C38.1895 200.999 38.1444 201.018 38.0977 201.036C37.1944 201.359 36.4765 201.681 35.62 201.976C35.1716 202.109 34.7236 202.241 34.2763 202.371L34.4856 200.636C34.6088 200.711 34.7319 200.786 34.8549 200.86C35.6828 201.189 36.0489 201.238 34.7234 200.234L34.4116 202.818C34.4296 202.814 34.4479 202.811 34.4664 202.808C35.6284 202.588 35.5026 202.733 34.4945 203.092L34.8692 199.988C35.2346 200.182 35.7129 200.451 36.2783 200.776C39.3734 202.566 42.5083 204.398 45.0646 205.845C47.2624 207.084 46.2118 206.827 44.6379 206.243C45.2718 206.606 45.8907 206.955 46.2502 207.206ZM81.1395 114.149C81.5686 114.915 81.9945 115.666 82.4337 116.421C81.9828 115.602 81.5573 114.848 81.1395 114.149ZM65.7916 186.829C65.5027 187.106 65.1959 187.39 64.8197 187.706C64.8611 187.678 64.906 187.646 64.9471 187.617C65.3039 187.428 65.4853 187.38 65.4456 187.514C65.4305 187.537 65.4052 187.567 65.3869 187.592C65.6289 187.419 65.8707 187.244 66.1098 187.068C66.2153 186.974 66.3301 186.875 66.4544 186.768C66.0553 186.937 65.8737 186.924 65.7916 186.829ZM85.4332 114.53C84.4875 114.223 83.3117 113.762 82.1165 113.304C82.6035 113.622 82.9317 113.872 83.2618 114.149C83.6961 114.52 84.2596 114.903 84.797 115.239C84.0692 114.72 83.6692 114.349 83.7893 114.243C84.0507 114.063 85.1208 114.465 87.6662 116.011C87.1218 115.578 86.2995 115.044 85.4312 114.503C85.4321 114.512 85.4371 114.524 85.4332 114.53ZM219.743 288.446C220.019 288.481 220.294 288.516 220.565 288.553C220.344 288.51 220.119 288.468 219.906 288.426C219.848 288.432 219.803 288.441 219.743 288.446ZM90.2562 228.008C90.2954 228.033 90.3462 228.073 90.4126 228.14C90.8034 228.505 91.8542 230.167 91.9383 232.402C91.9941 233.297 91.9983 234.313 91.9564 235.275C92.0248 234.324 92.0475 233.341 92.0113 232.402C91.9791 230.43 91.1361 228.392 89.836 226.997C90.1635 227.498 90.2679 227.829 90.2543 227.994C90.254 227.998 90.2563 228.005 90.2562 228.008ZM92.3603 281.108C92.3634 281.099 92.3693 281.088 92.3767 281.078C92.3264 281.101 92.276 281.124 92.2257 281.147C92.2757 281.131 92.3154 281.121 92.3603 281.108ZM78.6633 174.053C78.2201 174.627 77.7773 175.182 77.3146 175.739C77.8295 175.143 78.3277 174.547 78.8025 173.942C79.1002 173.602 79.3865 173.266 79.6741 172.918C79.3737 173.224 79.038 173.61 78.6633 174.053ZM83.0157 167.708C82.9046 167.91 82.7882 168.112 82.6692 168.312C82.6774 168.301 82.6832 168.295 82.6911 168.285C82.8638 168.005 83.0343 167.725 83.2033 167.446C83.1476 167.521 83.0934 167.592 83.0411 167.657C83.0317 167.675 83.0253 167.69 83.0157 167.708ZM87.1483 127.79C87.4246 128.265 87.7506 128.905 88.1096 129.742C88.2876 130.246 88.4523 130.72 88.6026 131.154C88.9899 131.837 89.4322 132.993 89.7993 134.336C89.8624 134.466 89.9237 134.582 89.9836 134.683C89.8132 134.106 89.6203 133.532 89.4281 132.954C88.9723 131.569 88.3817 130.066 88.201 129.206C88.1763 129.093 88.165 129.017 88.1644 128.971C87.4377 127.545 87.2496 127.591 87.1483 127.79ZM54.63 194.142C54.2856 194.356 53.9368 194.569 53.5753 194.781C53.5659 194.786 53.5555 194.791 53.546 194.796C53.9223 194.614 54.3433 194.393 54.8056 194.135C54.755 194.132 54.7011 194.132 54.63 194.142ZM86.2998 160.451C85.8876 161.351 85.5114 162.268 85.059 163.241C85.0323 163.299 85.0055 163.356 84.9785 163.414C84.6081 164.21 84.192 165.056 83.7693 165.811C83.7199 165.95 83.6781 166.077 83.6407 166.197C84.1744 165.339 84.6853 164.439 85.1471 163.495C85.4219 162.933 85.6828 162.365 85.927 161.788C85.9615 161.534 85.9647 161.346 86.2236 160.656C86.248 160.589 86.2742 160.52 86.2998 160.451ZM84.3361 285.893C84.966 285.543 85.5182 285.227 86.0993 284.869C85.4827 285.231 84.9499 285.544 84.3361 285.893ZM96.9372 120.696C94.0781 119.162 91.0544 117.348 88.2646 115.548C88.2534 115.558 88.2387 115.568 88.1923 115.561C87.8375 115.487 86.9959 115.018 85.9667 114.408C85.5096 114.133 83.5272 112.726 84.7891 113.825C84.805 113.839 84.8199 113.853 84.8358 113.868C85.7023 114.388 86.7305 115.064 87.5884 115.589C89.0238 116.465 90.7018 117.298 91.7543 118.192C92.5161 118.84 91.3315 118.215 90.5072 117.83C92.4154 119.123 94.1933 120.193 95.8418 120.996C95.6998 120.901 95.5741 120.814 95.4838 120.741C94.8063 120.179 95.6502 120.267 96.9372 120.696ZM107.114 276.954C107.957 276.748 108.853 276.568 109.744 276.418C109.101 276.489 108.479 276.568 108.027 276.594C107.677 276.721 107.248 276.84 106.753 276.96C106.862 276.954 106.975 276.948 107.078 276.944C107.087 276.948 107.103 276.95 107.114 276.954ZM93.7934 281.576C94.5672 281.144 95.1419 280.802 95.7204 280.467C95.562 280.518 95.4066 280.565 95.2575 280.606C94.9388 280.847 94.2041 281.264 93.7934 281.576ZM79.4706 114.917C80.0031 115.785 80.5385 116.645 81.105 117.609C80.808 116.906 80.6361 116.407 80.723 116.345C80.4006 116.054 79.9404 115.498 79.4706 114.917ZM175.219 66.2769C175.211 66.2386 175.203 66.2006 175.195 66.1624C175.204 66.1984 175.213 66.2345 175.222 66.2706C175.221 66.2726 175.22 66.2748 175.219 66.2769ZM83.5668 263.282C83.4314 263.909 83.2993 264.537 83.0557 265.332C82.9927 265.494 82.9301 265.667 82.864 265.857C82.9238 265.695 82.981 265.543 83.0394 265.384C83.0304 265.414 83.0206 265.446 83.0116 265.477C83.5443 264.099 84.0648 262.737 84.174 263.17C84.2963 262.352 84.5146 261.235 84.0584 262.086C83.8859 262.48 83.7219 262.881 83.5668 263.282ZM77.1931 283.894C77.4854 283.167 77.7397 282.721 78.0321 282.117C77.9727 282.098 77.9635 281.912 78.061 281.391C77.7575 282.153 77.4624 282.941 77.1931 283.894ZM107.955 277.542C108.256 277.477 108.549 277.422 108.829 277.377C108.756 277.354 108.642 277.339 108.56 277.318C108.339 277.36 108.134 277.395 107.937 277.425C107.946 277.463 107.96 277.5 107.955 277.542ZM156.277 123.062C153.751 127.397 157.776 121.832 158.444 120.728C158.453 120.712 158.462 120.696 158.471 120.681C157.254 122.789 156.077 124.473 155.304 125.722C154.069 127.242 152.721 128.602 151.188 129.845C149.177 130.217 150.847 130.372 156.277 123.062ZM216.873 290.157C217.182 290.158 217.515 290.168 217.864 290.185C217.511 290.131 217.155 290.081 216.801 290.036C216.875 290.08 216.882 290.119 216.873 290.157ZM89.6157 230.128C89.6974 230.244 89.7348 230.202 89.8047 230.278C89.7371 230.109 89.661 229.937 89.5805 229.775C89.5805 229.86 89.5767 229.932 89.6157 230.128ZM145.359 287.12C145.349 287.107 145.344 287.098 145.334 287.084C145.342 287.096 145.347 287.105 145.355 287.117C145.356 287.118 145.357 287.119 145.359 287.12ZM161.371 114.272C162.109 112.3 162.497 111.555 162.931 110.636C162.936 110.619 162.941 110.601 162.947 110.584C162.02 114.264 160.637 117.185 159.014 119.709C159.729 118.092 160.841 116.029 161.371 114.272ZM88.3643 114.527C87.5838 114.106 86.6492 113.576 85.8672 113.16C86.8839 113.763 87.9284 114.387 88.3643 114.527ZM56.6714 214.119C56.2199 213.838 55.8932 213.599 55.878 213.474C55.8944 213.481 55.9108 213.489 55.9272 213.496C56.4748 213.706 57.0237 213.914 57.5527 214.112C57.6456 214.109 57.8385 214.151 58.2122 214.272C58.528 214.372 58.8993 214.511 59.2969 214.665C58.5573 213.994 54.7899 212.75 53.4585 211.918C53.6307 211.91 53.9847 211.999 54.3996 212.121C52.8799 211.551 51.803 211.275 50.2055 210.608C49.2866 210.22 48.348 209.787 47.5225 209.365C47.6062 209.461 47.5818 209.507 47.4552 209.504C47.2719 209.541 47.4471 209.752 47.2677 209.791C50.4187 211.219 53.5368 212.676 56.6714 214.119ZM80.3708 269.49C80.3789 269.466 80.3869 269.442 80.3949 269.417C80.3932 269.421 80.3917 269.424 80.39 269.427C80.3837 269.448 80.3771 269.469 80.3708 269.49ZM122.666 131.195C121.852 130.998 121.051 130.789 120.152 130.503C120.69 130.743 121.406 131.009 122.053 131.254C122.092 131.169 122.311 131.157 122.666 131.195ZM64.3542 218.394C64.4358 218.384 64.6035 218.413 64.7706 218.441C66.3962 218.846 68.1208 219.445 69.9195 220.202C69.2947 219.804 69.2957 219.632 69.4491 219.512C69.0279 219.473 68.3967 219.349 67.7009 219.201C66.6786 218.988 64.8924 218.402 64.1071 218.296C64.1897 218.329 64.272 218.361 64.3542 218.394ZM70.2349 178.171C70.1493 178.288 70.0781 178.398 70.0302 178.494C70.1562 178.364 70.2788 178.238 70.3973 178.117C70.3325 178.146 70.2768 178.166 70.2349 178.171ZM139.034 283.402C138.988 283.364 138.944 283.328 138.898 283.291C138.883 283.285 138.87 283.28 138.854 283.272C138.914 283.315 138.974 283.359 139.034 283.402ZM160.879 110.585C160.877 109.905 161.402 108.44 161.749 107.129C162.034 106.142 162.343 104.821 162.414 105.28C162.489 105.687 162.246 106.912 161.886 108.28C161.888 108.281 161.89 108.281 161.892 108.282C161.501 109.466 160.895 111.269 160.879 110.585ZM164.083 73.2853C164.071 72.6625 164.057 72.0553 164.051 71.5167C164.047 71.5168 164.044 71.517 164.04 71.5171C164.03 68.7132 163.951 65.8778 164.01 63C164.01 63 164.01 63 164.01 63C164.044 62.9999 164.079 63.1102 164.12 63.1103C164.156 68.7432 164.422 74.1718 164.367 79.6167C164.12 77.7133 164.183 75.3557 164.083 73.2853ZM38.5714 207.192C39.2637 207.518 39.9294 207.866 40.5895 208.228C39.2276 207.279 38.6513 206.667 37.573 205.822C37.5576 205.804 37.5382 205.783 37.5228 205.765C37.251 205.598 37.0133 205.44 36.7893 205.283C37.5356 206.004 38.0045 206.575 38.5714 207.192ZM81.8667 160.833C81.7379 161.125 81.6012 161.423 81.458 161.726C80.6044 163.54 79.4685 165.362 78.5206 166.968C78.3118 167.449 78.3153 167.6 78.4711 167.506C78.9167 166.987 79.4876 166.192 80.1261 165.13C80.2301 164.834 80.2658 164.608 80.4114 164.26C80.6554 163.594 81.0739 162.691 81.4809 161.737C81.6105 161.436 81.7403 161.133 81.8667 160.833ZM84.1347 252.728C84.1825 252.639 84.2239 252.579 84.2568 252.561C84.2574 252.561 84.257 252.566 84.2576 252.566C84.3564 252.163 84.4535 251.767 84.5477 251.386C84.4239 251.773 84.3002 252.149 84.1898 252.453C84.177 252.531 84.1586 252.622 84.1347 252.728ZM160.664 108.897C161.876 104.247 162.617 99.381 163.29 94.5851C163.514 92.9724 163.585 91.4394 163.615 89.9081C164.244 89.3461 163.761 94.035 163.47 95.7007C162.848 99.6314 162.435 102.796 161.797 106.196C161.178 108.653 161.116 107.695 160.664 108.897ZM93.4369 115C93.2532 114.919 93.0302 114.81 92.9032 114.77C93.1338 114.885 93.3529 114.99 93.5553 115.085C93.5157 115.057 93.4746 115.029 93.4369 115ZM83.8753 153.631C83.6798 154.532 83.3758 155.628 82.7778 157.177C82.5714 157.747 82.3187 158.365 82.0654 158.98C82.7067 157.796 82.9752 157.506 82.7588 158.49C82.6849 158.732 82.5974 158.988 82.5052 159.244C82.5549 159.114 82.6069 158.979 82.6523 158.853C83.1599 157.16 83.7949 155.08 84.1725 153.296C84.2399 153.055 84.2994 152.822 84.3557 152.596C84.2003 152.886 84.0377 153.246 83.8753 153.631ZM134.956 132.21C134.54 132.238 134.097 132.253 133.626 132.252C134.146 132.287 134.66 132.303 135.168 132.302C135.014 132.269 134.947 132.239 134.956 132.21ZM71.3885 174.032C70.1057 175.771 67.988 177.863 66.3902 179.432C67.6685 178.344 69.4419 176.211 70.8353 175.211C70.934 175.096 71.0413 174.975 71.1566 174.848C71.0818 174.901 71.0061 174.952 70.9378 174.992C71.0642 174.695 71.1769 174.407 71.3885 174.032ZM84.3168 148.745C84.3327 149.245 84.3303 149.783 84.2716 150.447C84.2548 150.672 84.2396 150.889 84.2218 151.109C84.3532 151.154 84.4619 151.333 84.789 150.485C84.8255 150.26 84.8605 150.034 84.8908 149.817C84.8885 148.838 85.0064 147.19 84.8625 146.379C84.7824 146.931 84.6597 147.556 84.5067 148.169C84.4445 148.358 84.3809 148.552 84.3168 148.745ZM71.3059 223.562C72.2962 224.138 74.2962 224.975 75.9558 225.519C76.6856 225.757 77.4134 226.037 78.189 226.367C78.2399 225.771 79.0859 225.722 83.4539 228.203C83.6122 228.303 83.7539 228.394 83.8801 228.475C80.3913 226.032 77.0934 225.287 73.5741 224.086C73.1641 224.077 70.0051 222.802 71.3059 223.562ZM47.3774 213.118C46.9223 212.805 46.6003 212.542 46.5541 212.391C46.1553 212.254 45.8398 212.152 45.549 212.06C46.1528 212.414 46.746 212.76 47.3774 213.118ZM74.2184 170.322C74.4631 170.08 74.7059 169.822 74.9467 169.553C74.9673 169.519 74.987 169.485 75.0079 169.451C74.7461 169.739 74.4835 170.026 74.2184 170.322ZM74.1706 170.375C73.4279 171.206 72.7083 172.043 72.1922 172.838C72.6372 172.244 73.2754 171.466 74.1706 170.375ZM80.1827 294.283C79.7288 294.312 79.7778 294.224 79.7322 294.163C79.7088 294.131 79.6612 294.105 79.5109 294.092C79.36 294.076 79.1186 294.09 78.5376 294.071C77.5965 294.115 77.0383 293.981 76.9184 293.991C76.7894 293.991 77.1761 294.133 77.5812 294.216C78.0058 294.308 78.5451 294.35 78.968 294.349C79.3969 294.349 79.6176 294.339 79.6893 294.361C79.743 294.357 79.8037 294.351 79.858 294.346C79.9647 294.326 80.072 294.306 80.1827 294.283ZM39.1796 195.028C38.2988 195.266 37.415 195.504 36.2355 195.971C36.2683 195.966 36.3064 195.958 36.3337 195.955C36.4889 195.94 36.456 195.989 36.31 196.073C36.8927 195.902 37.3234 195.795 37.6273 195.748C37.9565 195.545 38.4762 195.31 39.1796 195.028ZM76.7475 165.498C76.7629 165.482 76.772 165.477 76.7853 165.464C76.7804 165.461 76.7755 165.457 76.7706 165.454C76.7626 165.469 76.7556 165.483 76.7475 165.498ZM199.167 297.603C199.162 297.605 199.158 297.607 199.153 297.609C199.156 297.608 199.16 297.607 199.163 297.606C199.164 297.605 199.165 297.604 199.167 297.603ZM76.7849 165.428C77.0325 165.03 77.2786 164.624 77.5163 164.217C77.3911 164.4 77.2651 164.581 77.1384 164.758C77.0224 164.982 76.9035 165.206 76.7849 165.428ZM234.075 301.414C234.446 301.675 234.798 301.949 235.141 302.247C234.797 301.855 234.49 301.519 234.686 301.525C234.701 301.53 234.716 301.536 234.73 301.541C234.638 301.459 234.545 301.377 234.45 301.295C233.858 301.078 232.524 300.185 231.272 299.587C230.971 299.434 230.663 299.273 230.384 299.127C230.378 299.13 230.371 299.133 230.365 299.135C230.58 299.25 230.809 299.371 231.05 299.496C231.696 299.856 232.307 300.229 232.868 300.625C233.282 300.878 233.671 301.13 234.075 301.414ZM41.0214 211.238C41.8803 211.641 42.7134 211.999 43.5458 212.321C43.9234 212.467 44.3587 212.655 44.8219 212.864C44.4296 212.637 44.089 212.429 43.8468 212.26C42.9754 211.979 42.0966 211.681 41.0214 211.238ZM43.3534 192.261C44.951 191.598 46.7962 190.643 48.4048 189.827C48.9445 189.6 49.4199 189.403 49.843 189.233C50.1868 189.035 50.5326 188.834 50.8809 188.628C50.6097 188.657 50.8282 188.438 51.2591 188.104C48.6889 189.688 46.0426 191.095 43.3534 192.261ZM64.9636 177.285C65.3887 177.06 65.7283 176.915 64.9966 177.717C63.9685 178.833 62.8973 179.435 61.7488 180.34C61.8048 180.292 61.8577 180.245 61.9106 180.199C61.8555 180.244 61.7998 180.29 61.7449 180.335C61.7462 180.337 61.7475 180.338 61.7488 180.34C58.7757 182.639 57.5374 183.71 57.5047 184.214C57.4954 184.223 57.4833 184.233 57.474 184.242C57.4855 184.235 57.4969 184.227 57.5083 184.219C57.5081 184.217 57.5046 184.217 57.5047 184.214C59.5875 182.87 61.6265 181.273 63.5908 179.611C63.6023 179.603 63.6138 179.596 63.6253 179.588C64.0119 179.252 64.396 178.906 64.8123 178.53C65.024 178.32 65.2354 178.108 65.446 177.895C68.3335 175.01 71.4336 171.884 73.9583 168.552C73.4406 168.977 72.8023 169.596 71.762 170.886C69.1331 174.102 66.9631 175.852 64.9636 177.285ZM84.5673 231.442C84.565 231.354 84.555 231.259 84.5429 231.166C84.5173 231.224 84.5336 231.32 84.5673 231.442ZM170.797 322.432C170.748 322.458 170.704 322.47 170.674 322.456C170.638 322.428 170.659 322.315 170.402 322.593C169.69 323.507 169.429 324.018 169.097 324.596C169.667 323.873 170.228 323.172 170.797 322.432ZM68.3919 223.422C69.6224 224.098 70.8786 224.641 72.9927 225.43C72.955 225.413 72.9146 225.395 72.8769 225.378C72.1848 225.01 71.4185 224.647 70.5627 224.267C69.8276 223.98 69.1363 223.711 68.3919 223.422ZM87.8716 292.965C89.0739 292.358 90.1586 291.749 91.2584 291.142C90.1962 291.642 89.2821 292.052 89.5261 291.701C89.8538 291.215 91.8375 290.171 93.4781 289.312C94.8484 288.594 96.3512 287.89 97.3657 287.303C96.4195 287.686 95.423 288.117 94.4745 288.544C94.4673 288.548 94.4547 288.555 94.4476 288.559C93.8315 288.836 93.221 289.113 92.5944 289.41C92.5751 289.422 92.5549 289.433 92.5353 289.445C91.6958 290.109 89.8627 291.144 88.3712 292.084C88.9096 292.022 89.0077 292.181 87.8716 292.965ZM149.111 333.768C149.083 334.356 149.051 334.936 149.01 335.529C149.055 335.148 149.098 334.696 149.139 334.252C149.127 334.103 149.117 333.948 149.111 333.768ZM149.272 325.589C149.282 327.048 149.278 328.525 149.245 329.973C149.314 329.399 149.346 328.575 149.383 327.827C149.355 327.68 149.329 327.503 149.311 327.232C149.309 326.675 149.294 326.132 149.272 325.589ZM146.415 303.636C146.414 303.503 146.422 303.403 146.455 303.394C146.891 304.208 147.314 305.595 147.667 307.119C147.533 306.428 147.418 305.796 147.352 305.216C147.27 305.183 147.12 304.837 146.902 304.258C146.548 303.315 146.28 302.811 146.319 303.442C146.351 303.504 146.384 303.574 146.415 303.636ZM142.933 294.473C142.893 294.407 142.854 294.34 142.814 294.274C142.81 294.29 142.801 294.297 142.791 294.303C142.838 294.36 142.887 294.419 142.933 294.473ZM81.4608 230.104C81.4927 230.054 81.5384 230.013 81.6159 229.992C81.5828 229.97 81.5535 229.949 81.5228 229.929C81.519 229.996 81.4944 230.051 81.4608 230.104ZM82.6198 142.715C82.6176 142.73 82.6154 142.746 82.6131 142.762C82.7946 141.41 82.5906 139.572 82.4074 138.109C83.0948 139.146 83.1343 142.345 83.0774 144.299C82.6793 144.597 82.4428 146.243 81.773 148.955C81.1812 151.335 80.3066 153.754 79.276 156.174C79.0881 156.63 78.7173 157.482 78.8306 156.974C78.8724 156.763 79.1814 156.035 79.3683 155.507C81.2005 151.158 82.4623 146.805 82.6198 142.715ZM113.725 283.677C114.387 283.504 114.747 283.362 114.607 283.237C114.502 283.259 114.376 283.278 114.229 283.295C114.523 283.39 114.204 283.523 113.725 283.677ZM64.1292 177.484C64.0174 177.611 63.934 177.72 63.8699 177.822C63.8777 177.814 63.884 177.808 63.8919 177.801C63.934 177.725 64.009 177.624 64.1292 177.484ZM74.1716 269.047C74.4031 268.818 74.3739 269.353 74.2996 270.025C74.8717 268.479 75.4899 266.963 75.7562 265.496C75.1119 267.332 74.7206 267.767 74.1716 269.047ZM139.655 291.122C139.963 291.41 140.29 291.745 140.627 292.138C140.541 291.991 140.482 291.882 140.449 291.805C140.192 291.575 139.929 291.352 139.655 291.122ZM333.378 169.74C333.252 169.691 333.128 169.641 333.003 169.592C333.066 169.624 333.126 169.655 333.19 169.687C333.27 169.712 333.354 169.738 333.431 169.761C333.443 169.765 333.454 169.77 333.466 169.774C333.439 169.76 333.407 169.744 333.382 169.729C333.38 169.733 333.379 169.736 333.378 169.74ZM49.9901 217.861C48.6396 217.365 47.0755 216.9 46.0259 216.011C46.0097 216.001 45.9934 215.991 45.9772 215.981C48.606 217.159 45.6624 215.46 47.5657 216.259C49.384 216.982 51.2623 217.797 52.2877 218.486C53.3091 219.166 51.1075 218.268 49.9901 217.861ZM332.919 226.914C332.924 226.937 332.928 226.963 332.932 226.985C332.933 226.982 332.933 226.977 332.934 226.974C332.929 226.955 332.924 226.934 332.919 226.914ZM74.9055 227.859C72.4175 227.002 70.4576 226.027 68.4891 225.306C70.4396 225.903 72.4222 226.587 74.9055 227.859ZM143.233 297.846C143.172 297.787 143.202 297.86 143.303 298.01C143.279 297.955 143.257 297.901 143.233 297.846ZM210.819 297.753C210.786 297.752 210.754 297.751 210.726 297.75C210.67 297.756 210.616 297.764 210.559 297.771C210.579 297.77 210.594 297.771 210.612 297.77C210.681 297.765 210.75 297.759 210.819 297.753ZM198.627 301.178C198.648 301.168 198.67 301.158 198.69 301.148C198.676 301.157 198.661 301.166 198.647 301.175C198.641 301.176 198.634 301.177 198.627 301.178ZM145.614 307.152C145.537 306.785 145.459 306.431 145.374 306.057C145.439 306.354 145.5 306.636 145.56 306.92C145.578 306.997 145.596 307.074 145.614 307.152ZM146.639 313.912C146.643 313.94 146.647 313.968 146.651 313.995C146.651 314.03 146.651 314.064 146.651 314.099C146.648 314.038 146.643 313.973 146.639 313.912Z" fill="#EF5DA8"/>
</svg>
