<svg width="400" height="400" viewBox="0 0 400 400" fill="none" xmlns="http://www.w3.org/2000/svg">
<path d="M119.935 314.531C120.266 313.915 120.466 313.428 120.645 312.971C120.951 312.196 121.2 311.493 121.926 310.353C121.918 310.367 121.911 310.382 121.904 310.396C121.784 310.977 121.293 312.064 120.836 313.072C120.626 313.537 120.429 313.984 120.286 314.357C119.595 315.758 119.731 316.127 118.854 317.784C117.776 318.743 117.745 318.625 119.935 314.531ZM201.423 264.288C199.545 266.13 197.454 268.234 195.508 270.416C192.125 274.204 188.84 278.299 185.583 282.481C183.898 284.632 182.453 286.58 180.414 289.076C180.345 289.159 180.277 289.24 180.208 289.321C180.144 289.395 180.188 289.344 180.177 289.355C180.177 289.355 180.177 289.355 180.176 289.355C180.176 289.354 180.175 289.353 180.174 289.353C180.173 289.352 180.172 289.351 180.171 289.35C180.168 289.347 180.166 289.345 180.163 289.343C179.155 290.563 175.974 294.091 174.966 295.31C174.218 296.155 173.952 296.324 173.659 296.506C173.649 296.516 173.639 296.525 173.629 296.535C172.003 298.604 170.465 300.518 168.765 301.763C167.815 302.457 166.99 303.526 166.756 304.045C166.395 304.778 165.514 305.845 164.287 307.128C154.637 317.146 145.109 327.417 133.639 336.363C133.616 336.38 133.593 336.397 133.57 336.413C133.58 336.407 133.59 336.401 133.6 336.394C128.519 340.044 124.89 344.175 115.154 346.359C113.617 346.559 112.073 346.695 110.199 346.615C108.116 346.489 105.414 346.228 102.457 344.257C102.051 343.976 101.661 343.672 101.265 343.318C99.0007 341.422 97.6791 338.501 97.3033 336.335C96.8885 334.115 97.0123 332.379 97.1983 330.843C97.6094 327.831 98.3908 325.502 99.1864 323.294C99.2897 323.001 99.3977 322.706 99.5065 322.411C101.826 316.326 104.582 311.143 107.329 305.952C109.605 301.678 111.844 297.107 114.017 292.56C113.878 293.302 113.28 294.633 112.683 295.815C110.928 299.283 109.25 302.73 107.532 306.059C106.406 308.232 105.296 310.431 104.205 312.675C103.78 314.099 102.737 316.02 101.908 317.902C100.802 320.379 100.166 322.502 99.207 325.354C99.1551 325.496 99.0992 325.657 99.0467 325.809C98.9526 326.393 98.7092 327.404 98.5553 328.398C98.3733 329.519 98.1479 331.056 98.1606 332.524C98.1556 333.996 98.4547 335.337 98.6336 335.257C98.7287 335.039 98.8358 335.179 99.0493 335.879C99.2901 336.55 99.5249 337.804 100.746 339.687C100.814 339.787 100.879 339.878 100.947 339.972C98.075 335.63 98.8235 332.06 99.3618 329.259C99.3032 329.193 99.2869 328.963 99.3639 328.458C99.1154 329.072 99.0243 328.896 98.8953 328.913C98.5571 328.153 98.4368 327.298 100.448 321.882C101.308 319.93 102.242 318.103 103.077 316.099C103.669 314.685 104.166 313.961 104.719 312.988C105.767 310.675 106.998 308.591 108.146 306.383C108.159 306.358 108.172 306.334 108.184 306.31C108.666 305.366 108.543 305.85 108.399 306.273C109.135 305.435 110.226 303.501 111.122 302.094C111.99 298.37 115.235 292.636 117.444 287.629C118.073 285.79 118.825 284.59 119.483 283.499C120.518 281.776 121.087 280.54 121.723 278.522C122.415 276.343 123.472 273.617 124.66 270.76C124.411 271.17 124.149 271.619 124.064 271.582C124.074 271.554 124.085 271.525 124.095 271.497C124.03 271.468 123.965 271.439 123.901 271.41C125.62 267.118 127.732 263.042 129.547 258.783C130.133 257.411 130.747 256.029 131.359 254.622C131.823 253.337 132.275 252.463 132.4 252.622C132.609 252.849 132 254.41 131.197 256.18C131.596 255.644 131.911 255.388 132.784 253.498C132.981 253.075 133.139 252.784 133.263 252.6C133.395 251.89 133.463 251.302 133.411 250.976C133.288 250.293 133.725 248.937 135.116 246.094C135.706 244.886 136.303 243.255 136.9 242.374C136.906 242.36 136.912 242.345 136.918 242.331C138.793 238.209 140.651 234.123 142.543 230.133C143.46 228.198 144.388 225.784 145.39 223.616C145.86 223.499 146.681 221.839 147.877 219.127C147.998 218.853 148.111 218.601 148.217 218.372L151.453 226.652C149.504 225.716 149.236 225.372 150.225 225.485C150.732 225.544 151.229 225.603 151.858 225.746L149.129 218.763C148.886 219.895 148.412 221.404 147.268 224.063C146.731 225.311 146.704 225.88 146.37 226.898C147.517 224.119 148.631 221.383 149.499 218.922L152.022 225.379C150.486 224.814 149.074 224.368 147.858 224.096C147.261 223.969 146.29 223.538 145.458 223.141C144.292 222.578 144.852 222.678 145.066 222.643C145.284 222.604 145.995 222.816 147.049 223.169C143.308 221.263 140.092 220.241 136.848 219.119C136.847 219.119 136.847 219.12 136.847 219.12C136.844 219.119 136.842 219.117 136.839 219.116C136.835 219.114 136.831 219.113 136.826 219.112C137.095 219.282 137.327 219.438 137.594 219.615C139.304 220.797 138.472 220.621 134.281 219.164C135.486 219.593 136.257 220.017 136.015 220.133C135.768 220.26 134.358 219.731 133.309 219.281C130.873 218.216 127.933 217.234 125.502 216.288C125.068 216.117 124.569 215.918 124.158 215.737C123.152 215.361 122.165 214.991 121.165 214.615C122.541 214.936 124.078 215.401 125.639 215.865C125.901 215.942 126.165 216.02 126.426 216.098C127.121 216.302 128.077 216.601 127.735 216.334C127.547 216.179 126.835 215.873 126.26 215.734C126.078 215.691 125.9 215.646 125.724 215.601C122.951 214.873 120.743 213.743 118.009 212.933C116.876 212.598 116.151 212.256 117.269 212.465C119.426 212.87 117.13 212.074 115.995 211.689C113.189 210.75 110.692 209.783 108.046 208.822C111.885 210.072 114.696 210.512 118.617 211.822C118.836 211.936 119.056 212.048 119.297 212.166C120.25 212.479 121.206 212.805 122.103 213.061C121.167 212.544 120.616 212.21 120.599 212.062C120.588 212.066 120.57 212.067 120.559 212.07C120.076 212.227 117.361 211.429 115.034 210.7C114.699 210.582 114.355 210.462 114.008 210.341C113.052 210.102 112.11 209.867 111.187 209.636C109.496 208.916 107.606 208.513 105.362 207.665C107.406 208.205 107.697 208.071 108.035 207.959C108.022 207.952 108.006 207.944 107.994 207.937C106.528 207.297 105.016 206.781 103.45 206.429C103.422 206.419 103.393 206.408 103.364 206.398C103.377 206.409 103.391 206.421 103.401 206.431C103.417 206.434 103.432 206.437 103.447 206.44C102.008 206.464 97.1578 205.153 94.6406 203.95C91.7829 202.579 89.3426 202.057 86.5083 201.213C89.3626 202.124 89.6928 202.802 93.1153 203.794C91.5227 203.519 89.6885 202.953 87.8921 202.406C86.8465 202.063 85.7738 201.712 84.7373 201.372C83.3535 200.598 80.184 199.781 78.5231 198.994C80.9912 199.596 81.2696 199.257 83.5761 199.798C83.5896 199.798 83.616 199.803 83.6308 199.804C83.5549 199.779 83.4814 199.754 83.4045 199.73C80.065 198.472 76.4499 197.284 72.9899 196.231C72.7878 196.171 72.5832 196.1 72.3728 196.014C72.2676 195.971 72.161 195.923 72.0528 195.871C71.9191 195.806 71.7775 195.73 71.6359 195.645C71.1402 195.34 70.2518 194.708 69.7839 193.422C69.309 192.102 69.6688 190.88 69.9117 190.333C70.2196 189.645 70.4591 189.35 70.7294 189.004C70.6057 189.248 70.4465 189.539 70.2698 189.948C70.08 190.422 69.7851 191.007 69.8252 192.171C69.8393 193.381 70.7674 194.662 71.4505 195.075C72.1408 195.544 72.6177 195.672 73.1164 195.81C74.9485 196.195 77.5445 197.064 79.8979 197.756C77.9472 197.068 76.0656 196.407 74.1141 195.739C73.8306 195.684 73.4591 195.569 73.2144 195.484C73.0375 195.427 72.8607 195.361 72.6822 195.282C72.5929 195.243 72.5032 195.2 72.4129 195.153C72.3057 195.098 72.1853 195.031 72.0701 194.959C71.6595 194.696 70.9697 194.187 70.5976 193.195C70.2134 192.175 70.4739 191.186 70.6644 190.728C70.8981 190.165 71.0904 189.891 71.2993 189.574C74.0027 186.544 76.204 185.561 78.6089 183.932C78.5674 183.951 78.5251 183.971 78.4836 183.991C81.7708 182.142 84.8285 180.09 88.3745 178.621C88.9801 178.372 90.608 177.366 91.7638 176.69C91.858 176.67 91.9924 176.628 92.0067 176.652C92.2602 176.72 89.354 178.27 90.6429 177.821C91.8477 177.406 92.9611 176.557 94.0393 175.841C94.4662 175.559 94.9395 175.258 95.3953 174.962C95.8142 174.69 96.2575 174.41 96.6621 174.147C97.7099 173.461 98.8555 172.677 99.7553 172.459C100.668 172.228 97.7331 173.592 98.0545 173.758C101.472 171.906 104.946 170.269 108.471 168.733C106.51 170.197 102.615 171.823 99.237 173.53C97.9625 174.174 96.9237 174.717 95.7024 175.479C95.6241 175.528 95.5446 175.578 95.4638 175.63C92.3702 177.564 91.4771 178.284 93.3189 177.752C93.8658 177.588 93.271 177.946 93.0107 178.151C92.5734 178.516 91.9805 178.8 91.6111 178.906C90.9705 179.096 90.0297 179.514 89.27 180.07C88.163 180.874 90.0189 179.888 90.5137 179.72C92.357 179.096 89.9695 180.377 88.9319 181.02C87.3371 182.008 84.5756 183.112 83.8361 184.01C83.1608 184.831 86.7435 182.879 87.3664 182.853C87.3746 182.868 87.382 182.883 87.4315 182.876C86.9745 183.122 86.4904 183.395 86.032 183.641C84.7666 184.255 83.4301 184.639 82.2312 185.675C82.2023 185.703 81.2777 186.186 81.2704 186.171C80.3596 185.982 77.1404 188.206 75.3567 189.272C74.6281 190.027 78.3814 187.47 76.5249 188.985C76.3916 189.079 76.2665 189.171 76.1514 189.259C76.2866 189.164 76.4244 189.067 76.5704 188.97C76.5024 189.272 75.8309 189.892 75.1606 190.606C74.8223 190.966 74.502 191.342 74.3034 191.679C74.0966 191.996 74.1181 192.32 74.2595 192.09C74.335 192.015 74.2476 191.637 74.1592 191.555C74.0934 191.469 74.183 191.53 74.3893 191.572C75.2073 191.78 76.0342 192.025 76.6987 192.138C76.0175 191.822 75.313 191.544 74.4809 191.267C74.3156 191.223 74.2395 191.103 74.4698 191.314C74.5816 191.42 74.7443 191.722 74.7535 191.983C74.7689 192.229 74.7072 192.361 74.6952 192.389C74.6588 192.449 74.7433 192.3 74.8471 192.186C74.9687 192.047 75.0868 191.929 75.236 191.79C77.6095 189.798 79.2372 189.277 80.419 188.93C79.5532 189.637 78.1082 190.348 77.099 191.09C76.8686 191.238 76.5984 191.434 76.4886 191.485C75.649 191.862 74.9643 192.411 74.9053 192.528C74.8928 192.532 74.9546 192.498 75.0024 192.198C75.0655 191.938 74.8999 191.37 74.7315 191.188C74.3754 190.783 74.4508 190.913 74.5957 190.885C75.119 190.963 75.6617 191.03 76.1788 191.089C78.0919 191.307 81.5158 192.516 84.0188 193.139C85.9773 193.706 87.7144 194.044 90.042 194.953C89.9372 195.124 88.5634 194.644 87.7489 194.419C84.3736 193.495 81.0207 192.562 80.5502 193.034C80.4016 193.204 79.0698 193.009 78.6906 193.129C77.7234 193.078 78.4209 193.668 76.319 193.171C77.1894 193.574 76.8529 193.643 76.1645 193.655C75.6494 193.648 74.6584 193.446 73.8602 193.334C73.5207 193.276 73.2554 193.205 73.0127 193.093C72.7963 193.005 72.6033 192.842 72.5662 192.889C72.9895 193.373 73.3731 193.466 73.7808 193.598C74.5874 193.825 75.3827 194.07 76.1922 194.306C76.9553 194.525 78.2632 194.887 78.0687 194.745C75.8603 193.146 83.0153 195.899 84.5195 196.001C85.1332 196.038 87.8919 196.971 88.17 196.753C87.8744 196.649 87.5815 196.547 87.2915 196.445C85.5831 195.863 84.0718 195.452 82.5958 195.095C82.1041 194.977 81.6589 194.875 81.1631 194.756C80.4211 194.573 79.6377 194.357 79.0295 194.056C78.471 193.778 78.1083 193.498 78.2043 193.396C78.3143 193.238 79.3297 193.571 80.5735 194.006C82.9818 194.837 82.2697 194.382 82.1061 194.159C84.574 194.75 86.4569 195.058 88.8499 195.599C91.4433 196.191 93.6185 196.833 96.3602 197.821C96.3917 197.828 96.4182 197.833 96.4506 197.84C96.5043 197.828 96.5584 197.815 96.6552 197.822C96.6706 197.825 96.6897 197.83 96.7051 197.833C96.6746 197.823 96.6439 197.812 96.6132 197.802C96.4018 197.69 96.1891 197.578 95.9806 197.461C95.2777 197.066 92.2983 196.209 93.0008 196.185C93.5931 196.148 96.2931 196.981 97.884 197.541C99.8326 198.224 102.495 199.094 103.054 199.665C105.632 200.283 106.118 200.106 105.701 199.591C107.822 200.361 109.209 200.315 111.194 201.205C112.736 201.894 111.351 201.778 111.949 202.211C112.269 202.444 111.699 202.36 112.103 202.644C117.284 203.969 122.772 205.74 128.315 207.591C128.467 207.642 128.618 207.693 128.771 207.744C129.899 208.127 129.585 207.861 129.433 207.713C130.194 208 130.953 208.293 131.709 208.585C131.717 208.589 131.726 208.593 131.734 208.597C132.241 208.712 132.744 208.827 133.246 208.95C133.217 208.933 133.171 208.911 133.134 208.891C131.809 208.356 130.393 207.856 130.394 207.559C130.384 207.141 132.219 207.992 133.306 208.348C134.531 208.752 133.927 208.452 133.636 208.269C133.099 207.927 133.367 207.885 134.473 208.2C135.76 208.576 136.353 208.914 136.842 209.236C138.028 210.02 139.096 210.681 140.374 210.547C140.849 210.509 142.454 210.985 144.2 211.624C145.876 212.176 147.798 213.006 149.43 213.544C150.335 213.841 150.375 213.997 150.473 214.126C148.324 213.709 145.362 212.933 144.363 213.121C144.857 213.415 145.423 213.648 145.981 213.785C145.632 213.516 145.416 213.301 146.496 213.668C147.572 214.041 147.83 214.287 148.501 214.64C150.366 215.626 150.105 215.793 150.112 216.056C152.994 217.263 153.296 217.004 154.524 217.284C154.898 217.37 155.185 217.411 155.54 217.508C157.401 218.373 158.259 220.448 157.421 222.322C157.354 222.584 157.257 222.882 157.092 223.278C157.229 223.048 157.376 222.774 157.55 222.377C158.419 220.432 157.528 218.278 155.597 217.38C155.371 217.277 155.106 217.165 154.788 217.041C152.626 216.193 150.684 215.318 149.663 214.569C148.56 213.775 150.797 214.568 151.916 214.855C152.15 214.913 152.385 214.971 152.619 215.029C153.45 215.121 154.679 215.433 156.24 215.942C158.967 217.21 160.225 220.252 158.997 222.998C158.963 223.11 158.927 223.222 158.891 223.337C157.877 225.803 156.908 228.215 155.822 230.652C156.091 230.103 156.303 229.761 156.433 229.697C156.198 230.914 155.675 232.493 154.528 234.802C153.698 236.885 152.685 239.067 152.471 240.504C152.358 241.245 151.223 243.877 150.474 245.732C149.88 246.65 150.056 245.914 150.347 244.91C150.282 244.727 151.216 242.298 150.076 244.535C149.658 245.021 149.748 244.393 149.902 243.633C150.03 243.049 150.075 242.655 149.867 242.842C150.064 243.328 149.537 245.021 148.093 248.534C147.625 249.665 147.149 250.707 147.012 251.384C147.295 251.374 148.129 249.276 148.644 248.467C148.396 249.34 147.972 250.531 147.958 250.98C147.263 252.791 146.757 254.381 145.817 256.457C145.716 256.688 145.615 256.917 145.514 257.147C145.14 258.403 144.629 259.742 143.812 261.271C143.428 261.985 143.192 262.324 143.035 262.462C143.204 262.674 142.755 264.086 141.743 266.623C141.025 268.417 141.058 268.983 140.362 270.693C139.777 272.055 139.201 273.436 138.623 274.802C137.423 277.59 136.227 280.199 134.918 282.637C133.513 285.259 131.81 287.38 131.751 286.578C131.732 286.257 131.764 285.853 131.603 285.832C131.288 285.76 130.865 286.352 130.191 287.854C130.712 286.984 130.882 287.096 130.838 287.552C130.715 288.612 131.097 288.553 131.319 288.858C131.281 288.957 131.241 289.059 131.203 289.158C132.099 287.77 133.246 285.621 133.828 285.143C133.149 286.834 132.406 288.355 131.619 289.781C131.415 290.158 130.97 291.029 131.2 290.418C131.767 288.918 131.566 289.135 130.978 290.211C130.468 291.142 130.301 291.835 130.096 292.458C129.52 294.259 128.309 297.099 128.72 297.238C128.83 297.289 128.447 298.408 127.892 299.516C127.437 300.428 127.059 300.912 126.958 300.857C126.798 300.777 126.645 300.725 125.979 301.853C125.883 301.479 126.376 300.096 126.784 298.861C126.347 299.639 125.895 300.542 125.431 301.745C124.613 303.831 123.326 306.225 122.296 308.491C121.886 309.388 121.394 310.179 121.045 310.62C120.543 311.238 120.099 311.903 119.758 312.504C119.252 313.398 118.933 314.256 118.729 315.152C118.673 315.385 118.456 315.88 118.276 316.305C118.096 316.738 117.983 317.066 117.894 317.356C118.152 317.01 118.567 316.3 119.118 315.303C118.633 316.237 118.146 317.189 117.677 318.121C117.658 318.189 117.64 318.255 117.619 318.327C117.6 318.376 117.577 318.432 117.558 318.481C117.968 317.854 117.897 318.17 117.509 319.138C116.463 321.391 115.939 321.959 115.342 322.759C115.442 322.554 115.542 322.349 115.639 322.152C115.547 322.324 115.452 322.51 115.355 322.717C115.192 323.069 115.034 323.414 114.881 323.754C114.843 323.832 114.802 323.923 114.762 324.013C114.797 323.942 114.834 323.865 114.869 323.795C113.434 327.123 112.706 329.783 112.997 330.781C113.11 331.265 112.841 332.466 112.576 333.007C112.573 333.013 112.571 333.019 112.568 333.025C112.407 333.161 112.224 333.012 112.055 333.068C111.972 333.094 111.889 333.188 111.832 333.338C111.756 333.452 111.812 333.728 111.656 333.272C111.648 333.257 111.592 333.299 111.53 333.386C111.468 333.467 111.391 333.599 111.311 333.588C111.279 333.593 111.245 333.597 111.211 333.597C110.72 333.383 111.38 330.612 112.201 328.315C112.544 327.265 113.079 326.068 113.522 324.921C114.39 322.677 114.774 321.511 113.78 322.872C113.675 322.942 113.634 322.883 113.642 322.729C113.412 323.368 113.269 323.881 113.57 323.604C113.574 323.606 113.578 323.607 113.581 323.609C113.823 323.673 113.267 324.875 112.804 325.886C112.388 326.794 112.005 327.648 111.799 328.519C111.795 328.531 111.79 328.542 111.785 328.553C111.624 329.381 111.448 330.267 111.14 331.308C110.778 332.516 110.712 333.467 110.796 333.647C110.898 333.851 110.847 333.257 110.884 332.89C110.921 332.838 110.358 332.293 110.219 332.238C110.212 332.234 110.206 332.23 110.2 332.227C110.207 332.229 110.214 332.231 110.221 332.233C110.249 332.173 110.134 332.083 110.156 332.043C110.179 332 110.182 331.939 110.228 331.839C110.316 331.78 110.289 331.735 110.262 331.71C110.234 331.687 110.347 331.718 110.462 331.712C111.019 331.78 111.942 331.573 113.153 331.391C113.187 331.381 113.304 331.37 113.532 331.334C113.859 331.343 114.236 331.282 114.487 331.25C114.72 331.225 114.834 331.233 114.8 331.306C114.811 331.417 113.823 331.959 113.262 332.206C113.178 332.225 113.093 332.244 113.007 332.263C113.016 332.264 113.028 332.265 113.037 332.266C112.64 332.603 113.892 332.812 112.207 333.258C111.519 333.415 112.577 333.444 113.291 333.39C113.333 333.388 113.376 333.385 113.419 333.382C114.247 333.418 115.994 332.625 116.973 331.916C118.011 331.191 118.496 330.576 118.012 330.512C117.189 330.361 118.924 329.406 121.05 327.896C122.135 327.161 122.905 326.644 123.257 326.493C122.858 326.619 123.172 326.193 123.885 325.259C124.249 324.877 124.644 324.472 124.996 324.099C127.286 321.871 130.66 319.014 132.81 316.597C133.273 316.083 133.703 315.753 134.166 315.383C135.908 313.972 137.445 312.603 138.471 311.093C138.865 310.513 139.866 309.407 140.378 309.231C140.443 309.216 140.507 309.2 140.572 309.185C141.023 309.025 141.894 308.1 142.699 307.288C142.821 307.167 142.943 307.045 143.066 306.923C142.709 306.689 143.439 305.772 145.419 304.05C145.556 303.932 145.694 303.813 145.831 303.695C145.928 303.596 146.025 303.498 146.122 303.4C146.769 302.757 147.245 302.373 147.658 302.087C147.673 302.073 147.689 302.058 147.704 302.043C149.563 300.105 151.419 298.138 153.264 296.163C154.586 295.009 153.362 296.909 155.387 294.906C155.618 294.74 155.779 294.387 155.603 294.663C153.361 296.657 154.726 294.895 155.681 293.549C157.155 291.721 158.956 290.588 160.315 288.48C162.468 285.132 165.604 282.275 168.33 279.256C168.416 279.165 168.56 279 168.69 278.845C168.813 278.699 168.961 278.517 169.104 278.336C170.991 276.738 171.777 274.915 173.068 273.099C175.502 269.446 178.238 266.013 181.537 262.516C183.05 260.909 184.846 258.608 186.771 256.788C186.413 257.287 184.786 259.066 186.49 257.492C186.431 257.555 186.375 257.618 186.317 257.68C186.341 257.656 186.366 257.631 186.39 257.607C187.616 256.672 188.641 256.044 190.863 253.48C191.189 253.114 191.233 253.007 191.396 252.785C191.765 252.225 189.691 253.945 190.4 253.215C191.964 251.599 194.107 249.524 196.839 248.001C198.552 247.134 200.457 245.972 204.271 245.865C206.619 245.886 208.227 246.652 209.13 247.101C210.199 247.659 210.831 248.119 211.454 248.588C212.105 249.088 212.565 249.493 213.032 249.92C213.5 250.349 213.952 250.796 214.319 251.174C215.942 252.855 217.138 254.321 218.367 255.89C222.684 261.495 226.327 267.226 229.94 272.85C231.587 275.426 233.279 278.179 234.646 280.624C237.35 285.477 240.525 289.652 242.979 294.453C243.012 294.507 243.044 294.561 243.076 294.616C243.016 294.543 242.957 294.467 242.895 294.384C242.942 294.451 242.989 294.518 243.038 294.585C244.447 296.823 245.93 299.127 247.062 301.446C247.677 302.694 248.595 304.085 249.333 305.242C250.2 306.603 251.036 307.953 251.822 309.212C252.243 309.885 252.614 310.475 252.997 311.064C253.161 311.317 253.372 311.634 253.515 311.841C253.631 312.018 253.841 312.277 253.657 312.071C254.761 313.319 256.008 314.664 257.263 315.969C262.139 321.014 267.378 326.009 272.583 330.107C273.967 331.183 275.406 332.181 276.605 332.869C277.178 333.202 277.752 333.461 277.853 333.497C277.883 333.521 277.821 333.46 277.213 333.431C276.73 333.411 275.14 333.479 273.62 334.685C271.742 336.371 272.007 337.024 271.927 337.116C271.95 337.275 272.089 336.663 272.117 336.08C272.157 335.443 272.145 334.7 272.091 333.92C271.982 332.358 271.716 330.688 271.348 329.051C271.338 329.023 271.328 328.995 271.318 328.967C271.054 327.069 270.738 325.139 270.265 323.315C269.788 321.486 269.447 320.044 269.293 318.216C269.166 316.71 268.493 314.291 267.899 312.32C267.097 309.979 266.409 307.417 265.803 304.737C265.808 304.498 265.873 304.43 265.699 303.724C265.245 302.426 265.031 301.191 264.639 299.948C264.13 298.053 263.576 296.126 262.889 294.343C262.734 293.946 262.534 293.461 262.425 293.022C262.418 292.998 262.41 292.975 262.403 292.951C262.323 292.706 262.231 292.422 262.15 292.167C262.141 292.142 262.131 292.116 262.122 292.09C262.009 291.843 261.89 291.589 261.787 291.364C260.705 288.649 259.687 285.81 258.885 282.822C258.21 280.264 257.523 277.724 256.508 275.148C256.107 274.135 255.942 273.464 255.91 272.928C255.905 272.913 255.9 272.898 255.896 272.884C255.899 272.891 255.902 272.897 255.905 272.905C255.498 270.783 254.91 268.811 253.881 266.354C252.974 264.188 252.249 262.017 252.091 260.206C251.965 258.871 251.969 257.542 250.622 253.819C250.245 252.768 250.014 251.425 249.561 250.693C249.027 249.844 249.9 252.391 249.835 252.709C249.825 252.679 249.815 252.649 249.804 252.619C249.781 252.555 249.758 252.489 249.734 252.426C249.752 252.491 249.772 252.56 249.788 252.624C249.794 252.622 249.799 252.62 249.804 252.619C249.981 253.202 250.169 253.825 250.342 254.403C248.321 248.37 245.956 242.835 243.959 236.944C243.529 235.677 242.81 233.98 242.417 233.459C242.306 233.283 242.2 233.113 242.097 232.95C241.037 231.211 240.07 229.453 239.394 226.701C239.106 225.3 238.734 223.568 239.389 220.876C239.917 218.119 242.933 215.033 245.189 214.33L243.613 215.235C243.94 215.008 244.268 214.781 244.594 214.555C247.677 212.415 250.71 210.303 252.997 207.997C253.624 207.367 255.104 206.196 255.892 205.835C257.11 205.287 258.732 204.054 260.361 202.803C264.201 199.857 267.992 196.927 271.792 194.008C271.873 193.954 271.954 193.898 272.034 193.843C274.382 192.114 276.322 190.234 278.923 188.565C278.972 188.53 279.022 188.494 279.071 188.46C280.717 187.175 280.549 187.708 281.79 186.834C283.033 186.28 284.664 185.325 287.013 183.619C284.951 184.959 283.781 185.614 283.605 185.5C287.547 182.533 291.443 179.547 295.247 176.605C296.188 175.879 297.585 174.758 298.024 174.641C299.262 174.346 301.696 172.401 303.825 170.965C303.844 170.956 303.857 170.951 303.874 170.944C304.727 170.322 305.555 169.728 306.391 169.128C306.436 169.093 306.484 169.058 306.529 169.023C308.671 167.157 310.892 165.651 313.693 164.154C314.31 163.839 314.903 163.541 315.485 163.246C315.504 163.235 315.523 163.224 315.542 163.213C316.708 162.297 317.981 161.396 318.954 160.616C319.426 160.245 319.793 159.878 319.767 159.906C319.76 159.918 319.638 160.09 319.549 160.302C319.457 160.513 319.448 160.651 319.51 160.403C319.589 160.099 319.735 159.255 319.959 158.341C319.527 159.874 319.793 161.892 320.457 163.154C321.09 164.44 321.911 165.157 322.32 165.486C322.887 165.933 323.259 166.112 323.505 166.233C324.013 166.46 323.957 166.415 323.965 166.431C323.954 166.433 323.811 166.406 323.697 166.39C323.578 166.373 323.427 166.352 323.248 166.329C322.858 166.279 322.507 166.245 322.09 166.206C321.671 166.167 321.204 166.128 320.802 166.096C319.731 166.003 317.936 165.937 317.745 165.746C317.303 165.222 314.346 165.221 312.299 165.045C312.286 165.046 312.275 165.047 312.262 165.048C311.774 165.003 311.307 164.954 310.846 164.911C309.585 165.101 307.858 165.162 305.497 165.123C300.224 165.04 294.941 165 289.66 164.744C289.677 164.739 289.697 164.735 289.715 164.731C289.681 164.731 289.648 164.732 289.614 164.732C289.614 164.734 289.614 164.736 289.614 164.737C286.667 164.431 283.765 164.402 280.296 164.479C274.683 164.609 268.771 164.707 262.703 164.304C261.617 164.228 260.113 164.175 258.979 164.18C256.331 164.185 253.859 164.153 251.153 164.049C249.825 163.997 248.547 163.934 247.09 163.823C246.474 163.776 245.605 163.699 244.896 163.611C244.555 163.57 243.98 163.492 243.52 163.408C243.144 163.32 242.316 163.255 240.853 162.615C239.067 161.74 238.465 160.95 237.907 160.348C237.844 160.274 237.768 160.183 237.727 160.132C237.691 160.087 237.655 160.043 237.621 159.999C237.552 159.912 237.486 159.826 237.423 159.741C237.298 159.573 237.182 159.409 237.073 159.248C236.858 158.931 236.654 158.601 236.485 158.314C236.353 158.089 236.225 157.862 236.1 157.631C235.563 156.637 235.215 155.895 234.82 155.034C234.089 153.422 233.454 151.865 232.842 150.32C231.642 147.276 230.499 144.144 229.423 141.171C228.161 137.69 226.888 134.322 225.688 130.954C221.322 118.669 217.416 106.276 213.613 93.8425C210.619 83.8331 207.499 74.4645 205.163 63.3201C205.091 62.9138 205.027 62.5246 204.974 62.1334C204.902 61.59 204.825 60.9979 204.823 60.1603C204.823 60.2536 204.827 60.3927 204.849 60.5948C204.86 60.6958 204.875 60.8129 204.899 60.9483C204.92 61.066 204.961 61.2769 205.036 61.5411C205.2 62.0779 205.397 62.7016 206.079 63.6567C206.828 64.7497 208.452 65.9373 209.947 66.2896C211.406 66.6934 212.799 66.4754 213.313 66.3404C213.924 66.1913 214.323 66.0128 214.606 65.8729C215.056 65.6424 215.203 65.5143 215.27 65.4653C215.381 65.3725 215.244 65.4787 215.088 65.6377C214.926 65.7986 214.726 66.014 214.513 66.2571C213.657 67.235 212.687 68.5209 211.758 69.829C209.893 72.4595 208.081 75.2994 206.332 78.1818C202.854 83.9341 199.59 89.8992 196.723 95.8197C195.881 97.5631 195.075 99.2377 194.331 100.917C193.565 102.657 192.811 104.435 192.077 106.336C190.629 110.075 189.223 113.03 187.851 116.679C186.81 118.924 185.736 121.51 184.696 124.112C181.01 133.341 177.707 141.125 174.655 147.389C173.975 148.785 173.316 150.065 172.874 150.462C172.826 150.438 172.797 150.371 172.778 150.289C172.433 150.925 172.173 151.166 171.776 152.036C171.743 152.083 171.714 152.119 171.684 152.16C171.696 152.171 171.706 152.183 171.711 152.211C171.254 153.233 170.959 153.593 170.723 153.72C170.736 153.678 170.749 153.635 170.762 153.592C170.202 154.838 169.909 155.041 169.678 155.019C168.833 156.073 168.33 155.986 168.025 155.227C167.99 155.306 167.955 155.39 167.922 155.465C167.946 154.734 168.058 153.803 168.293 152.588C168.268 152.514 168.261 152.367 168.272 152.139C168.322 151.761 168.396 151.341 168.502 150.837C168.536 150.701 168.572 150.562 168.607 150.424C168.562 150.097 169.056 148.605 169.186 147.906C170.505 142.972 171.875 137.999 173.447 132.905C173.443 132.903 173.438 132.903 173.434 132.901C173.455 132.841 173.476 132.781 173.497 132.722C174.949 127.616 176.428 122.511 177.967 117.415C178.562 114.931 179.235 112.322 180.267 109.233C181.387 106.085 182.5 102.962 183.647 99.8429C183.964 98.9388 184.288 98.0316 184.614 97.1372C185.725 94.0907 186.973 91.1069 188.258 88.1974C191.577 80.7317 195.588 73.3824 199.572 66.5085C201.709 63.1757 203.49 60.0736 206.939 56.5073C206.999 56.4367 207.094 56.3349 207.193 56.2319C207.2 56.2391 207.206 56.2463 207.212 56.2535C207.215 56.2531 207.218 56.2527 207.221 56.2523C207.553 55.9563 207.8 55.7333 208.341 55.3606C208.822 55.0689 209.423 54.5643 210.996 54.2931C211.956 54.1498 213.356 54.2489 214.642 55.0951C215.257 55.4965 215.747 56.0128 216.09 56.5095C216.372 56.9196 216.54 57.2622 216.68 57.6047C216.816 57.9424 216.907 58.2533 216.972 58.5406C217.03 58.7976 217.055 58.9525 217.082 59.1441C217.132 59.5103 217.151 59.8426 217.154 60.1603C219.434 70.1912 224.044 84.1343 227.935 96.1399C229.005 99.3929 230.139 102.607 231.219 105.95C231.371 106.43 231.524 106.911 231.678 107.392C233.912 113.533 236.101 119.987 238.315 126.32C239.953 131.009 241.636 135.674 243.406 140.258C244.255 142.454 245.219 144.869 246.123 146.951C246.627 148.111 247.083 149.113 247.563 150.073C247.62 150.185 247.674 150.291 247.727 150.392C247.792 150.518 247.856 150.64 247.915 150.749C248.034 150.97 248.139 151.153 248.222 151.289C248.311 151.438 248.411 151.58 248.387 151.54C248.367 151.515 248.378 151.507 248.164 151.275C247.946 151.066 247.606 150.658 246.567 150.157C245.984 149.899 245.858 149.903 245.843 149.891C245.849 149.891 245.913 149.902 246.015 149.916C246.116 149.931 246.261 149.95 246.423 149.969C246.548 149.983 246.69 149.998 246.845 150.013C247.529 150.078 248.168 150.122 248.941 150.168C250.374 150.252 251.874 150.31 253.44 150.36C256.467 150.455 259.539 150.512 262.657 150.561C268.818 150.656 275.082 150.716 281.308 150.804C282.823 150.828 284.345 150.853 285.862 150.878C290.752 150.781 295.84 150.902 300.798 151.009C305.29 151.107 309.791 151.216 314.344 151.418C316.608 151.52 318.932 151.645 321.289 151.845C322.468 151.946 323.734 152.073 324.99 152.256C325.361 152.31 325.72 152.368 326.072 152.432C326.249 152.464 326.423 152.497 326.598 152.533C326.789 152.572 327.057 152.63 327.289 152.687C327.528 152.746 327.771 152.81 328.025 152.886C328.152 152.924 328.282 152.965 328.416 153.01C328.533 153.049 328.818 153.15 329.042 153.242C329.52 153.442 330.069 153.687 330.798 154.201C330.991 154.348 331.994 155.025 332.804 156.344C333.659 157.621 334.166 159.984 333.64 161.81C333.552 162.15 333.485 162.538 333.304 163.391C333.132 164.213 332.732 165.674 332.009 166.959C330.507 169.567 328.94 170.707 327.708 171.713C325.192 173.63 323.001 174.886 320.752 176.192C320.038 176.6 319.232 177.1 318.407 177.624C316.033 179.275 313.464 180.874 311.083 182.69C302.285 188.808 293.633 195.375 284.932 201.781C284.938 201.776 284.947 201.768 284.952 201.762C284.923 201.786 284.891 201.81 284.861 201.833C284.859 201.835 284.857 201.837 284.854 201.839C279.294 206.232 273.352 210.486 267.672 214.879C265.213 216.782 262.602 218.652 260.255 220.606C257.564 222.627 254.971 224.697 252.272 226.703C251.981 226.929 251.06 227.445 250.722 227.592C251.451 227.421 253.135 225.77 253.323 224.573C253.582 223.586 253.443 223.315 253.46 223.327C253.458 223.341 253.517 223.602 253.636 223.922C253.874 224.582 254.314 225.486 254.842 226.394C255.872 228.236 256.437 229.595 257.07 230.96C259.345 236.403 261.11 241.535 262.812 246.843C262.906 247.157 263.015 247.521 263.109 247.839C263.17 248.027 263.231 248.215 263.292 248.403C263.243 248.244 263.193 248.084 263.144 247.925C263.411 248.689 263.674 249.445 263.936 250.203C265.906 256.314 268.006 262.406 269.818 268.523C272.012 275.1 274.159 281.818 276.336 288.134C278.993 295.905 281.035 303.465 282.874 311.275C282.878 311.29 282.881 311.306 282.885 311.321C282.882 311.315 282.879 311.305 282.877 311.299C283.142 312.025 283.365 312.949 283.561 313.887C283.58 313.976 283.601 314.066 283.62 314.155C283.609 314.083 283.594 314.003 283.583 313.931C284.593 318.21 285.508 322.529 286.192 327.064C286.529 329.345 286.817 331.662 286.925 334.222C286.972 335.57 286.992 336.837 286.813 338.548C286.77 338.934 286.703 339.424 286.612 339.905C286.566 340.147 286.514 340.392 286.454 340.642C286.385 340.932 286.304 341.231 286.208 341.537C285.812 342.623 285.323 344.51 282.859 346.542C279.127 349.242 276.073 348.475 274.571 348.228C272.897 347.849 271.857 347.377 270.842 346.9C268.924 345.965 267.459 344.998 266.072 344.04C263.318 342.11 260.924 340.122 258.598 338.105C257.403 337.063 256.227 335.955 255.112 335.074C255.101 335.061 255.095 335.052 255.085 335.04C255.082 335.04 255.076 335.038 255.073 335.039C250.598 330.972 246.497 326.863 242.349 322.328C240.657 320.314 240.352 319.619 239.537 318.399C239.539 318.398 239.541 318.397 239.542 318.396C236.961 314.801 234.965 311.048 232.763 307.395C232.746 307.363 232.727 307.328 232.71 307.296C232.713 307.309 232.719 307.325 232.722 307.338C229.732 302.366 226.781 297.443 223.791 292.551C223.069 291.359 222.341 290.164 221.614 288.978C220.178 286.665 218.726 284.357 217.271 282.087C212.926 275.352 208.329 268.252 203.723 262.986C203.121 262.318 202.552 261.801 202.316 261.419C202.074 261.192 201.8 261.017 201.823 261.066C201.836 261.087 201.943 261.175 202.225 261.303C202.512 261.43 203.2 261.696 204.271 261.708C204.96 261.714 205.167 261.595 205.113 261.59C205.105 261.59 205.093 261.594 205.075 261.6C204.61 261.836 202.873 262.94 201.441 264.268C201.423 264.284 201.405 264.3 201.387 264.317C201.399 264.307 201.411 264.298 201.423 264.288ZM118.831 328.886C118.579 329.053 117.981 329.321 118.029 329.243C118.099 328.976 118.32 328.654 119.824 327.653C119.813 327.661 119.801 327.669 119.79 327.676C119.844 327.681 120.048 327.602 119.982 327.655C119.316 328.231 120.276 327.909 118.831 328.886ZM241.852 294.62C241.888 294.637 241.933 294.671 241.997 294.739C241.774 294.019 242.267 294.588 242.847 295.303C242.131 294.003 241.387 292.702 240.658 291.382C240.986 292.289 240.903 292.595 241.042 293.223C241.308 293.66 241.567 294.106 241.852 294.62ZM225.042 268.145C225.343 268.499 225.708 268.976 226.032 269.383C225.295 268.127 225.266 267.825 225.816 268.284C225.017 267.249 224.766 267.134 224.965 267.747C225.025 267.934 225.052 268.069 225.042 268.145ZM256.917 272.655C256.823 272.604 256.713 272.516 256.684 272.681C256.876 273.225 257.018 273.477 257.158 273.74C257.026 273.271 256.95 272.917 256.917 272.655ZM258.502 318.745C258.459 318.699 258.417 318.655 258.374 318.61C258.38 318.618 258.385 318.624 258.391 318.632C258.427 318.668 258.462 318.705 258.498 318.743C258.5 318.744 258.5 318.743 258.502 318.745ZM137.017 314.606C137.154 314.419 137.367 314.175 137.583 313.936C137.683 313.841 137.78 313.744 137.879 313.649C136.967 314.528 136.027 315.384 135.101 316.245C135.582 315.919 136.221 315.392 136.883 314.828C136.928 314.754 136.967 314.684 137.017 314.606ZM125.248 326.701C126.961 325.35 128.75 323.951 130.426 322.428C129.046 323.606 127.681 324.739 126.307 325.855C125.204 326.752 123.831 327.809 123.491 327.767C123.189 327.705 124.196 326.847 125.462 325.811C125.629 325.68 125.78 325.559 125.913 325.451C125.523 325.635 125.094 325.843 124.668 326.044C125.298 325.518 125.91 325 126.507 324.485C124.783 325.655 123.756 326.292 123.347 326.458C123.627 326.364 123.588 326.56 123.194 327.074C122.011 328.557 123.096 328.386 125.248 326.701ZM304.135 171.813C303.14 172.416 302.18 172.967 301.098 173.708C300.755 174.034 300.392 174.37 299.918 174.771C299.376 175.15 299.007 175.446 298.678 175.728C300.269 174.511 301.945 173.412 303.63 172.294C303.8 172.132 303.969 171.972 304.135 171.813ZM171.398 277.808C170.739 278.558 170.071 279.322 169.485 279.975C170.032 279.456 170.703 278.682 171.398 277.808ZM142.427 261.069C142.009 262.622 141.726 263.75 142.524 262.809C142.643 262.672 142.741 262.573 142.821 262.51C142.786 262.482 142.758 262.435 142.732 262.38C142.591 262.042 143.166 260.177 142.427 261.069ZM153.668 298.108C153.665 297.958 153.957 297.507 154.246 297.057C153.783 297.569 153.349 298.078 152.878 298.591C153.067 298.527 153.33 298.365 153.668 298.108ZM132.785 318.794C132.768 319.249 133.334 318.988 135.276 316.902C135.54 316.628 135.75 316.395 135.926 316.188C135.885 316.154 135.608 316.355 134.836 317.037C134.15 317.645 133.463 318.227 132.79 318.787C132.788 318.789 132.787 318.791 132.785 318.794ZM269.421 311.6C269.479 311.979 269.497 312.235 269.493 312.424C269.565 312.615 269.635 312.789 269.705 312.958C269.593 312.486 269.503 312.033 269.421 311.6ZM154.91 232.847C155.099 232.361 155.295 231.864 155.493 231.381C155.456 231.463 155.419 231.546 155.381 231.631C155.221 232.037 155.065 232.443 154.91 232.847ZM120.184 308.363C120.16 308.456 120.122 308.583 120.054 308.766C119.585 309.788 119.074 310.851 118.561 311.873C117.803 313.383 117.048 314.863 116.281 316.372C115.995 316.935 115.693 317.533 115.412 318.07C115.378 318.161 115.346 318.249 115.31 318.345C115.149 318.809 114.875 319.438 114.643 320.008C115.959 317.292 117.368 314.553 118.639 311.914C119.247 310.653 119.825 309.363 120.314 308.161C120.271 308.229 120.228 308.295 120.184 308.363ZM245.948 236.222C246.028 236.492 245.864 236.027 246.019 236.444C245.997 236.377 245.978 236.308 245.954 236.233C245.952 236.23 245.95 236.225 245.948 236.222ZM200.45 249.581C200.475 249.571 200.499 249.562 200.524 249.552C200.39 249.6 200.258 249.65 200.128 249.698C200.193 249.678 200.252 249.661 200.307 249.646C200.353 249.624 200.404 249.601 200.45 249.581ZM129.665 282.862C129.371 283.977 129.236 284.725 130.513 282.237C130.884 281.515 131.127 281.186 131.243 281.182C131.058 282.527 131.996 281.016 133.11 279.031C133.235 278.806 133.367 278.546 133.501 278.277C133.287 278.644 133.051 279.048 132.768 279.538C133.818 277.205 134.762 275.194 135.482 273.197C135.828 272.239 136.771 270.161 137.339 269.506C137.793 268.995 138.403 267.749 139.047 266.206C137.799 269.672 136.147 272.976 134.549 276.352C135.733 274.782 136.708 272.762 138.367 268.467C138.987 266.862 139.648 265.217 140.312 263.599C139.899 264.476 139.419 265.402 139.005 266.287C139.165 265.227 139.188 264.576 138.055 266.382C137.328 267.541 138.575 264.41 138.497 263.944C137.267 266.616 136.395 269.167 135.097 271.797C134.971 272.051 134.673 273.088 134.709 273.204C134.861 273.458 134.661 274.191 133.764 276.179C132.864 278.161 132.009 280.34 131.298 281.002C131.433 280.397 132.026 278.647 130.962 280.851C130.149 282.523 129.952 282.578 129.665 282.862ZM123.22 300.69C122.561 302.017 121.947 303.404 121.634 304.282C120.932 306.246 119.921 308.334 118.769 310.54C119.019 310.14 119.298 309.626 119.613 309.013C119.62 309.002 119.626 308.993 119.632 308.982C120.267 307.532 120.977 306.042 121.743 304.504C121.767 304.383 121.773 304.288 121.752 304.237C121.952 303.577 122.335 302.655 122.823 301.612C123.171 300.923 123.506 300.243 123.85 299.525C123.864 299.449 123.878 299.377 123.907 299.28C123.676 299.731 123.451 300.192 123.22 300.69ZM119.163 203.697C118.041 203.328 116.471 203.037 115.861 202.612C115.099 202.082 117.706 202.866 118.563 202.966C119.116 203.111 119.603 203.228 120.15 203.371C121.038 203.584 121.823 203.817 122.653 204.192C122.21 204.332 121.556 204.385 119.165 203.691C119.164 203.693 119.163 203.695 119.163 203.697ZM146.095 247.272C146.074 247.326 146.054 247.378 146.033 247.431C147.397 245.827 145.346 250.484 144.683 252.375C143.728 255.097 142.289 258.512 141.191 261.474C142.3 258.819 143.465 256.108 144.632 253.394C144.515 253.367 144.687 252.733 145.067 251.726C145.696 250.069 146.057 248.749 146.885 246.874C147.737 244.959 147.807 244.32 147.968 243.515C148.017 243.343 148.07 243.165 148.123 242.987C147.494 244.056 146.812 245.583 146.095 247.272ZM115.04 316.412C114.715 316.51 114.026 317.459 113.274 319.435C112.981 320.206 112.64 320.999 112.298 321.82C112.326 321.782 112.356 321.739 112.385 321.699C113.668 318.461 114.17 318.148 114.577 317.967C114.742 317.648 114.92 317.331 115.105 317.013C115.211 316.854 115.311 316.708 115.402 316.575C115.407 316.565 115.412 316.554 115.417 316.543C115.123 316.827 115.189 316.388 115.04 316.412ZM120.565 331.376C120.846 331.014 121.275 330.578 121.944 329.993C120.44 331.057 118.989 332.005 117.488 332.843C119.097 331.977 119.739 331.64 120.565 331.376ZM109.882 334.787C110.879 335.014 112.006 334.846 113.067 334.608C111.854 334.786 110.706 334.859 109.882 334.787ZM122.096 302.067C122.439 301.437 122.805 300.698 123.157 299.938C122.768 300.742 122.396 301.49 122.096 302.067ZM108.489 322.156C108.389 322.77 108.725 322.489 108.569 323.253C108.476 323.716 108.965 322.964 109.518 321.796C109.76 321.282 109.961 320.84 110.204 320.328C111.545 317.536 112.308 316.46 112.387 317.011C112.494 316.882 112.61 316.736 112.726 316.601C112.963 316.41 112.767 317.036 112.79 317.25C112.791 317.351 112.792 317.454 112.766 317.597C112.662 318.017 112.542 318.473 112.551 318.68C112.637 318.621 112.788 318.338 112.957 318.006C113.589 316.721 114.14 315.502 114.706 314.262C115.333 313.023 115.961 311.877 116.572 310.824C118.033 308.304 119.299 306.322 120.286 304.952C120.429 304.755 120.568 304.558 120.704 304.358C120.491 304.577 120.352 304.578 120.275 304.371C120.075 303.9 119.541 304.064 120.534 301.24C121.187 299.374 120.19 300.612 119.563 301.289C119.129 301.778 118.523 303.198 118.139 304.21C117.749 305.235 117.667 305.793 117.055 307.148C116.595 308.255 116.075 309.329 115.547 310.284C115.032 311.217 114.514 312.067 113.97 312.897C112.737 314.777 112.471 314.803 113.339 312.674C113.501 312.278 113.631 311.933 113.754 311.6C113.19 312.839 112.587 314.108 111.837 315.531C111.813 315.583 111.788 315.636 111.763 315.688C112.333 315.206 112.443 315.393 110.485 319.281C110.448 319.076 110.4 318.885 110.354 318.693C109.679 320.16 109.19 320.83 108.621 321.912C108.576 321.995 108.533 322.074 108.489 322.156ZM147.461 242.437C147.286 243.017 146.963 243.814 146.656 244.583C146.777 244.535 146.786 244.782 147.085 244.26C147.089 244.262 147.092 244.263 147.096 244.265C147.096 244.263 147.097 244.262 147.098 244.261C147.099 244.258 147.1 244.255 147.101 244.252C147.689 242.782 148.232 241.855 148.783 240.842C148.838 240.666 148.893 240.489 148.948 240.314C149.17 238.978 148.059 241.434 147.461 242.437ZM135.054 320.939C135.049 320.924 135.056 320.898 135.061 320.873C134.877 321.057 134.691 321.239 134.503 321.421C134.687 321.261 134.872 321.1 135.054 320.939ZM147.101 244.252C147.099 244.256 147.097 244.26 147.096 244.265C147.1 244.25 147.104 244.235 147.109 244.22C147.107 244.228 147.102 244.243 147.101 244.252ZM107.685 334.67C107.539 334.123 107.497 333.05 107.66 331.879C107.463 332.984 107.482 334.049 107.685 334.67ZM107.83 330.759C107.808 330.897 107.787 331.036 107.768 331.17C107.779 331.102 107.793 331.032 107.805 330.964C107.812 330.896 107.82 330.828 107.83 330.759ZM143.094 252.716C142.844 253.478 142.471 254.442 142.152 255.314C142.683 254.112 142.98 253.245 143.207 252.478C143.169 252.558 143.131 252.636 143.094 252.716ZM108.315 328.925C108.093 329.467 107.97 329.967 107.888 330.413C107.974 329.968 108.119 329.463 108.315 328.925ZM109.243 336.141C109.819 336.159 110.708 336.253 111.972 336.275C112.052 336.277 112.135 336.277 112.217 336.278C111.921 336.269 111.66 336.248 111.372 336.211C110.1 336.085 108.417 335.827 108.028 335.329C108.032 335.334 108.037 335.339 108.042 335.345C108.275 335.661 108.893 335.922 109.243 336.141ZM125.625 287.468C124.723 289.652 125.161 289.354 125.405 289.306C125.642 289.247 126.169 288.586 127.03 286.844C127.608 285.677 128.232 284.278 128.785 283.366C129.298 282.627 129.658 282.266 129.758 282.52C129.751 282.548 129.743 282.574 129.736 282.601C131.641 279.145 132.415 276.281 133.737 273.078C135.272 269.012 135.285 268.879 133.52 271.809C132.734 273.11 132.308 273.463 131.851 273.911C131.835 273.949 131.82 273.987 131.805 274.025C131.478 274.756 131.287 275.365 130.988 276.074C130.765 276.538 130.548 277.001 130.334 277.459C130.155 278.191 130.171 278.511 130.937 277.286C131.664 276.117 131.441 276.911 130.646 278.691C129.396 281.481 127.99 284.259 126.844 286.447C125.829 288.383 125.993 287.449 126.416 286.064C126.125 286.617 125.833 287.171 125.625 287.468ZM121.119 205.732C121.862 205.961 122.526 206.166 123.258 206.387C122.485 206.131 121.815 205.923 121.119 205.732ZM143.347 250.753C143.248 251.072 143.141 251.399 142.997 251.778C143.016 251.741 143.037 251.701 143.056 251.664C143.25 251.392 143.376 251.291 143.412 251.409C143.412 251.433 143.407 251.465 143.405 251.491C143.514 251.272 143.624 251.051 143.733 250.831C143.772 250.721 143.817 250.603 143.867 250.477C143.62 250.746 143.463 250.799 143.347 250.753ZM106.348 201.982C107.237 202.023 108.261 202.119 109.371 202.252C108.948 202.089 108.568 201.919 108.253 201.748C107.817 201.51 107.313 201.314 106.775 201.136C107.513 201.437 107.866 201.665 107.79 201.802C107.609 202.049 106.618 201.949 104.219 201.211C104.765 201.47 105.527 201.736 106.354 202.007C106.352 201.999 106.345 201.989 106.348 201.982ZM252.601 318.91C252.769 319.077 252.918 319.223 253.077 319.38C252.954 319.241 252.842 319.114 252.722 318.975C252.68 318.951 252.644 318.935 252.601 318.91ZM108.708 324.313C108.718 324.346 108.724 324.392 108.723 324.46C108.725 325.069 108.04 327.351 107.551 329.463C108.068 327.594 108.636 325.728 109.187 323.724C108.994 324.082 108.84 324.263 108.717 324.307C108.714 324.308 108.711 324.312 108.708 324.313ZM148.03 309.619C148.029 309.611 148.03 309.6 148.032 309.589C147.999 309.621 147.967 309.653 147.935 309.685C147.97 309.66 147.998 309.641 148.03 309.619ZM149.229 237.01C149.007 237.557 148.793 238.084 148.563 238.64C148.827 238.042 149.078 237.473 149.322 236.896C149.486 236.568 149.649 236.239 149.81 235.911C149.625 236.206 149.43 236.585 149.229 237.01ZM151.636 231.204C151.57 231.381 151.502 231.557 151.432 231.732C151.437 231.723 151.442 231.717 151.447 231.708C151.551 231.463 151.656 231.218 151.763 230.973C151.724 231.039 151.687 231.102 151.65 231.16C151.644 231.175 151.641 231.188 151.636 231.204ZM132.622 210.718C133.065 210.816 133.639 210.981 134.347 211.218C134.755 211.392 135.129 211.546 135.482 211.684C136.121 211.782 137.077 212.093 138.131 212.479C138.248 212.494 138.356 212.502 138.452 212.503C137.991 212.354 137.524 212.21 137.057 212.049C135.941 211.665 134.7 211.216 134.09 210.819C134.01 210.768 133.958 210.729 133.931 210.701C132.663 210.358 132.572 210.511 132.622 210.718ZM138.629 260.741C138.5 261.054 138.369 261.369 138.232 261.688C138.228 261.696 138.223 261.705 138.219 261.713C138.386 261.408 138.565 261.055 138.758 260.656C138.718 260.677 138.677 260.701 138.629 260.741ZM153.882 225.078C153.56 225.78 153.241 226.619 152.911 227.413C152.615 228.123 152.315 228.878 152.012 229.57C151.988 229.688 151.97 229.795 151.955 229.896C152.53 228.734 153.097 227.53 153.621 226.198C153.634 225.984 153.631 225.796 153.824 225.246C153.842 225.191 153.863 225.134 153.882 225.078ZM142.941 315.472C143.345 315.067 143.757 314.646 144.118 314.237C143.728 314.656 143.331 315.071 142.941 315.472ZM95.6732 199.351C98.3109 200.052 101.14 200.907 103.788 201.817C103.796 201.804 103.807 201.79 103.847 201.784C104.155 201.752 104.968 201.965 105.914 202.246C106.362 202.381 108.231 203.16 107.022 202.477C107.007 202.468 106.993 202.459 106.978 202.45C106.11 202.179 105.212 201.857 104.355 201.587C103.012 201.17 101.438 200.852 100.432 200.308C99.6711 199.902 100.796 200.172 101.53 200.296C99.7246 199.615 98.0538 199.092 96.5512 198.773C96.6845 198.825 96.8013 198.874 96.8878 198.918C97.5395 199.266 96.8183 199.416 95.6732 199.351ZM157.348 301.131C157.819 300.583 158.293 300.054 158.809 299.483C158.413 299.866 158.049 300.212 157.759 300.436C157.6 300.693 157.377 300.981 157.098 301.299C157.172 301.245 157.247 301.189 157.317 301.14C157.326 301.139 157.339 301.133 157.348 301.131ZM149.395 309.694C149.852 309.121 150.186 308.654 150.5 308.21C150.396 308.297 150.291 308.38 150.188 308.456C150.038 308.75 149.601 309.321 149.395 309.694ZM120.455 207.443C121.313 207.665 122.107 207.868 123.037 208.143C122.447 207.864 122.055 207.641 122.08 207.538C121.711 207.567 121.101 207.51 120.455 207.443ZM170.723 153.72C170.714 153.751 170.705 153.782 170.696 153.813C170.703 153.783 170.711 153.753 170.718 153.723C170.72 153.722 170.722 153.721 170.723 153.72ZM120.546 335.758C120.981 335.436 121.372 335.127 121.972 334.735C122.102 334.666 122.242 334.584 122.388 334.495C122.261 334.569 122.137 334.639 122.011 334.71C122.033 334.695 122.057 334.679 122.08 334.664C120.976 335.269 119.907 335.764 120.057 335.41C119.516 335.872 118.771 336.398 119.537 336.197C119.869 336.072 120.208 335.923 120.546 335.758ZM134.911 324.726C134.367 325.057 133.938 325.263 133.454 325.525C133.495 325.572 133.411 325.722 133.107 326.052C133.697 325.649 134.265 325.247 134.911 324.726ZM158.29 301.21C158.46 301.019 158.624 300.842 158.787 300.674C158.722 300.692 158.636 300.733 158.567 300.754C158.444 300.89 158.325 301.012 158.207 301.126C158.236 301.152 158.268 301.175 158.29 301.21ZM99.9132 174.92C96.4268 177.485 101.494 174.487 102.557 174.198C102.571 174.191 102.585 174.185 102.598 174.178C100.747 175.099 99.2632 175.983 98.306 176.774C97.8562 177.042 97.3856 177.328 96.958 177.596C96.0333 178.174 95.0968 178.742 94.1472 179.31C92.8402 179.448 93.0464 179.173 96.5623 176.929C97.422 176.372 98.5641 175.681 99.9132 174.92ZM249.641 318.759C249.855 318.946 250.037 319.104 250.261 319.307C250.059 319.074 249.888 318.875 249.675 318.629C249.694 318.703 249.673 318.736 249.641 318.759ZM106.878 324.921C106.877 325.039 106.93 325.035 106.945 325.12C106.982 324.98 107.022 324.834 107.061 324.692C107.009 324.741 106.96 324.78 106.878 324.921ZM180.468 275.748C180.459 275.758 180.452 275.764 180.442 275.774C180.451 275.765 180.458 275.76 180.466 275.752C180.467 275.751 180.467 275.749 180.468 275.748ZM107.955 171.543C109.577 170.821 110.297 170.7 111.131 170.503C111.145 170.497 111.159 170.491 111.173 170.485C108.303 171.887 105.821 172.859 103.446 173.76C104.726 172.966 106.583 172.286 107.955 171.543ZM103.871 202.809C104.632 202.997 105.452 203.217 106.203 203.401C105.229 203.107 104.282 202.826 103.871 202.809ZM119.505 296.094C119.762 295.738 119.981 295.485 120.104 295.479C120.097 295.492 120.091 295.506 120.084 295.52C119.897 295.976 119.725 296.398 119.535 296.857C119.539 296.939 119.501 297.105 119.388 297.421C119.292 297.693 119.168 297.99 119.028 298.311C119.663 297.778 120.812 294.554 121.525 293.508C121.538 293.664 121.472 293.955 121.372 294.301C121.859 293.037 122.075 292.116 122.626 290.76C122.96 289.952 123.281 289.225 123.64 288.493C123.552 288.563 123.506 288.539 123.5 288.428C123.45 288.265 123.257 288.412 123.206 288.252C122.083 290.908 120.825 293.518 119.505 296.094ZM126.033 333.509C126.016 333.522 125.998 333.534 125.981 333.547C125.984 333.545 125.986 333.544 125.989 333.543C126.004 333.531 126.019 333.52 126.033 333.509ZM72.2841 193.358C72.575 193.636 72.7693 193.726 73.0275 193.845C73.2286 193.929 73.4301 193.99 73.6473 194.042C73.8131 194.074 74.0407 194.126 74.2646 194.18C74.4567 194.224 74.6743 194.277 74.9222 194.343C74.727 194.265 74.521 194.189 74.3285 194.119C74.1276 194.047 73.8618 193.957 73.6911 193.897C73.4991 193.834 73.3217 193.761 73.1596 193.678C73.138 193.718 73.0557 193.731 72.9078 193.695C72.7517 193.647 72.5928 193.619 72.2841 193.358ZM115.406 302.231C115.415 302.303 115.385 302.444 115.355 302.584C114.946 303.917 114.324 305.319 113.532 306.754C113.933 306.286 114.11 306.292 114.217 306.45C114.271 306.086 114.402 305.576 114.566 304.993C114.798 304.146 115.392 302.7 115.505 302.03C115.472 302.098 115.439 302.165 115.406 302.231ZM143.126 242.346C143.099 242.468 143.081 242.58 143.079 242.675C143.136 242.53 143.193 242.389 143.248 242.253C143.203 242.296 143.161 242.329 143.126 242.346ZM178.028 281.664C177.992 281.706 177.958 281.745 177.923 281.786C177.916 281.799 177.912 281.811 177.905 281.825C177.946 281.772 177.987 281.718 178.028 281.664ZM109.921 168.869C110.367 168.452 111.667 168.006 112.776 167.582C113.62 167.276 114.738 166.861 114.445 167.156C114.195 167.428 113.197 167.854 112.061 168.328C112.062 168.33 112.063 168.332 112.064 168.334C111.028 168.67 109.485 169.292 109.921 168.869ZM141.001 158.738C141.523 158.654 142.043 158.575 142.528 158.514C142.528 158.51 142.527 158.506 142.527 158.503C144.981 158.211 147.426 158.028 149.953 158.099C149.953 158.099 149.953 158.099 149.953 158.099C149.953 158.134 149.853 158.169 149.853 158.209C144.959 158.199 140.245 159.008 135.626 160.022C137.196 159.403 139.199 159.088 141.001 158.738ZM124.783 280.804C124.561 281.399 124.325 281.935 124.046 282.521C124.799 281.352 125.298 280.886 125.974 279.923C125.989 279.909 126.006 279.892 126.022 279.878C126.146 279.638 126.26 279.441 126.377 279.248C125.803 279.875 125.302 280.315 124.783 280.804ZM149.586 225.236C148.829 227.12 147.847 229.128 147.187 230.923C147.09 231.374 147.13 231.505 147.257 231.405C147.566 230.897 147.945 230.13 148.39 229.127C148.443 228.852 148.444 228.641 148.532 228.327C148.71 227.539 149.146 226.393 149.586 225.236ZM112.694 340.971C112.598 340.955 112.531 340.935 112.505 340.91C112.505 340.909 112.509 340.908 112.51 340.907C112.109 340.942 111.767 340.964 111.364 340.974C111.779 340.991 112.113 340.999 112.428 341.007C112.502 340.995 112.59 340.983 112.694 340.971ZM110.924 167.701C114.841 165.963 118.879 164.388 122.958 163.224C124.331 162.83 125.588 162.377 126.844 161.924C127.513 162.319 123.565 163.393 122.151 163.808C118.812 164.759 116.222 165.856 113.458 167.121C111.394 167.935 112.021 167.379 110.924 167.701ZM99.5209 203.797C99.6861 203.821 99.8879 203.86 100.001 203.862C99.7888 203.818 99.596 203.783 99.4061 203.749C99.4452 203.764 99.4858 203.78 99.5209 203.797ZM152.025 223.493C152.253 223.561 152.496 223.638 152.76 223.728L151.161 219.635C150.948 220.289 150.669 221.058 150.288 222C150.094 222.513 149.871 223.054 149.662 223.58C150.221 222.569 150.486 222.314 150.313 223.182C150.252 223.393 150.181 223.613 150.108 223.831C150.148 223.72 150.191 223.605 150.228 223.497C150.545 222.343 150.967 221.012 151.364 219.722L152.85 223.526C152.477 223.406 152.112 223.29 151.756 223.181C151.55 223.102 151.355 223.032 151.162 222.962C151.398 223.133 151.69 223.311 152.025 223.493ZM79.9161 183.752C79.606 183.97 79.2525 184.21 78.904 184.446C79.309 184.213 79.7311 183.967 80.1311 183.732C79.9915 183.776 79.9233 183.781 79.9161 183.752ZM142.552 238.51C142.015 240.316 140.968 242.744 140.292 244.575C140.908 243.242 141.593 240.905 142.489 239.667C142.534 239.543 142.585 239.412 142.642 239.273C142.594 239.338 142.545 239.402 142.498 239.454C142.5 239.167 142.495 238.89 142.552 238.51ZM147.666 222.571C148.121 222.632 148.617 222.714 149.209 222.848C149.411 222.89 149.603 222.928 149.797 222.966C149.858 222.84 150.038 222.758 149.334 222.346C149.139 222.285 148.941 222.223 148.746 222.163C147.873 222.051 146.408 221.643 145.622 221.585C146.119 221.794 146.64 222.029 147.177 222.289C147.338 222.383 147.503 222.478 147.666 222.571ZM110.245 307.394C110.228 307.416 110.21 307.439 110.193 307.461C109.573 308.292 108.717 309.855 108.153 311.276C107.903 311.907 107.616 312.546 107.29 313.249C107.924 313.43 107.744 313.802 105.776 318.437C105.698 318.625 105.631 318.79 105.575 318.937C107.461 314.924 108.335 312.371 109.635 309.314C109.645 309.103 110.127 308.126 110.368 307.554C110.521 307.184 110.559 307 110.245 307.394ZM119.99 288.178C120.254 287.815 120.48 287.554 120.625 287.519C120.726 287.179 120.799 286.909 120.865 286.66C120.572 287.17 120.28 287.674 119.99 288.178ZM143.951 234.599C144.109 234.335 144.265 234.057 144.418 233.77C144.428 233.735 144.437 233.702 144.447 233.668C144.28 233.972 144.113 234.284 143.951 234.599ZM143.923 234.656C143.475 235.534 143.076 236.44 142.869 237.27C143.08 236.635 143.411 235.795 143.923 234.656ZM143.2 323.584C142.817 323.775 143.093 323.298 142.448 323.743C141.619 324.734 142.87 323.704 143.028 323.728C143.048 323.715 143.07 323.7 143.091 323.686C143.126 323.653 143.162 323.619 143.2 323.584ZM128.129 269.421C127.71 270.1 127.286 270.81 126.862 271.86C126.879 271.835 126.898 271.807 126.914 271.788C127.004 271.681 127.018 271.734 126.985 271.88C127.238 271.403 127.445 271.062 127.613 270.842C127.686 270.497 127.857 270.03 128.129 269.421ZM145.18 229.799C145.192 229.782 145.2 229.775 145.21 229.762C145.205 229.759 145.199 229.757 145.194 229.755C145.189 229.77 145.185 229.783 145.18 229.799ZM236.302 307.361C236.3 307.357 236.297 307.353 236.295 307.349C236.296 307.352 236.298 307.355 236.299 307.358C236.3 307.359 236.301 307.36 236.302 307.361ZM145.203 229.729C145.368 229.327 145.535 228.922 145.703 228.516C145.61 228.701 145.517 228.882 145.425 229.061C145.352 229.282 145.275 229.508 145.203 229.729ZM259.296 335.456C259.662 335.758 260.04 336.079 260.402 336.397C260.033 335.981 259.718 335.6 259.922 335.625C259.937 335.631 259.953 335.639 259.967 335.645C259.873 335.553 259.78 335.462 259.686 335.371C259.088 335.111 257.793 334.019 256.677 333.092C256.411 332.866 256.158 332.635 255.913 332.403C255.906 332.403 255.899 332.404 255.892 332.404C256.079 332.584 256.271 332.764 256.478 332.947C257.028 333.463 257.6 333.987 258.115 334.476C258.504 334.803 258.899 335.13 259.296 335.456ZM121.19 282.834C120.911 283.532 120.643 284.256 120.415 284.954C120.314 285.265 120.178 285.622 120.021 286C120.202 285.683 120.367 285.406 120.505 285.21C120.684 284.492 120.901 283.707 121.19 282.834ZM129.113 265.065C129.821 263.658 130.533 262.008 131.247 260.542C131.508 260.099 131.746 259.712 131.964 259.371C132.104 259.049 132.247 258.723 132.392 258.393C132.2 258.55 132.234 258.275 132.369 257.803C131.322 260.29 130.257 262.701 129.113 265.065ZM138.088 243.249C138.368 242.906 138.602 242.666 138.307 243.606C137.892 244.921 137.251 245.801 136.707 246.99C136.732 246.928 136.754 246.868 136.777 246.809C136.752 246.868 136.726 246.928 136.701 246.988C136.703 246.988 136.705 246.989 136.707 246.99C135.282 250.067 134.901 251.467 135.133 251.885C135.13 251.896 135.126 251.91 135.123 251.921C135.128 251.91 135.134 251.899 135.139 251.888C135.137 251.886 135.134 251.887 135.133 251.885C136.124 249.895 137.024 247.791 137.941 245.701C137.947 245.691 137.953 245.68 137.96 245.67C138.136 245.251 138.31 244.825 138.506 244.361C138.598 244.108 138.689 243.855 138.781 243.601C140.037 240.193 141.709 236.556 143.208 233.057C142.83 233.55 142.391 234.233 141.827 235.639C140.41 239.165 139.232 241.348 138.088 243.249ZM102.505 321.93C102.629 321.734 102.747 321.558 102.861 321.396C102.783 321.446 102.666 321.616 102.505 321.93ZM218.011 278.489C218.007 278.441 218.013 278.4 218.037 278.377C218.076 278.353 218.166 278.398 218.023 278.11C217.494 277.267 217.138 276.89 216.766 276.46C217.169 277.132 217.587 277.828 218.011 278.489ZM110.461 304.95C110.033 305.536 109.634 306.17 109.208 306.942C108.942 307.426 108.661 307.972 108.353 308.608C108.371 308.577 108.39 308.544 108.408 308.513C108.715 308.069 109.034 307.567 109.362 307.024C109.435 306.905 109.509 306.782 109.584 306.656C109.879 306.091 110.17 305.524 110.461 304.95ZM148.306 321.278C149.124 320.535 149.905 319.75 150.686 318.95C149.901 319.646 149.233 320.19 149.333 319.824C149.449 319.33 150.898 317.944 152.048 316.742C153.023 315.73 154.083 314.652 154.745 313.784C154.055 314.45 153.355 315.12 152.662 315.774C152.657 315.78 152.649 315.789 152.644 315.795C152.208 316.206 151.737 316.641 151.298 317.05C151.285 317.065 151.271 317.08 151.258 317.095C150.74 317.913 149.442 319.265 148.44 320.397C148.908 320.223 149 320.394 148.306 321.278ZM206.244 262.586C206.575 262.964 206.842 263.28 207.146 263.655C206.968 263.404 206.753 263.123 206.544 262.852C206.448 262.771 206.349 262.683 206.244 262.586ZM202.908 259.394C202.744 259.3 203.004 259.422 203.299 259.655C203.586 259.873 203.94 260.181 204.311 260.537C204.061 260.218 203.655 259.831 203.388 259.587C203.306 259.561 203.214 259.524 203.111 259.476C202.935 259.354 202.782 259.305 202.908 259.394ZM194.158 269.3C194.054 269.363 193.972 269.403 193.946 269.381C194.338 268.645 195.155 267.647 196.073 266.627C195.649 267.061 195.232 267.467 194.839 267.788C194.862 267.87 194.691 268.153 194.362 268.612C193.844 269.336 193.581 269.801 194.059 269.469C194.09 269.414 194.126 269.355 194.158 269.3ZM187.974 276.245C187.928 276.303 187.878 276.365 187.831 276.425C187.847 276.423 187.858 276.428 187.866 276.436C187.902 276.372 187.941 276.305 187.974 276.245ZM103.632 316.68C103.686 316.705 103.732 316.747 103.759 316.828C103.779 316.787 103.798 316.751 103.816 316.714C103.747 316.722 103.689 316.706 103.632 316.68ZM141.479 222.627C141.494 222.635 141.508 222.643 141.523 222.651C140.258 221.981 138.402 221.316 136.988 220.66C138.258 220.68 141.286 222.131 143.174 222.743C143.334 223.203 144.889 224.003 147.377 225.093C148.705 225.677 150.028 226.277 151.349 226.885L147.983 218.271C147.59 219.159 147.2 220.04 146.814 220.915C146.63 221.345 146.299 222.114 146.392 221.65C146.423 221.461 146.718 220.774 146.9 220.291C147.21 219.6 147.521 218.906 147.834 218.207L151.283 227.032C148.027 225.514 144.759 224.042 141.479 222.627ZM166.306 302.72C166.679 302.151 166.826 301.813 166.643 301.814C166.585 301.899 166.509 301.995 166.414 302.105C166.689 301.981 166.557 302.287 166.306 302.72ZM137.439 243.716C137.397 243.865 137.372 243.988 137.361 244.098C137.365 244.089 137.368 244.081 137.371 244.072C137.374 243.993 137.395 243.879 137.439 243.716ZM130.684 337.574C130.376 337.618 130.693 337.21 131.072 336.749C129.828 337.614 128.603 338.358 127.548 339.32C129.101 338.305 129.561 338.251 130.684 337.574ZM185.613 280.442C185.846 280.064 186.113 279.654 186.429 279.2C186.302 279.329 186.206 279.419 186.136 279.474C185.962 279.795 185.794 280.112 185.613 280.442ZM300.175 151.177C300.056 151.174 299.937 151.171 299.818 151.168C299.881 151.176 299.94 151.184 300.003 151.192C300.077 151.188 300.155 151.184 300.226 151.179C300.237 151.179 300.247 151.179 300.258 151.179C300.232 151.175 300.201 151.171 300.175 151.166C300.175 151.17 300.175 151.174 300.175 151.177ZM115.584 290.059C115.98 288.966 116.323 287.665 117.084 286.856C117.092 286.843 117.1 286.83 117.108 286.817C116.187 288.947 117.6 286.564 116.967 288.138C116.407 289.621 115.711 291.165 115.109 291.933C114.499 292.729 115.25 290.995 115.584 290.059ZM285.028 201.686C285.013 201.7 284.995 201.715 284.979 201.729C284.982 201.728 284.986 201.726 284.989 201.725C285.001 201.713 285.015 201.699 285.028 201.686ZM105.892 310.064C106.523 308.57 107.214 307.363 107.85 306.227C108.121 305.746 108.414 305.207 108.644 304.726C108.446 305.225 108.204 305.785 107.968 306.289C107.429 307.424 106.786 308.623 105.892 310.064ZM190.932 274.651C190.905 274.732 190.959 274.673 191.048 274.517C191.01 274.562 190.971 274.606 190.932 274.651ZM239.776 318.608C239.756 318.571 239.744 318.546 239.73 318.518C239.696 318.47 239.663 318.423 239.628 318.374C239.639 318.392 239.646 318.407 239.655 318.423C239.696 318.485 239.732 318.541 239.776 318.608ZM232.722 307.338C232.733 307.358 232.746 307.379 232.758 307.398C232.747 307.384 232.737 307.371 232.726 307.357C232.725 307.351 232.723 307.344 232.722 307.338ZM197.303 268.26C197.075 268.498 196.842 268.747 196.613 268.989C196.797 268.798 196.981 268.605 197.16 268.417C197.208 268.364 197.255 268.312 197.303 268.26ZM201.423 264.288C201.439 264.273 201.455 264.258 201.47 264.243C201.493 264.228 201.515 264.214 201.538 264.199C201.5 264.227 201.461 264.259 201.423 264.288Z" fill="#EF5DA8"/>
</svg>
