<svg width="510" height="511" viewBox="0 0 510 511" fill="none" xmlns="http://www.w3.org/2000/svg">
<path d="M114.062 223.266C122.229 213.313 160.397 200.16 201.695 208.392C242.993 216.623 271.487 226.968 304.856 254.349C327.102 272.602 343.441 298.905 353.872 333.257" stroke="#EF5DA8" stroke-width="16" stroke-linecap="round" stroke-linejoin="round" stroke-dasharray="16 32"/>
<path d="M351.379 339.521C348.855 338.012 345.928 342.249 342.865 341.062C339.802 339.886 339.697 337.335 335.95 337.377C332.236 337.429 328.761 335.376 327.034 336.266C325.348 337.161 325.388 334.048 323.018 334.604C320.664 335.175 319.306 334.735 317.274 333.718C315.267 332.649 308.834 332.096 306.736 333.665C304.671 335.153 301.845 333.488 300.16 333.359C299.647 333.314 299.22 333.195 298.877 333.049C298.731 332.987 298.625 332.808 298.575 332.616C298.575 332.616 298.575 332.616 298.575 332.616C298.514 332.377 298.543 332.12 298.696 332.049C299.436 331.707 300.519 331.044 301.776 329.9C304.178 327.788 304.758 329.535 308.289 328.313C311.84 327.147 314.084 325.341 318.418 326.479C322.657 327.679 323.96 323.071 329.833 326.219C335.564 329.448 336.738 324.739 342.86 325.018C345.613 325.157 348.504 326.056 351.174 327.027C352.462 327.502 353.753 328.004 354.813 328.394C355.318 328.585 355.819 328.755 356.165 328.869C356.314 328.925 356.455 328.964 356.38 328.992C356.355 329.008 356.238 329.012 355.898 329.069C355.812 329.084 355.713 329.103 355.595 329.13C355.534 329.145 355.483 329.157 355.396 329.18C355.28 329.21 355.149 329.248 355 329.299C354.429 329.51 353.428 329.874 352.358 331.144C351.872 331.784 351.987 331.698 351.961 331.728C351.963 331.733 351.995 331.681 352.017 331.642C352.069 331.55 352.139 331.407 352.188 331.286C353.426 328.318 354.92 323.68 357.563 319.427C360.216 315.142 361.272 308.869 364.582 304.273C367.874 299.719 372.38 293.157 374.73 290.253C377.083 287.342 377.634 286.638 378.516 283.207C379.011 281.26 380.424 278.867 382.509 277.243C383.563 276.415 384.251 277.017 384.15 278.273C384.004 280.106 383.069 281.206 383.697 282.478C384.968 284.987 385.43 286.008 383.357 287.545C381.299 289.047 383.484 291.23 382.662 292.26C381.82 293.334 380.285 292.602 378.77 299.213C377.262 305.804 376.08 309.254 375.331 311.691C374.587 314.116 371.075 318.324 369.876 322.256C368.645 326.252 364.823 333.51 363.913 337.244C363.856 337.477 363.763 337.754 363.667 338.001C363.63 338.105 363.532 338.312 363.448 338.478C363.37 338.618 363.254 338.907 362.692 339.623C361.082 341.494 359.699 341.841 358.882 342.114C358.779 342.144 358.662 342.174 358.587 342.193C358.53 342.207 358.474 342.22 358.419 342.232C358.311 342.257 358.209 342.277 358.112 342.295C357.918 342.331 357.746 342.356 357.588 342.374C357.273 342.411 357.015 342.425 356.785 342.43C356.561 342.434 356.463 342.429 356.32 342.422C355.793 342.392 355.38 342.31 355.134 342.223C354.86 342.133 354.599 342.019 354.386 341.895C354.196 341.774 354.016 341.638 353.835 341.492C353.103 340.905 352.533 340.186 351.379 339.521Z" fill="#EF5DA8"/>
</svg>
