<svg width="400" height="400" viewBox="0 0 400 400" fill="none" xmlns="http://www.w3.org/2000/svg">
<path d="M259.89 304.209C259.222 303.221 258.684 303.118 258.126 301.848C258.132 301.857 258.137 301.866 258.143 301.874C258.62 302.208 259.391 303.361 259.962 303.912C260.563 304.692 260.902 304.665 261.566 305.536C261.667 306.457 261.566 306.585 259.89 304.209ZM283.987 234.999C284.058 237.279 283.97 239.535 283.986 241.785C284.004 245.597 284.141 249.44 284.463 253.151C284.542 254.065 284.637 255.02 284.742 255.936C284.795 256.397 284.851 256.854 284.91 257.308C284.939 257.535 284.969 257.762 285.001 257.987C285.023 258.151 285.013 258.085 285.015 258.098C285.014 258.098 285.014 258.098 285.014 258.098C285.006 258.099 285 258.1 284.994 258.101L286.31 263.221C286.533 263.908 286.53 264.162 286.51 264.409C286.512 264.418 286.514 264.427 286.516 264.436C287.236 266.054 287.985 267.682 288.105 269.208C288.183 270.098 288.619 270.937 288.936 271.275C289.357 271.746 289.776 272.65 290.221 273.927C293.145 283.745 299.327 294.707 293.561 309.611C293.548 309.638 293.535 309.663 293.522 309.689C293.528 309.679 293.534 309.669 293.54 309.658C291.543 314.212 287.811 317.965 283.933 320.235C281.984 321.401 280.02 322.418 277.841 323.286C276.625 323.769 275.336 324.22 274.069 324.49C273.877 324.529 273.686 324.566 273.495 324.602C269.443 325.586 264.3 325.53 259.898 323.644C259.606 323.527 259.317 323.403 259.032 323.275C247.59 317.233 244.766 308.104 240.654 301.32C241.087 301.71 241.634 302.641 242.111 303.557C244.35 307.805 246.882 312.292 250.876 316.694C251.95 317.51 253.326 319.032 254.927 320.227C257.05 321.825 259.154 322.743 261.944 323.644C262.088 323.695 262.238 323.744 262.381 323.789C262.932 323.859 263.874 324.036 264.781 324.1C266.73 324.31 269.801 324.085 269.697 323.692C269.409 323.466 270.19 323.274 271.92 322.877C271.968 322.865 272.012 322.854 272.058 322.842C270.149 323.319 267.908 323.598 265.474 323.215C265.421 323.28 265.24 323.321 264.795 323.291C265.337 323.48 265.188 323.586 265.208 323.713C264.566 324.035 263.861 324.633 258.57 322.287C256.706 321.241 255.138 319.975 253.554 318.692C252.441 317.779 251.987 317.112 251.352 316.326C249.746 314.688 248.598 312.902 247.43 311.2C246.896 310.419 247.232 310.716 247.507 311.004C247.192 310.077 246.27 308.446 245.75 307.215C243.418 305.075 241.442 300.354 239.431 297.09C238.557 295.996 238.223 295.107 237.88 294.304C237.343 293.059 236.834 292.305 235.843 291.428C234.786 290.493 233.546 289.333 232.399 288.562C232.531 288.738 232.683 288.938 232.624 289.01C232.611 289.002 232.599 288.995 232.587 288.987C232.542 289.042 232.496 289.097 232.451 289.151C231.288 288.351 230.481 287.88 229.608 287.648C229.99 287.715 230.643 287.732 231.3 287.542C231.947 287.364 232.423 287.038 232.611 286.887C232.992 286.554 232.677 286.803 232.405 287.377C232.241 287.887 231.957 288.42 231.818 288.285C231.579 288.124 231.903 287.175 232.253 286.676C232.025 286.774 231.792 286.733 231.314 287.68C231.198 287.915 231.103 288.072 231.02 288.171C231.022 288.6 231.061 288.99 231.17 289.215C231.418 289.67 231.252 290.494 230.513 292.53C230.203 293.383 229.971 294.63 229.593 295.288C229.59 295.299 229.587 295.31 229.585 295.32C228.664 298.483 227.759 301.808 226.624 305.102C226.069 306.718 225.543 308.724 224.786 310.58C224.334 310.666 223.747 312.086 222.646 314.398C221.527 316.675 220.977 317.065 221.17 316.053C221.345 314.8 221.586 313.622 222.909 310.169C223.292 309.143 223.243 308.666 223.425 307.831C222.266 311.573 220.72 315.27 219.64 318.039C219.438 318.585 218.88 319.394 218.288 320.089C217.446 321.05 217.686 320.536 217.711 320.326C217.728 320.112 218.13 319.492 218.627 318.608C216.225 321.6 213.733 324.269 210.188 325.81C210.188 325.811 210.188 325.811 210.188 325.812C210.185 325.812 210.182 325.813 210.179 325.814C210.174 325.816 210.17 325.818 210.165 325.82C210.508 325.753 210.809 325.691 211.159 325.604C212.283 325.328 212.655 325.268 212.198 325.658C211.735 326.017 210.399 326.884 207.853 327.503C209.299 327.176 210.323 326.876 210.18 327.144C210.056 327.425 208.274 328.011 206.924 328.127C203.27 328.542 199.404 327.868 196.845 326.725C196.705 326.669 196.566 326.611 196.43 326.55C194.928 325.943 193.525 324.991 192.418 323.833C193.599 324.88 195.23 325.884 196.952 326.409C197.578 326.599 198.206 326.768 198.819 326.906C199.501 327.062 200.497 327.227 200.116 327.006C199.89 326.875 199.209 326.662 198.638 326.554C198.085 326.457 197.553 326.32 197.035 326.154C193.664 325.109 191.469 322.171 190.296 319.751C189.696 318.545 189.563 317.785 190.113 318.813C191.354 320.853 190.226 318.424 189.929 317.304C189.106 314.577 189.006 312.36 188.845 310.157C189.266 313.342 189.79 315.561 191.526 319.433C191.605 319.681 191.699 319.938 191.813 320.207C192.361 321.159 193.098 322.147 194.045 322.932C193.15 321.851 192.938 321.211 192.977 321.06C192.964 321.055 192.947 321.043 192.936 321.038C192.327 320.862 190.714 318.142 190.226 316.03C190.151 315.713 190.085 315.407 190.022 315.093C189.765 314.266 189.555 313.468 189.373 312.714C189.306 311.203 188.946 309.716 188.889 307.903C189.158 309.48 189.402 309.667 189.633 309.857C189.635 309.846 189.636 309.832 189.638 309.821C189.661 308.571 189.579 307.378 189.32 306.211C189.319 306.189 189.318 306.166 189.317 306.144C189.311 306.155 189.306 306.169 189.3 306.179C189.303 306.19 189.306 306.201 189.309 306.212C188.752 305.228 188.16 301.679 188.167 299.849C188.196 297.722 187.495 296.234 186.722 294.888C187.436 296.361 187.029 296.815 187.658 298.952C187.215 298 186.876 296.895 186.457 295.991C186.231 295.443 185.982 294.959 185.716 294.546C185.594 293.74 184.571 292.999 184.033 292.489C184.993 292.849 185.307 292.571 186.204 293.284C186.212 293.287 186.222 293.295 186.23 293.298C186.205 293.267 186.181 293.236 186.155 293.206C185.449 292.174 184.449 291.47 183.074 291.077C182.874 291.025 182.831 291.037 182.728 291.059C182.632 291.082 182.43 291.167 182.168 291.364C182.172 291.092 182.355 290.819 182.525 290.676C182.715 290.53 182.858 290.458 183.23 290.53C183.958 290.709 184.623 290.989 185.221 291.33C184.647 290.923 184.016 290.61 183.277 290.365C183.041 290.282 182.885 290.254 182.703 290.254C182.581 290.322 182.437 290.32 182.258 290.363C182.082 290.402 181.851 290.508 181.712 290.705C180.781 291.548 179.831 293.141 179.047 294.822C179.064 294.799 179.084 294.771 179.102 294.745C177.859 296.942 177.175 299.512 175.719 301.947C175.462 302.381 175.031 303.703 174.668 304.663C174.615 304.717 174.549 304.803 174.522 304.792C174.305 304.849 175.283 302.585 174.69 303.429C174.132 304.217 173.924 305.256 173.633 306.194C173.41 306.901 173.117 307.687 172.897 308.396C172.627 309.275 172.392 310.251 171.93 310.788C171.469 311.324 172.523 309.195 172.2 309.217C171.119 311.846 169.99 314.497 168.692 317.114C169.002 315.243 170.417 312.414 171.547 309.864C172.005 308.833 172.365 308.024 172.754 306.938C173.691 304.324 173.789 303.486 172.868 304.608C172.595 304.946 172.773 304.458 172.816 304.215C172.877 303.788 173.101 303.342 173.286 303.117C173.606 302.714 173.965 302.065 174.121 301.359C174.348 300.352 173.721 301.809 173.496 302.116C172.645 303.298 173.426 301.459 173.715 300.583C174.145 299.263 175.324 297.419 175.287 296.491C175.228 295.655 173.978 298.411 173.57 298.707C173.554 298.7 173.539 298.692 173.509 298.718C173.664 298.359 173.824 297.968 173.98 297.62C174.451 296.713 175.162 295.883 175.38 294.72C175.386 294.68 175.767 294 175.784 294.008C176.529 293.859 177.654 291.097 178.812 290.09C179.092 289.326 177.111 292.059 177.963 290.482C178.029 290.385 178.093 290.291 178.152 290.202C178.079 290.3 178.008 290.399 177.934 290.501C177.721 289.998 179.26 287.884 180.094 287.099C180.463 286.547 182.545 285.981 183.644 286.09C181.895 285.45 179.274 286.765 178.409 287.749C176.238 289.991 175.706 290.918 174.849 291.614C175.143 290.752 175.997 289.66 176.692 288.749C176.859 288.555 177.079 288.298 177.181 288.221C179.335 286.618 180.824 285.552 182.838 285.191C183.354 285.102 184.014 285.107 184.732 285.266C186.496 285.575 188.727 286.793 190.168 288.054C191.604 289.361 192.772 290.721 193.527 292.808C193.336 292.84 192.84 291.662 192.398 291.014C190.694 288.211 187.6 286.539 187.101 286.992C186.937 287.123 185.787 286.818 185.467 286.958C184.815 286.938 185.054 287.304 184.173 287.227C183.981 287.21 183.745 287.186 183.451 287.174C184.243 287.439 183.91 287.542 183.382 287.677C183.088 287.759 182.508 287.839 182.048 288.057C181.578 288.268 181.274 288.553 181.338 288.68C181.958 288.334 182.745 288.201 183.447 288.306C183.563 288.321 183.701 288.344 183.844 288.376C184.364 288.491 184.872 288.645 184.777 288.545C184.05 287.857 184.951 287.963 186.172 288.555C187.394 289.12 188.617 290.341 189.1 290.663C189.572 290.886 190.726 292.819 191.017 292.843C190.916 292.626 190.805 292.405 190.69 292.191C190.004 290.941 189.122 290.005 188.138 289.317C187.816 289.093 187.487 288.894 187.148 288.714C186.624 288.429 186.067 288.171 185.622 287.866C185.189 287.574 184.969 287.34 185.045 287.23C185.133 287.069 185.986 287.362 186.891 287.927C188.616 289.096 188.165 288.625 188.118 288.351C189.94 289.511 191.166 290.719 192.292 292.472C193.477 294.399 194.039 296.233 194.387 298.51C194.395 298.534 194.402 298.554 194.41 298.58C194.445 298.611 194.48 298.643 194.516 298.713C194.52 298.725 194.525 298.739 194.529 298.751C194.524 298.726 194.52 298.701 194.515 298.676C194.522 298.484 194.527 298.291 194.536 298.098C194.6 297.453 193.836 295.013 194.201 295.469C194.564 295.862 195.148 298.122 195.301 299.448C195.525 301.078 195.743 303.225 195.428 303.792C195.832 305.766 196.169 306.028 196.492 305.585C196.57 307.268 197.123 308.185 197.065 309.724C197.03 310.929 196.599 310.016 196.435 310.536C196.347 310.811 196.201 310.431 196.099 310.775C196.822 314.226 197.935 317.759 199.709 318.122C200.061 318.243 200.403 318.351 200.736 318.447C201.447 318.643 201.248 318.426 201.162 318.312C201.609 318.459 202.11 318.594 202.581 318.688C202.586 318.69 202.591 318.692 202.597 318.694C202.907 318.68 203.197 318.652 203.484 318.619C203.464 318.611 203.436 318.604 203.414 318.596C202.658 318.488 201.727 318.272 201.748 317.985C201.736 317.589 202.87 318.033 203.445 318.028C204.146 318.037 203.784 317.937 203.609 317.853C203.289 317.685 203.437 317.582 204.019 317.522C204.676 317.447 204.96 317.515 205.256 317.611C205.928 317.848 206.631 317.89 206.889 317.149C206.992 316.885 207.587 316.483 208.228 315.921C208.811 315.354 209.574 314.619 210.037 313.781C210.297 313.31 210.419 313.344 210.534 313.325C210.223 314.618 209.365 316.045 209.326 316.747C209.629 316.614 209.883 316.387 210.056 316.097C209.8 316.181 209.616 316.209 210.015 315.708C210.418 315.19 210.621 315.137 210.96 314.825C211.886 313.928 212.01 314.125 212.253 314.211C213.349 312.489 213.031 312.165 213.208 311.341C213.291 310.901 213.263 310.632 213.542 310.011C213.372 310.243 213.194 310.549 212.958 311.108C212.362 312.513 211.589 313.619 210.931 314.015C210.226 314.449 210.938 313.289 211.14 312.598C211.182 312.455 211.224 312.311 211.261 312.171C211.294 311.606 211.522 310.769 211.843 309.684C212.532 308.15 213.103 306.506 213.725 304.779C213.561 305.169 213.417 305.4 213.302 305.441C213.326 304.575 213.55 303.473 214.202 301.778C214.595 300.245 215.109 298.594 215.01 297.509C214.959 296.971 215.491 294.913 215.818 293.455C216.195 292.72 216.181 293.294 216.114 294.075C216.216 294.211 215.834 296.112 216.455 294.345C216.754 293.952 216.8 294.436 216.814 295.022C216.816 295.475 216.856 295.776 217.016 295.622C216.73 295.25 216.851 293.984 217.534 291.146C217.759 290.231 218.026 289.362 218.034 288.819C217.762 288.83 217.342 290.579 217.017 291.226C217.074 290.546 217.264 289.544 217.193 289.187C217.533 287.7 217.759 286.322 218.452 284.503C218.53 284.29 218.61 284.078 218.692 283.867C218.975 282.719 219.381 281.484 220.51 279.817C221.024 279.082 221.437 278.66 221.646 278.526C221.607 278.387 221.782 277.931 222.467 277.071C223.197 276.236 224.439 274.726 227.419 273.76C229.779 273.103 231.112 273.22 232.461 273.363C233.112 273.421 233.785 273.508 234.727 273.785C236.423 274.32 237.979 275.043 239.405 275.91C242.255 277.675 244.279 279.81 245.743 281.849C247.33 284.073 247.937 286.275 247.299 286.004C247.042 285.893 246.748 285.715 246.643 285.837C246.412 286.063 246.645 286.62 247.385 287.734C247.028 286.983 247.207 286.895 247.528 287.108C248.263 287.629 248.429 287.298 248.789 287.249C248.842 287.317 248.895 287.389 248.947 287.457C248.443 286.21 247.383 284.424 247.285 283.749C248.3 284.985 249.055 286.209 249.658 287.388C249.825 287.705 250.203 288.396 249.887 287.971C249.099 286.921 249.144 287.167 249.601 288.057C249.996 288.836 250.386 289.219 250.72 289.634C251.686 290.802 252.926 292.804 253.282 292.558C253.388 292.498 253.941 293.225 254.358 294.038C254.713 294.727 254.798 295.154 254.697 295.21C254.541 295.296 254.401 295.379 254.77 296.279C254.44 296.198 253.809 295.368 253.193 294.582C253.468 295.207 253.794 295.844 254.345 296.631C255.272 297.966 256.112 299.692 257.06 301.082C257.418 301.61 257.692 302.2 257.784 302.548C258.127 303.851 258.8 304.715 259.672 305.241C259.806 305.325 260.042 305.582 260.243 305.783C260.447 305.983 260.617 306.117 260.774 306.227C260.66 305.971 260.397 305.574 259.988 304.971C260.388 305.511 260.785 306.013 261.192 306.491C261.229 306.513 261.265 306.534 261.303 306.558C261.327 306.577 261.353 306.601 261.377 306.621C261.158 306.235 261.339 306.332 261.796 306.718C262.792 307.713 262.901 308.09 263.155 308.581C263.071 308.503 262.985 308.425 262.899 308.343C262.971 308.42 263.048 308.496 263.135 308.571C263.284 308.697 263.432 308.816 263.578 308.927C263.612 308.956 263.648 308.984 263.687 309.012C263.658 308.987 263.627 308.962 263.598 308.935C265.045 309.947 266.14 310.045 266.619 309.612C266.848 309.413 267.309 309.478 267.783 309.716C267.788 309.718 267.794 309.72 267.799 309.722C267.927 309.874 267.804 310.067 267.864 310.231C267.945 310.385 268.129 310.572 269.203 310.458C269.237 310.455 269.191 310.745 268.708 310.944C268.712 310.976 268.702 311.01 268.678 311.046C267.637 311.491 266.363 311.153 265.311 310.79C264.829 310.634 264.305 310.306 263.78 310.017C262.732 309.432 262.103 309.05 262.596 309.894C262.6 309.983 262.547 310.019 262.449 310.015C262.781 310.207 263.049 310.302 262.985 310.054C262.988 310.051 262.99 310.048 262.992 310.045C263.124 309.836 263.665 310.256 264.119 310.561C264.522 310.837 264.91 311.073 265.344 311.134C265.349 311.137 265.354 311.14 265.359 311.142C265.78 311.168 266.187 311.181 266.761 311.335C268.061 311.697 269.587 311.479 269.873 310.833C269.882 310.799 270.462 310.667 270.779 310.551C270.792 310.547 270.805 310.543 270.818 310.539C270.804 310.541 270.79 310.544 270.777 310.546C270.736 310.434 271.789 310.087 271.079 310.08C270.538 310.062 271.461 309.836 271.799 309.663C272.863 309.26 273.593 308.595 274.868 308.058C276.793 307.421 276.727 307.589 274.323 309.26C274.33 309.259 274.339 309.256 274.346 309.255C274.155 309.674 275.211 309.535 274.044 310.402C273.565 310.744 274.415 310.455 274.931 310.246C275.718 309.944 276.524 309.516 277.23 309.05C278.457 308.221 278.867 307.379 278.376 307.249C277.752 307.041 278.679 306.396 279.403 305.491C279.808 305.028 280.049 304.724 280.22 304.619C280.002 304.707 280.009 304.418 279.961 303.852C279.993 303.616 280.021 303.383 280.04 303.145C280.284 301.822 280.666 299.647 280.267 297.781C280.19 297.391 280.223 297.081 280.242 296.728C280.301 295.398 280.176 294.088 279.598 293.021C279.38 292.616 279.091 291.689 279.245 291.316C279.269 291.271 279.295 291.227 279.32 291.183C279.454 290.86 279.213 290.041 279.008 289.286C278.978 289.173 278.948 289.059 278.918 288.946C278.529 289.111 278.209 288.389 277.88 286.586C277.858 286.461 277.835 286.336 277.812 286.211C277.785 286.118 277.756 286.025 277.728 285.932C277.551 285.318 277.486 284.875 277.472 284.518C277.469 284.504 277.465 284.489 277.461 284.474C276.858 282.665 276.189 280.804 275.506 278.935C275.227 277.65 276.169 279.062 275.554 277.042C275.535 276.828 275.325 276.61 275.463 276.816C275.959 278.993 275.211 277.54 274.578 276.439C273.827 274.851 273.805 273.171 272.778 271.485C271.009 268.507 270.274 264.782 269.621 260.301C269.608 260.208 269.596 260.116 269.583 260.024C269.793 257.932 269.159 256.485 268.904 254.748C268.282 251.377 268.13 248.001 268.297 244.402C268.371 242.779 268.179 240.602 268.322 238.735C268.409 239.165 268.427 240.897 268.601 239.239C268.601 239.3 268.603 239.36 268.604 239.421C268.605 239.397 268.605 239.372 268.606 239.347C268.85 238.271 269.205 237.419 268.882 235.098C268.838 234.772 268.787 234.7 268.734 234.518C268.578 234.079 268.419 235.886 268.372 235.196C268.262 233.667 268.156 231.789 268.249 230.203C268.478 226.524 268.666 222.832 268.928 219.236C269.286 214.343 269.727 209.371 270.06 204.509C270.212 202.282 270.393 199.927 270.643 197.896C271.146 193.86 270.798 190.009 271.328 186.122C271.331 186.077 271.333 186.031 271.335 185.985C271.346 186.053 271.355 186.123 271.362 186.198C271.359 186.138 271.355 186.079 271.351 186.019C271.377 184.059 271.355 182.112 271.631 180.207C271.773 179.22 271.733 177.989 271.722 176.968C271.68 173.223 271.842 169.636 271.798 165.993C271.737 160.771 271.394 155.548 270.826 150.406C270.466 147.203 269.875 144.023 269.532 140.914C269.24 138.292 268.66 135.689 267.781 133.325C267.77 133.305 267.758 133.285 267.747 133.265C267.402 131.875 267.037 130.486 266.528 129.221C266.018 127.954 265.655 126.957 265.463 125.652C265.304 124.577 264.59 122.944 263.954 121.635C263.102 120.091 262.352 118.414 261.637 116.612C261.63 116.437 261.69 116.373 261.485 115.899C260.984 115.071 260.717 114.243 260.261 113.43C259.663 112.19 258.994 110.917 258.217 109.794C258.035 109.532 257.825 109.249 257.675 108.929C257.58 108.762 257.466 108.567 257.369 108.4C257.359 108.386 257.35 108.371 257.34 108.356C257.224 108.222 257.105 108.091 256.99 107.957C255.796 106.372 254.608 104.801 253.463 103C252.486 101.449 251.496 100.009 250.118 98.6625C249.581 98.1442 249.294 97.745 249.159 97.3897C249.152 97.3819 249.145 97.3742 249.138 97.3664C249.142 97.3701 249.146 97.3729 249.15 97.3766C248.384 96.1165 247.457 95.044 245.999 93.8786C245.709 93.647 245.424 93.4112 245.15 93.1716C244.3 92.4405 243.563 91.6929 243.106 90.8848C242.659 90.1313 242.315 89.2485 240.143 87.8439C239.532 87.4509 238.901 86.7915 238.331 86.6669C237.668 86.5271 239.166 87.4546 239.22 87.696C239.203 87.6845 239.186 87.6731 239.169 87.6617C239.131 87.6393 239.093 87.6153 239.055 87.593C239.089 87.6202 239.126 87.6483 239.16 87.6757C239.163 87.671 239.166 87.6663 239.169 87.6617C239.486 87.8935 239.824 88.1468 240.133 88.3865C236.743 86.0177 233.067 84.6719 229.139 82.8758C228.161 82.4292 226.841 81.9708 225.834 81.786C223.393 81.3207 221.236 80.6634 218.95 80.1214C216.512 79.5473 214.025 79.148 211.862 79.4906C211.256 79.5789 210.008 79.5749 209.445 79.381C208.57 79.0663 207.203 79.0701 205.813 79.138C202.554 79.2918 199.338 79.6974 196.174 80.3147C196.108 80.3209 196.042 80.3287 195.977 80.3359C194.029 80.6644 192.37 81.3835 190.31 81.7115C190.271 81.7204 190.232 81.7304 190.193 81.7391C188.871 82.1531 189.053 81.7644 188.074 82.0173C187.144 81.9927 185.862 82.1744 184.01 82.8387C185.628 82.3943 186.507 82.3009 186.627 82.465C183.494 83.5345 180.499 84.8843 177.745 86.4529C177.065 86.8336 176.08 87.4741 175.76 87.4705C174.839 87.4227 173.147 88.5976 171.732 89.4902C171.72 89.4946 171.71 89.4965 171.699 89.4998C171.151 89.8862 170.61 90.277 170.081 90.6817C170.052 90.7059 170.021 90.7307 169.992 90.7549C168.408 92.4141 166.615 93.6895 164.854 95.0357C164.843 95.0452 164.832 95.0557 164.821 95.0653C163.571 96.7435 161.969 98.3944 160.442 100.309C159.453 101.546 158.612 103.021 157.824 104.439C157.46 105.079 156.945 106.172 156.734 106.196C156.556 106.207 156.359 106.395 156.157 106.687C155.67 107.41 155.136 108.658 154.658 109.537C154.655 109.546 154.654 109.554 154.651 109.563C154.49 109.853 154.31 110.173 154.151 110.463C153.997 111.381 153.614 112.539 152.995 114.093C151.599 117.609 150.379 121.116 149.086 124.621C149.085 124.607 149.085 124.593 149.084 124.579C149.078 124.602 149.072 124.625 149.065 124.648C149.067 124.648 149.069 124.649 149.071 124.649C148.201 126.536 147.619 128.556 147.119 130.946C146.306 134.853 145.595 138.929 144.585 143.124C144.395 143.904 144.214 144.882 144.118 145.716C143.18 153.813 142.208 161.976 141.903 170.274C141.81 172.924 141.849 175.489 141.87 178.083C141.949 187.489 142.219 197.028 142.544 206.643C142.806 214.299 143.161 222.023 143.066 229.848C142.932 241.023 142.25 252.471 139.806 263.577C139.122 266.676 138.254 269.506 137.362 272.676C136.473 275.779 135.39 278.151 134.262 281.061C133.378 282.823 132.415 284.824 131.395 286.811C127.792 293.832 123.684 299.108 119.806 302.894C118.931 303.754 118.115 304.45 117.635 304.591C117.596 304.555 117.582 304.493 117.58 304.423C117.148 304.775 116.873 304.852 116.341 305.355C116.302 305.378 116.269 305.393 116.234 305.413C116.242 305.425 116.249 305.439 116.247 305.462C115.629 306.055 115.29 306.202 115.053 306.201C115.073 306.175 115.094 306.148 115.114 306.121C114.348 306.832 114.038 306.86 113.839 306.747C112.856 307.179 112.434 306.889 112.331 306.2C112.283 306.243 112.234 306.29 112.188 306.332C112.368 305.805 112.671 305.16 113.117 304.363C113.109 304.298 113.131 304.188 113.186 304.025C113.302 303.768 113.447 303.489 113.635 303.16C113.691 303.073 113.748 302.985 113.804 302.898C113.821 302.644 114.522 301.741 114.747 301.281C116.747 298.127 118.56 294.895 120.348 291.456C120.344 291.454 120.34 291.453 120.336 291.45C120.359 291.411 120.382 291.372 120.405 291.333C122.056 287.884 123.483 284.321 124.691 280.681C125.127 278.896 125.575 277.017 126.221 274.781C126.942 272.51 127.554 270.211 128.076 267.901C128.662 265.025 129.164 262.09 129.526 259.188C130.25 253.459 130.766 247.495 130.695 241.866C130.765 239.134 130.788 236.363 130.763 233.618C130.753 233.563 130.743 233.504 130.733 233.44C130.742 233.44 130.752 233.44 130.761 233.44C130.763 233.439 130.765 233.438 130.766 233.437C130.565 223.233 129.955 212.812 129.381 202.3C129.241 199.734 129.046 197.181 128.966 194.538C128.956 194.158 128.948 193.778 128.939 193.398C128.567 188.477 128.427 183.321 128.421 178.199C128.402 161.214 129.484 143.806 134.051 126.829C134.358 125.692 134.681 124.554 135.018 123.416C135.925 119.723 137.243 115.941 138.612 112.374C140.162 108.332 141.857 104.416 143.79 100.496C147.321 93.3186 152.497 87.0561 158.581 82.1783C160.488 80.4953 162.627 79.1243 164.674 77.6569C172.224 72.8481 180.506 69.3531 189.078 67.3921C189.072 67.3948 189.063 67.3979 189.057 67.4005C189.086 67.3924 189.117 67.3847 189.147 67.3767C189.149 67.3759 189.151 67.3752 189.154 67.3745C194.737 65.8605 200.669 65.2718 206.518 65.0703C209.036 64.9791 211.666 65.1314 214.162 65.175C217.519 65.4395 220.87 65.7732 224.135 66.5738C227.358 67.2418 230.535 68.2336 233.68 69.2045C238.001 70.6948 242.18 72.6624 246.061 75.2423C246.29 75.4021 246.553 75.5867 246.78 75.75C246.917 75.8432 247.055 75.9362 247.192 76.0304C247.078 75.9494 246.962 75.8686 246.848 75.7882C247.419 76.1525 247.984 76.5271 248.543 76.9121C250.986 78.6873 253.346 80.6262 255.524 82.7849C257.16 84.4062 258.71 86.067 260.137 87.7822C268.097 96.5511 274.319 106.906 278.417 117.995C278.422 118.006 278.426 118.018 278.43 118.029C278.428 118.025 278.424 118.017 278.421 118.013C278.717 118.539 278.98 119.232 279.214 119.934C279.236 120.001 279.26 120.068 279.283 120.135C279.268 120.08 279.251 120.019 279.237 119.965C283.233 130.737 285.296 142.04 286.255 153.155C286.354 154.318 286.41 155.523 286.589 156.566C286.587 156.578 286.585 156.587 286.584 156.598C286.586 156.599 286.589 156.604 286.591 156.605C287.024 162.014 287.091 167.374 287.032 172.727C287.03 172.727 287.028 172.727 287.026 172.727C287.252 175.891 286.994 179.182 286.895 182.389C286.892 182.416 286.89 182.446 286.887 182.473C286.891 182.463 286.895 182.451 286.899 182.442C286.767 186.843 286.558 191.19 286.305 195.542C286.239 196.596 286.17 197.657 286.1 198.712C285.978 200.777 285.85 202.828 285.719 204.886C285.321 211.042 284.881 217.127 284.504 223.215C284.458 223.976 284.443 224.802 284.282 225.349C284.187 226.789 284.321 228.094 284.164 229.573C284.158 229.65 284.154 229.732 284.148 229.81C284.146 231.545 284.006 233.246 283.985 234.975C283.984 234.996 283.984 235.018 283.983 235.039C283.984 235.025 283.985 235.012 283.987 234.999ZM278.338 306.02C278.238 306.12 277.947 306.259 277.948 306.203C277.889 306.001 277.935 305.759 278.468 305.202C278.464 305.207 278.461 305.211 278.457 305.215C278.494 305.225 278.591 305.192 278.572 305.222C278.394 305.568 278.91 305.418 278.338 306.02ZM272.367 186.486C272.345 186.461 272.326 186.422 272.309 186.355C272.107 186.874 272.001 186.337 271.899 185.666C271.8 186.73 271.718 187.851 271.609 188.929C271.828 188.257 272.064 188.107 272.289 187.67C272.303 187.298 272.328 186.904 272.367 186.486ZM271.263 209.437C271.231 209.095 271.219 208.671 271.199 208.279C271.051 209.336 270.893 209.512 270.723 209.003C270.752 209.952 270.882 210.138 271.088 209.698C271.152 209.564 271.21 209.475 271.263 209.437ZM249.963 96.7252C249.873 96.7352 249.761 96.7267 249.769 96.8539C250.048 97.1433 250.223 97.2577 250.398 97.378C250.187 97.1077 250.046 96.8938 249.963 96.7252ZM272.81 163.858C272.81 163.904 272.81 163.949 272.811 163.994C272.811 163.987 272.812 163.981 272.813 163.974C272.813 163.936 272.812 163.899 272.812 163.862C272.812 163.86 272.811 163.86 272.81 163.858ZM281.459 294.985C281.4 294.845 281.343 294.642 281.289 294.439C281.275 294.349 281.26 294.262 281.246 294.175C281.376 294.996 281.444 295.785 281.503 296.572C281.565 296.21 281.57 295.69 281.547 295.136C281.518 295.085 281.489 295.04 281.459 294.985ZM281.775 304.641C282.267 303.625 282.695 302.442 282.838 301.146C282.667 302.171 282.406 303.116 282.06 303.993C281.795 304.685 281.331 305.487 281.067 305.454C280.813 305.42 281.111 304.818 281.414 304.075C281.458 303.981 281.495 303.891 281.528 303.809C281.351 303.973 281.168 304.129 280.976 304.282C281.125 303.923 281.257 303.55 281.367 303.173C280.842 304.095 280.465 304.471 280.264 304.596C280.411 304.53 280.494 304.656 280.489 304.996C280.414 305.972 281.109 305.947 281.775 304.641ZM171.381 88.6771C172.076 88.3133 172.753 88.0097 173.498 87.5891C173.729 87.3717 173.99 87.1446 174.318 86.897C174.695 86.6875 174.969 86.5051 175.207 86.3315C174.055 87.0376 172.872 87.6539 171.714 88.3366C171.602 88.4497 171.491 88.5633 171.381 88.6771ZM270.855 258.334C270.883 258.918 270.915 259.503 270.966 260.107C270.991 260.365 271.021 260.625 271.057 260.888C271.039 260.633 271.021 260.372 271.002 260.103C270.972 259.55 270.923 258.962 270.855 258.334ZM221.875 280.171C222.604 278.536 223.638 277.241 222.321 278.192C222.137 278.333 221.995 278.435 221.888 278.498C221.913 278.536 221.924 278.595 221.93 278.663C221.876 279.122 220.976 281.029 221.875 280.171ZM277.321 279.173C277.194 279.135 276.973 278.802 276.749 278.466C276.935 278.945 277.132 279.397 277.313 279.87C277.356 279.718 277.359 279.486 277.321 279.173ZM281.88 298.627C282.195 298.814 282.428 298.487 282.115 296.726C282.078 296.49 282.035 296.294 281.989 296.126C281.935 296.134 281.918 296.358 281.931 296.997C281.944 297.561 281.922 298.11 281.879 298.622C281.879 298.624 281.88 298.625 281.88 298.627ZM265.396 120.798C265.465 121.065 265.492 121.249 265.494 121.388C265.57 121.513 265.644 121.627 265.717 121.738C265.593 121.413 265.491 121.1 265.396 120.798ZM214.207 303.206C214.117 303.555 214.02 303.91 213.915 304.257C213.936 304.198 213.957 304.137 213.979 304.078C214.058 303.789 214.134 303.495 214.207 303.206ZM255.688 302.569C255.739 302.613 255.805 302.678 255.896 302.781C256.996 304.363 258.118 305.951 259.257 307.347C259.522 307.672 259.792 307.989 260.036 308.28C260.083 308.318 260.13 308.354 260.181 308.394C260.435 308.582 260.744 308.861 261.038 309.095C259.135 307.22 257.375 304.668 255.624 302.416C255.646 302.467 255.665 302.516 255.688 302.569ZM229.925 80.9126C230.11 81.0087 229.779 80.8629 230.08 80.9874C230.033 80.9648 229.987 80.9398 229.935 80.9138C229.932 80.9137 229.928 80.9127 229.925 80.9126ZM271.29 229.073C271.291 229.06 271.292 229.048 271.292 229.035C271.286 229.103 271.28 229.173 271.272 229.24C271.28 229.207 271.287 229.178 271.295 229.15C271.293 229.125 271.292 229.098 271.29 229.073ZM243.313 286.339C243.995 286.944 244.523 287.314 243.273 285.442C242.906 284.908 242.753 284.593 242.809 284.497C243.775 285.09 243.095 283.788 241.893 282.235C241.758 282.061 241.582 281.863 241.401 281.668C241.64 281.966 241.887 282.29 242.176 282.686C240.67 281.06 239.148 279.712 237.373 278.793C236.532 278.319 234.585 277.388 233.854 276.914C233.498 276.653 232.821 276.366 231.903 276.16C231.147 275.998 230.291 275.925 229.313 276.056C230.214 275.908 231.07 275.927 231.92 276.074C235.104 276.566 237.941 278.314 240.076 280.226C238.975 278.833 237.35 277.095 232.682 276.034C232.441 275.987 232.198 275.944 231.953 275.906C229.687 275.407 226.636 276.334 225.093 277.802C226.152 276.936 227.793 276.173 229.469 276.044C228.604 276.274 228.014 276.625 228.032 276.756C228.035 276.923 228.693 276.718 230.235 276.833C231.193 276.974 230.479 276.953 229.472 277.148C228.405 277.334 227.269 277.997 227.141 278.235C228.473 277.482 230.201 277.233 231.633 277.512C233.177 277.772 234.663 278.262 236.012 279.07C236.232 279.193 237.139 279.564 237.252 279.548C237.517 279.447 238.172 279.65 239.681 280.923C241.119 282.155 242.51 283.584 242.693 284.394C242.272 284.085 241.145 283.064 242.41 284.63C243.333 285.836 243.237 286.01 243.313 286.339ZM252.204 297.821C252.705 298.77 253.288 299.7 253.716 300.236C254.648 301.398 255.498 302.802 256.4 304.205C256.262 303.923 256.053 303.572 255.812 303.181C255.808 303.173 255.806 303.166 255.802 303.157C255.145 302.276 254.532 301.294 253.938 300.23C253.869 300.174 253.808 300.138 253.758 300.135C253.411 299.749 253.021 299.179 252.592 298.435C252.334 297.942 252.071 297.447 251.788 296.931C251.744 296.893 251.702 296.856 251.654 296.799C251.82 297.13 252.001 297.469 252.204 297.821ZM198.197 314.972C197.984 314.385 197.547 313.467 197.668 312.969C197.815 312.37 198.228 314.041 198.544 314.402C198.664 314.676 198.795 314.93 198.924 315.156C199.152 315.52 199.323 315.796 199.395 316.079C199.113 316.107 198.745 316.19 198.202 314.97C198.2 314.97 198.198 314.971 198.197 314.972ZM219.718 292.017C219.727 291.975 219.735 291.934 219.745 291.892C218.761 293.197 219.769 289.497 220.118 287.928C220.644 285.65 221.379 282.894 223.214 279.914C221.459 282.545 220.753 284.838 220.004 287.096C220.119 287.122 220.049 287.641 219.858 288.459C219.542 289.81 219.444 290.897 219.04 292.359C218.608 293.914 218.686 294.379 218.701 295.006C218.69 295.139 218.677 295.277 218.664 295.415C219.041 294.575 219.375 293.351 219.718 292.017ZM258.67 308.347C258.581 308.618 258.933 309.355 260.035 310.187C260.447 310.492 260.891 310.853 261.325 311.164C261.309 311.139 261.29 311.111 261.274 311.085C259.497 309.829 259.508 309.281 259.566 308.943C259.415 308.769 259.273 308.581 259.136 308.387C259.073 308.278 259.019 308.179 258.967 308.083C258.962 308.077 258.956 308.071 258.951 308.066C259.013 308.348 258.727 308.224 258.67 308.347ZM280.495 308.152C280.585 307.855 280.744 307.514 280.982 307.082C280.338 307.869 279.552 308.591 278.671 309.242C279.621 308.576 279.986 308.327 280.495 308.152ZM272.712 312.657C273.77 312.352 274.431 311.935 275.196 311.432C274.3 311.91 273.571 312.282 272.712 312.657ZM252.454 299.124C252.221 298.637 251.954 298.135 251.636 297.582C251.96 298.176 252.231 298.688 252.454 299.124ZM260.321 314.581C260.771 314.7 260.65 314.386 261.181 314.539C261.504 314.625 261.063 314.186 260.35 313.625C260.04 313.381 259.77 313.167 259.474 312.91C257.85 311.462 257.41 310.568 257.856 310.61C257.807 310.5 257.751 310.38 257.704 310.261C257.671 310.033 258.047 310.299 258.218 310.313C258.295 310.33 258.372 310.345 258.466 310.387C258.731 310.535 259.017 310.695 259.174 310.713C259.167 310.633 259.023 310.471 258.854 310.285C258.189 309.585 257.546 308.908 256.925 308.21C254.884 305.594 253.863 303.084 253.345 301.426C253.294 301.255 253.241 301.09 253.186 300.925C253.207 301.151 253.123 301.252 252.93 301.238C252.477 301.221 252.251 301.682 250.888 299.945C249.987 298.781 250.226 299.956 250.313 300.664C250.381 301.148 251.012 302.108 251.503 302.741C251.997 303.379 252.353 303.644 252.964 304.516C254.014 305.887 254.822 307.196 255.528 308.488C256.318 309.906 256.218 310.14 255.037 308.938C254.819 308.711 254.625 308.519 254.436 308.335C255.084 309.108 255.737 309.889 256.484 310.803C256.513 310.834 256.542 310.865 256.57 310.895C256.483 310.308 256.608 310.349 258.777 312.552C258.604 312.559 258.439 312.576 258.276 312.592C259.155 313.382 259.496 313.861 260.168 314.447C260.22 314.492 260.269 314.537 260.321 314.581ZM219.418 295.797C219.463 295.346 219.604 294.723 219.736 294.121C219.63 294.164 219.569 293.976 219.392 294.39C219.388 294.389 219.384 294.388 219.381 294.387C219.38 294.388 219.38 294.389 219.379 294.39C219.379 294.393 219.379 294.395 219.379 294.397C219.125 295.546 218.8 296.287 218.485 297.084C218.469 297.221 218.453 297.358 218.437 297.494C218.505 298.519 219.056 296.6 219.418 295.797ZM284.995 298.496C284.981 298.492 284.966 298.477 284.951 298.463C284.963 298.637 284.971 298.807 284.975 298.987C284.984 298.82 284.991 298.659 284.995 298.496ZM219.379 294.397C219.379 294.394 219.38 294.39 219.381 294.387C219.38 294.399 219.379 294.41 219.378 294.422C219.377 294.415 219.379 294.404 219.379 294.397ZM269.663 314.646C268.868 314.705 268.022 314.748 267.16 314.709C267.984 314.791 268.775 314.754 269.663 314.646ZM266.386 314.666C266.481 314.671 266.571 314.675 266.664 314.679C266.617 314.675 266.57 314.67 266.524 314.666C266.479 314.667 266.434 314.668 266.386 314.666ZM221.601 287.619C221.734 286.964 221.93 286.249 222.154 285.496C221.771 286.503 221.635 287.163 221.528 287.819C221.552 287.752 221.577 287.686 221.601 287.619ZM265.166 314.417C265.515 314.568 265.837 314.624 266.149 314.651C265.837 314.62 265.513 314.544 265.166 314.417ZM272.824 314.155C273.322 313.867 274.054 313.587 274.972 313.271C275.032 313.251 275.093 313.229 275.154 313.208C274.938 313.276 274.719 313.337 274.505 313.386C273.554 313.599 272.212 314.173 270.923 314.456C270.937 314.454 270.951 314.451 270.964 314.449C271.778 314.314 272.416 314.14 272.824 314.155ZM244.396 291.066C245.411 292.535 245.453 292.095 245.573 291.899C245.676 291.706 245.539 291.065 244.785 289.782C244.278 288.917 243.609 287.959 243.219 287.211C242.948 286.565 242.849 286.148 243.098 286.15C243.116 286.165 243.132 286.18 243.149 286.195C241.48 283.521 239.427 282.023 236.95 280.472C235.314 279.555 234.362 279.303 234.216 279.331C234.055 279.375 234.703 279.719 235.8 280.597C236.789 281.412 236.915 281.848 237.153 282.314C237.179 282.333 237.205 282.35 237.232 282.369C237.726 282.753 238.168 283.034 238.606 283.414C238.888 283.693 239.167 283.978 239.443 284.269C239.933 284.584 240.215 284.655 239.556 283.703C238.896 282.815 239.486 283.158 240.552 284.292C242.202 286.076 243.472 288.128 244.388 289.783C245.181 291.241 244.601 290.77 243.858 289.974C244.083 290.383 244.306 290.799 244.396 291.066ZM197.522 316.729C197.729 317.08 197.948 317.372 198.179 317.606C197.948 317.341 197.734 317.043 197.522 316.729ZM221.695 289.178C221.733 288.924 221.777 288.664 221.85 288.366C221.838 288.395 221.825 288.427 221.813 288.456C221.673 288.673 221.57 288.755 221.514 288.663C221.51 288.645 221.509 288.619 221.507 288.599C221.44 288.773 221.373 288.951 221.308 289.128C221.289 289.216 221.267 289.311 221.242 289.413C221.432 289.191 221.574 289.145 221.695 289.178ZM194.518 306.775C194.813 307.391 195.105 308.104 195.404 308.886C195.393 308.55 195.408 308.245 195.448 307.982C195.504 307.619 195.497 307.215 195.462 306.799C195.458 307.389 195.379 307.7 195.224 307.691C194.927 307.648 194.651 306.954 194.438 305.087C194.403 305.542 194.441 306.143 194.497 306.788C194.504 306.783 194.511 306.776 194.518 306.775ZM277.208 166.734C277.2 166.568 277.192 166.401 277.183 166.235C277.178 166.372 277.172 166.51 277.164 166.641C277.178 166.674 277.193 166.7 277.208 166.734ZM262.01 314.408C262.037 314.398 262.073 314.392 262.121 314.39C262.563 314.382 264.058 314.894 265.494 315.098C264.23 314.821 263.018 314.467 261.689 313.969C261.901 314.143 262.003 314.285 262.007 314.4C262.007 314.402 262.01 314.406 262.01 314.408ZM283.839 286.399C283.831 286.397 283.823 286.393 283.814 286.388C283.823 286.42 283.832 286.453 283.841 286.485C283.839 286.453 283.839 286.427 283.839 286.399ZM218.854 300.006C218.957 299.582 219.058 299.16 219.161 298.736C219.034 299.194 218.906 299.649 218.789 300.096C218.696 300.353 218.606 300.607 218.517 300.86C218.636 300.631 218.747 300.339 218.854 300.006ZM217.649 304.451C217.681 304.318 217.716 304.186 217.751 304.054C217.748 304.061 217.745 304.065 217.741 304.071C217.685 304.257 217.628 304.44 217.568 304.625C217.593 304.574 217.618 304.527 217.644 304.484C217.646 304.472 217.647 304.463 217.649 304.451ZM203.363 320.49C203.68 320.455 204.083 320.433 204.563 320.398C204.849 320.412 205.099 320.409 205.356 320.388C205.767 320.213 206.363 320.078 207.047 319.857C207.108 319.809 207.161 319.761 207.205 319.711C206.926 319.828 206.628 319.941 206.337 320.018C205.63 320.214 204.756 320.282 204.314 320.116C204.255 320.096 204.216 320.077 204.193 320.06C203.352 320.158 203.289 320.3 203.363 320.49ZM225.548 281.2C225.731 280.95 225.898 280.738 226.139 280.478C226.145 280.472 226.152 280.466 226.159 280.459C225.89 280.699 225.669 280.926 225.412 281.241C225.453 281.233 225.497 281.222 225.548 281.2ZM216.405 309.023C216.638 308.495 216.824 307.902 217.029 307.307C217.214 306.775 217.384 306.213 217.564 305.686C217.568 305.597 217.569 305.515 217.566 305.437C217.203 306.319 216.839 307.221 216.516 308.186C216.532 308.348 216.564 308.483 216.442 308.897C216.431 308.938 216.418 308.981 216.405 309.023ZM285.72 291.727C285.633 291.324 285.534 290.909 285.412 290.53C285.526 290.931 285.629 291.334 285.72 291.727ZM192.722 298.683C193.262 300.685 193.565 302.9 193.716 304.987C193.731 304.988 193.748 304.991 193.769 305.016C193.914 305.216 194.02 305.836 194.112 306.565C194.153 306.91 194.132 308.419 194.312 307.387C194.315 307.374 194.318 307.361 194.321 307.348C194.247 306.677 194.212 305.968 194.141 305.3C194.026 304.251 193.721 303.08 193.824 302.211C193.896 301.557 194.093 302.409 194.262 302.955C194.193 301.496 193.99 300.162 193.621 299.027C193.632 299.135 193.639 299.234 193.637 299.309C193.601 299.885 193.166 299.448 192.722 298.683ZM281.707 277.329C281.496 276.839 281.294 276.331 281.089 275.806C281.199 276.19 281.305 276.567 281.342 276.837C281.473 277.025 281.597 277.267 281.717 277.557C281.711 277.488 281.703 277.418 281.698 277.354C281.702 277.347 281.704 277.336 281.707 277.329ZM284.635 285.472C284.409 284.974 284.205 284.605 284.006 284.251C284.021 284.351 284.034 284.449 284.042 284.544C284.204 284.737 284.44 285.212 284.635 285.472ZM195.882 317.551C196.218 318.054 196.587 318.499 197.027 318.919C196.799 318.563 196.711 318.278 196.789 318.21C196.539 318.114 196.212 317.876 195.882 317.551ZM115.053 306.201C115.038 306.221 115.024 306.24 115.009 306.26C115.022 306.24 115.035 306.221 115.047 306.201C115.049 306.201 115.051 306.201 115.053 306.201ZM281.767 311.971C282.048 311.675 282.302 311.382 282.665 311.036C282.747 310.976 282.841 310.898 282.932 310.816C282.852 310.884 282.767 310.952 282.689 311.014C282.702 311 282.717 310.987 282.73 310.973C282.027 311.513 281.244 311.977 281.29 311.65C280.974 312.058 280.495 312.53 281.064 312.357C281.297 312.249 281.536 312.117 281.767 311.971ZM287.634 300.455C287.482 300.903 287.315 301.23 287.141 301.602C287.202 301.611 287.245 301.735 287.244 302.058C287.405 301.579 287.544 301.057 287.634 300.455ZM282.254 276.664C282.183 276.487 282.121 276.318 282.064 276.152C282.046 276.204 282.036 276.279 282.018 276.335C282.068 276.463 282.109 276.584 282.142 276.702C282.179 276.687 282.214 276.67 282.254 276.664ZM170.134 309.238C170.792 306.064 169.329 310.194 168.84 310.859C168.835 310.869 168.831 310.88 168.826 310.89C169.43 309.477 169.85 308.251 169.99 307.327C170.413 306.183 170.827 305.059 171.246 303.916C172.25 303.127 172.151 303.744 170.134 309.238ZM279.266 168.31C279.237 168.118 279.211 167.911 279.185 167.695C279.175 167.917 279.163 168.14 279.152 168.363C279.188 168.314 279.227 168.307 279.266 168.31ZM262.109 316.123C262.202 316.122 262.207 316.07 262.277 316.054C262.172 316.022 262.064 315.987 261.96 315.953C261.989 316.001 262.011 316.047 262.109 316.123ZM276.189 252.263C276.189 252.273 276.187 252.28 276.187 252.291C276.188 252.281 276.189 252.275 276.19 252.266C276.19 252.265 276.189 252.264 276.189 252.263ZM167.098 314.988C166.522 316.19 166.125 316.588 165.713 317.07C165.708 317.08 165.703 317.09 165.698 317.1C166.635 314.926 167.587 313.168 168.549 311.535C168.244 312.62 167.484 313.903 167.098 314.988ZM192.829 305.358C192.939 305.932 193.041 306.557 193.151 307.124C193.06 306.372 192.968 305.641 192.829 305.358ZM246.624 298.743C246.536 298.418 246.498 298.166 246.572 298.075C246.577 298.085 246.583 298.095 246.588 298.105C246.786 298.41 246.983 298.715 247.177 299.014C247.237 299.042 247.328 299.13 247.478 299.331C247.608 299.503 247.738 299.707 247.878 299.934C247.892 299.258 246.389 297.237 246.098 296.302C246.215 296.352 246.376 296.51 246.556 296.717C245.98 295.881 245.475 295.378 244.871 294.474C244.524 293.948 244.199 293.423 243.908 292.903C243.903 292.992 243.858 293.017 243.776 292.982C243.631 292.961 243.614 293.154 243.471 293.135C244.651 294.917 245.659 296.812 246.624 298.743ZM285.651 309.609C285.641 309.622 285.631 309.635 285.621 309.649C285.623 309.647 285.624 309.646 285.626 309.644C285.634 309.632 285.643 309.62 285.651 309.609ZM181.601 289.13C181.926 288.909 182.281 288.736 182.719 288.674C182.445 288.644 182.072 288.703 181.754 288.797C181.782 288.886 181.721 288.994 181.601 289.13ZM248.411 304.041C248.469 304.06 248.552 304.135 248.636 304.21C249.361 305.013 250.009 305.969 250.646 307.068C250.522 306.605 250.633 306.477 250.81 306.445C250.571 306.283 250.253 305.987 249.929 305.674C249.437 305.2 248.74 304.227 248.327 303.894C248.355 303.943 248.383 303.992 248.411 304.041ZM223.609 295.63C223.609 295.536 223.602 295.45 223.584 295.378C223.56 295.491 223.536 295.601 223.512 295.706C223.546 295.671 223.579 295.644 223.609 295.63ZM278.311 256.653C278.313 256.692 278.314 256.729 278.315 256.768C278.32 256.778 278.324 256.786 278.329 256.797C278.323 256.749 278.317 256.701 278.311 256.653ZM167.631 317.667C167.625 318.133 167.042 319.044 166.574 319.813C166.213 320.381 165.699 321.174 165.713 320.831C165.715 320.52 166.113 319.803 166.56 318.98C166.558 318.979 166.556 318.978 166.554 318.977C167.035 318.28 167.63 317.188 167.631 317.667ZM146.311 327.85C145.922 327.601 145.589 327.371 145.296 327.153C145.294 327.156 145.292 327.159 145.29 327.162C143.721 325.967 142.444 324.747 141.084 323.289C141.084 323.289 141.084 323.289 141.084 323.289C141.108 323.265 141.189 323.297 141.218 323.268C143.789 325.85 146.643 328.371 150.562 329.588C149.141 329.452 147.592 328.611 146.311 327.85ZM239.138 289.601C239.431 289.92 239.688 290.265 239.933 290.635C239.543 289.73 239.484 289.214 239.159 288.445C239.158 288.429 239.155 288.411 239.153 288.396C239.049 288.241 238.963 288.098 238.885 287.96C239.045 288.575 239.073 289.063 239.138 289.601ZM220.526 309.141C221.033 307.645 221.668 306.044 221.989 304.625C222.004 304.268 221.941 304.166 221.836 304.248C221.627 304.656 221.398 305.261 221.13 306.05C221.123 306.267 221.157 306.428 221.119 306.682C221.067 307.312 220.811 308.225 220.526 309.141ZM277.217 317.449C277.146 317.457 277.093 317.454 277.065 317.437C277.065 317.436 277.068 317.434 277.068 317.433C276.814 317.56 276.565 317.678 276.325 317.786C276.584 317.699 276.838 317.612 277.05 317.546C277.095 317.517 277.151 317.485 277.217 317.449ZM167.749 318.916C166.272 321.841 164.476 324.863 161.631 327.17C160.701 327.914 159.734 328.668 158.667 329.283C158.06 329.033 161.18 327.298 162.024 326.402C164.207 324.486 165.333 322.531 166.417 320.43C167.279 318.969 167.218 319.633 167.749 318.916ZM190.267 302.781C190.309 302.895 190.351 303.04 190.392 303.114C190.351 302.961 190.309 302.824 190.266 302.691C190.267 302.721 190.268 302.753 190.267 302.781ZM219.241 314.235C219.445 313.602 219.747 312.794 220.163 311.75C220.312 311.341 220.484 310.906 220.637 310.476C220.186 311.292 219.948 311.476 220.042 310.773C220.082 310.603 220.13 310.425 220.18 310.248C220.152 310.338 220.122 310.431 220.096 310.518C219.842 311.724 219.385 313.16 218.946 314.424C218.875 314.587 218.804 314.75 218.736 314.907C218.904 314.725 219.074 314.497 219.241 314.235ZM178.234 295.305C178.324 295.052 178.422 294.794 178.529 294.533C178.38 294.806 178.236 295.09 178.093 295.386C178.166 295.311 178.211 295.287 178.234 295.305ZM224.975 298.526C225.116 297.101 225.597 295.209 225.864 293.794C225.553 294.82 225.393 296.635 224.792 297.634C224.775 297.732 224.754 297.835 224.728 297.945C224.761 297.893 224.794 297.841 224.828 297.799C224.887 298.019 224.95 298.23 224.975 298.526ZM218.14 317.914C218.256 317.52 218.394 317.08 218.56 316.587C218.613 316.419 218.659 316.257 218.704 316.095C218.585 316.019 218.517 315.855 218.086 316.385C218.018 316.539 217.941 316.705 217.867 316.864C217.686 317.621 217.097 318.799 216.843 319.505C217.154 319.116 217.479 318.704 217.803 318.289C217.917 318.167 218.03 318.041 218.14 317.914ZM249.362 309.9C249.658 310.654 250.488 311.911 251.407 312.832C251.788 313.212 252.21 313.675 252.638 314.134C253.1 313.607 253.151 313.977 256.465 316.668C256.602 316.773 256.724 316.862 256.835 316.938C253.959 314.515 252.347 313.004 250.556 311.004C250.271 310.886 248.982 308.923 249.362 309.9ZM241.415 295.449C241.327 295.129 241.287 294.874 241.353 294.758C241.18 294.568 241.04 294.425 240.91 294.296C241.077 294.674 241.245 295.059 241.415 295.449ZM224.426 301.627C224.325 301.842 224.229 302.066 224.137 302.297C224.134 302.324 224.132 302.35 224.129 302.378C224.232 302.132 224.332 301.882 224.426 301.627ZM224.442 301.581C224.703 300.866 224.902 300.146 224.928 299.5C224.857 299.999 224.714 300.655 224.442 301.581ZM292.296 294.966C292.206 295.315 292.009 294.896 291.949 295.543C292.188 296.588 292.187 295.246 292.301 295.152C292.304 295.132 292.306 295.109 292.308 295.089C292.304 295.049 292.3 295.008 292.296 294.966ZM232.824 285.688C233.132 285.993 233.43 286.303 233.946 286.649C233.937 286.635 233.925 286.619 233.919 286.606C233.884 286.53 233.923 286.516 234.006 286.543C233.79 286.331 233.647 286.168 233.564 286.033C233.371 285.989 233.125 285.865 232.824 285.688ZM224.124 305.468C224.115 305.482 224.109 305.487 224.101 305.498C224.107 305.5 224.112 305.502 224.118 305.504C224.12 305.491 224.122 305.48 224.124 305.468ZM283.885 180.93C283.885 180.934 283.885 180.937 283.885 180.941C283.885 180.939 283.886 180.936 283.886 180.934C283.886 180.933 283.885 180.932 283.885 180.93ZM224.114 305.525C224.021 305.852 223.926 306.18 223.829 306.508C223.889 306.358 223.95 306.211 224.009 306.065C224.044 305.887 224.081 305.703 224.114 305.525ZM283.888 154.261C283.843 153.91 283.805 153.546 283.776 153.191C283.739 153.603 283.693 153.969 283.566 153.854C283.56 153.842 283.554 153.831 283.548 153.82C283.55 153.918 283.551 154.014 283.553 154.112C283.79 154.554 283.937 155.807 284.085 156.876C284.117 157.134 284.136 157.391 284.149 157.641C284.155 157.644 284.16 157.647 284.165 157.651C284.158 157.459 284.146 157.261 284.126 157.056C284.095 156.495 284.055 155.922 284.034 155.392C283.987 155.016 283.938 154.639 283.888 154.261ZM238.463 292.863C238.779 293.273 239.106 293.675 239.45 294.066C239.603 294.239 239.763 294.45 239.929 294.691C239.821 294.453 239.732 294.244 239.682 294.082C239.292 293.717 238.894 293.332 238.463 292.863ZM230.595 285.659C230.424 285.588 230.238 285.527 230.042 285.477C230.117 285.479 230.307 285.493 230.547 285.441C230.784 285.393 230.996 285.283 231.077 285.206C231.132 285.1 231.086 285.047 231.016 285.03C230.993 285.054 230.943 285.108 230.887 285.177C231.006 285.21 231.033 285.297 230.999 285.452C231.179 285.167 231.303 285.133 231.028 285.289C230.901 285.357 230.679 285.436 230.473 285.466C230.269 285.498 230.108 285.487 230.04 285.486C230.23 285.534 230.415 285.592 230.595 285.659ZM228.264 294.69C228.07 294.954 227.896 295.14 227.977 294.435C228.09 293.465 228.532 292.752 228.806 291.897C228.795 291.943 228.785 291.988 228.775 292.031C228.787 291.987 228.8 291.942 228.812 291.898C228.81 291.898 228.808 291.897 228.806 291.897C229.543 289.658 229.672 288.777 229.379 288.457C229.38 288.45 229.382 288.441 229.382 288.433C229.379 288.44 229.376 288.448 229.373 288.455C229.375 288.457 229.377 288.456 229.379 288.457C228.791 289.727 228.329 291.309 227.888 292.866C227.884 292.874 227.88 292.882 227.876 292.89C227.794 293.205 227.712 293.542 227.624 293.887C227.59 294.076 227.557 294.265 227.523 294.457C227.034 297.08 226.23 299.948 225.443 302.8C225.712 302.398 226.01 301.826 226.269 300.699C226.916 297.881 227.559 296.187 228.264 294.69ZM258.868 320.263C258.704 320.125 258.55 319.988 258.418 319.859C258.451 319.941 258.596 320.077 258.868 320.263ZM283.026 206.691C283.001 206.722 282.972 206.744 282.94 206.746C282.894 206.743 282.847 206.673 282.795 206.913C282.73 207.654 282.796 208.041 282.843 208.476C282.915 207.879 282.983 207.289 283.026 206.691ZM247.554 308.832C247.899 309.711 248.375 310.561 249.351 311.835C249.335 311.81 249.318 311.783 249.302 311.758C249.052 311.264 248.749 310.729 248.424 310.168C248.121 309.713 247.839 309.28 247.554 308.832ZM293.509 290.383C293.375 289.484 293.172 288.601 292.946 287.728C293.084 288.563 293.151 289.269 292.908 289.047C292.571 288.758 292.246 287.187 291.869 285.917C291.563 284.854 291.228 283.708 290.855 282.942C291.045 283.663 291.231 284.403 291.4 285.132C291.403 285.137 291.406 285.147 291.408 285.152C291.514 285.611 291.618 286.101 291.717 286.572C291.722 286.586 291.727 286.602 291.733 286.617C292.126 287.29 292.522 288.736 292.87 289.916C292.994 289.515 293.188 289.51 293.509 290.383ZM282.416 221.913C282.431 221.534 282.449 221.155 282.472 220.775C282.438 221.019 282.408 221.311 282.377 221.599C282.393 221.696 282.406 221.799 282.416 221.913ZM282.232 227.187C282.264 226.246 282.287 225.295 282.322 224.344C282.253 224.717 282.216 225.254 282.168 225.733C282.195 225.829 282.218 225.945 282.231 226.122C282.223 226.486 282.226 226.837 282.232 227.187ZM282.235 241.847C282.2 241.935 282.166 241.999 282.132 241.999C281.931 241.391 281.868 240.398 281.84 239.352C281.827 239.811 281.796 240.263 281.724 240.648C281.795 240.682 281.861 240.932 281.925 241.356C282.028 242.029 282.14 242.418 282.275 241.992C282.262 241.945 282.249 241.893 282.235 241.847ZM282.168 248.728C282.171 248.783 282.174 248.838 282.178 248.893C282.189 248.884 282.2 248.882 282.212 248.881C282.197 248.83 282.183 248.777 282.168 248.728ZM254.256 318.313C254.295 318.268 254.348 318.235 254.43 318.228C254.398 318.201 254.371 318.174 254.342 318.148C254.329 318.215 254.297 318.266 254.256 318.313ZM216.33 323.769C216.345 323.758 216.36 323.747 216.375 323.736C215.127 324.705 213.248 326.111 211.458 326.779C212.655 325.88 215.973 323.856 217.204 322.16C217.688 322.172 219.134 320.879 220.55 318.67C221.795 316.738 222.785 314.785 223.615 312.885C223.772 312.516 224.041 311.847 223.982 312.253C223.965 312.419 223.719 313.015 223.563 313.43C221.97 316.852 219.963 320.555 216.33 323.769ZM287.611 271.233C287.338 270.817 287.137 270.619 287.043 270.751C287.082 270.816 287.122 270.896 287.162 270.993C287.203 270.763 287.386 270.94 287.611 271.233ZM228.786 294.324C228.795 294.214 228.791 294.123 228.778 294.044C228.777 294.05 228.775 294.056 228.774 294.062C228.788 294.12 228.793 294.204 228.786 294.324ZM291.306 312.016C291.033 312.163 291.186 311.682 291.364 311.104C290.557 312.361 289.579 313.473 288.847 314.584C290.029 313.3 290.492 313.025 291.306 312.016ZM283.143 252.112C283.069 251.797 283 251.451 282.94 251.063C282.929 251.191 282.915 251.285 282.899 251.348C282.979 251.6 283.061 251.848 283.143 252.112ZM138.612 112.886C138.579 112.972 138.546 113.057 138.513 113.142C138.536 113.1 138.559 113.06 138.582 113.016C138.597 112.961 138.613 112.903 138.626 112.85C138.629 112.842 138.632 112.834 138.635 112.827C138.624 112.844 138.612 112.865 138.601 112.882C138.605 112.884 138.608 112.885 138.612 112.886ZM239.917 299.271C239.414 298.59 238.744 297.897 238.671 297.082C238.668 297.072 238.664 297.062 238.66 297.052C239.533 298.429 238.805 296.623 239.474 297.6C240.139 298.517 240.755 299.571 240.916 300.309C241.081 301.045 240.343 299.836 239.917 299.271ZM188.977 67.4353C188.993 67.4297 189.011 67.4241 189.027 67.4185C189.025 67.418 189.021 67.4179 189.019 67.4175C189.006 67.4234 188.991 67.4294 188.977 67.4353ZM249.366 314.385C247.942 312.851 247.223 311.41 246.388 310.202C247.299 311.322 248.177 312.52 249.366 314.385ZM283.356 246.41C283.389 246.467 283.391 246.409 283.356 246.28C283.356 246.324 283.356 246.367 283.356 246.41ZM286.946 172.498C286.942 172.524 286.938 172.549 286.935 172.572C286.937 172.617 286.94 172.66 286.942 172.705C286.943 172.69 286.945 172.677 286.946 172.663C286.946 172.608 286.946 172.553 286.946 172.498ZM286.899 182.442C286.9 182.425 286.9 182.407 286.901 182.39C286.902 182.403 286.904 182.415 286.905 182.428C286.903 182.432 286.901 182.438 286.899 182.442ZM283.853 239.626C283.849 239.88 283.847 240.145 283.843 240.405C283.848 240.197 283.852 239.992 283.856 239.79C283.855 239.734 283.854 239.681 283.853 239.626ZM283.987 234.999C283.986 234.98 283.986 234.961 283.985 234.942C283.99 234.919 283.995 234.896 283.999 234.872C283.995 234.913 283.991 234.958 283.987 234.999Z" fill="#EF5DA8"/>
<path d="M221.475 170.81C220.85 174.399 220.636 178.072 220.003 181.524" stroke="#EF5DA8" stroke-width="16" stroke-linecap="round" stroke-linejoin="round"/>
<path d="M196.929 180.334C196.929 177.556 196.929 174.778 196.929 172" stroke="#EF5DA8" stroke-width="16" stroke-linecap="round" stroke-linejoin="round"/>
</svg>
